<svg width="45" height="44" viewBox="0 0 45 44" fill="none" xmlns="http://www.w3.org/2000/svg">
<rect x="1.51447" y="0.750557" width="42.075" height="42.075" rx="21.0375" fill="#E1AC57"/>
<rect x="1.51447" y="0.750557" width="42.075" height="42.075" rx="21.0375" stroke="#E1AC57" stroke-width="1.485"/>
<path d="M31.7199 17.6485C31.2479 16.5244 30.5613 15.5026 29.6982 14.6402C28.8377 13.7762 27.8156 13.0894 26.6898 12.6185C25.5366 12.1339 24.2975 11.8854 23.0461 11.888H23.004C21.7313 11.8943 20.5005 12.1462 19.3414 12.6416C18.2253 13.1173 17.2127 13.8054 16.3603 14.6675C15.5056 15.528 14.8268 16.5462 14.3618 17.6653C13.879 18.8291 13.6344 20.0775 13.6423 21.337C13.6486 22.794 13.9978 24.2404 14.65 25.5336V28.7246C14.65 29.2578 15.0834 29.6903 15.6156 29.6903H18.8091C20.1111 30.3459 21.5478 30.6908 23.0061 30.6979H23.0503C24.3084 30.6979 25.5264 30.4544 26.6751 29.9779C27.7952 29.5127 28.8135 28.8338 29.673 27.9793C30.5397 27.1207 31.2213 26.1172 31.6989 24.9983C32.1933 23.8394 32.4457 22.6071 32.452 21.3349C32.4562 20.0564 32.208 18.8157 31.7199 17.6485ZM18.847 22.3006C18.2916 22.3006 17.8393 21.8493 17.8393 21.2929C17.8393 20.7366 18.2916 20.2853 18.847 20.2853C19.4024 20.2853 19.8547 20.7366 19.8547 21.2929C19.8547 21.8493 19.4045 22.3006 18.847 22.3006ZM23.0461 22.3006C22.4907 22.3006 22.0384 21.8493 22.0384 21.2929C22.0384 20.7366 22.4907 20.2853 23.0461 20.2853C23.6015 20.2853 24.0538 20.7366 24.0538 21.2929C24.0538 21.8493 23.6015 22.3006 23.0461 22.3006ZM27.2452 22.3006C26.6898 22.3006 26.2375 21.8493 26.2375 21.2929C26.2375 20.7366 26.6898 20.2853 27.2452 20.2853C27.8006 20.2853 28.2529 20.7366 28.2529 21.2929C28.2529 21.8493 27.8006 22.3006 27.2452 22.3006Z" fill="#FFFED3"/>
</svg>
