<svg width="44" height="44" viewBox="0 0 44 44" fill="none" xmlns="http://www.w3.org/2000/svg">
<rect x="0.191895" y="0.00805664" width="43.56" height="43.56" rx="21.78" fill="#E1AC57"/>
<path d="M22.4858 26.6043L26.9857 19.7671C25.95 19.5654 24.9639 19.1622 24.0836 18.5805C23.2007 18.0019 22.4401 17.2555 21.8449 16.3837L17.345 23.2208C16.9939 23.7542 16.8181 24.0214 16.6782 24.3043C16.5133 24.6383 16.385 24.9892 16.2955 25.3508C16.2205 25.6571 16.1829 25.9749 16.1075 26.6089L15.7087 29.9534C15.6902 30.1066 15.7148 30.2619 15.7797 30.4019C15.8446 30.5419 15.9473 30.661 16.0762 30.7458C16.2051 30.8306 16.3551 30.8778 16.5093 30.8821C16.6636 30.8864 16.8159 30.8475 16.9493 30.7699L19.8634 29.0809C20.4167 28.7607 20.6929 28.6007 20.9445 28.4106C21.2427 28.1851 21.5126 27.9299 21.7543 27.6452C21.9589 27.4049 22.1347 27.1377 22.4858 26.6043ZM28.2342 17.8702C28.6829 17.1885 28.8423 16.3565 28.6776 15.5571C28.5128 14.7578 28.0372 14.0567 27.3555 13.6081C26.6738 13.1594 25.8418 12.9999 25.0425 13.1647C24.2432 13.3295 23.5421 13.805 23.0934 14.4867L22.5537 15.3067L22.6004 15.3858C23.1329 16.2754 23.8605 17.0324 24.7283 17.5998C25.6185 18.1896 26.6343 18.563 27.6945 18.6902L28.2342 17.8702Z" fill="#FFFED3"/>
</svg>
