<svg width="44" height="44" viewBox="0 0 44 44" fill="none" xmlns="http://www.w3.org/2000/svg">
<rect width="43.56" height="43.56" rx="21.78" fill="#E3B05F"/>
<path d="M21.2364 27.3709L27.9483 20.6591C26.8192 20.1874 25.7937 19.4985 24.9299 18.6317C24.0627 17.7678 23.3735 16.742 22.9017 15.6125L16.1898 22.3243C15.6662 22.848 15.4039 23.1102 15.1789 23.3988C14.9133 23.7395 14.6854 24.108 14.4991 24.4978C14.3421 24.8281 14.2251 25.1802 13.9909 25.8826L12.7549 29.588C12.698 29.7576 12.6896 29.9398 12.7306 30.114C12.7715 30.2881 12.8602 30.4475 12.9868 30.574C13.1133 30.7005 13.2726 30.7892 13.4468 30.8302C13.621 30.8711 13.8031 30.8627 13.9728 30.8058L17.6781 29.5698C18.3814 29.3357 18.7326 29.2186 19.063 29.0616C19.4544 28.8753 19.8207 28.6487 20.1619 28.3819C20.4505 28.1568 20.7128 27.8946 21.2364 27.3709ZM29.8105 18.7969C30.4797 18.1277 30.8557 17.22 30.8557 16.2736C30.8557 15.3271 30.4797 14.4195 29.8105 13.7503C29.1413 13.081 28.2336 12.7051 27.2872 12.7051C26.3408 12.7051 25.4331 13.081 24.7639 13.7503L23.9589 14.5552L23.9934 14.6559C24.39 15.791 25.0391 16.8212 25.8919 17.6688C26.7649 18.5471 27.8311 19.2091 29.0055 19.6018L29.8105 18.7969Z" fill="#FFFED3"/>
</svg>
