<svg width="44" height="44" viewBox="0 0 44 44" fill="none" xmlns="http://www.w3.org/2000/svg">
<rect x="0.411865" y="0.00805664" width="43.56" height="43.56" rx="21.78" fill="#5B3200"/>
<mask id="path-2-outside-1_636_601" maskUnits="userSpaceOnUse" x="11.1919" y="8.78809" width="21" height="25" fill="black">
<rect fill="white" x="11.1919" y="8.78809" width="21" height="25"/>
<path d="M15.5338 9.86851C15.7835 9.79453 15.9684 9.75754 16.0886 9.75754C16.1996 9.75754 16.4077 9.78528 16.7129 9.84077C17.092 9.95174 17.3186 10.0211 17.3926 10.0488C17.6608 10.1506 17.9243 10.3217 18.1833 10.5621C18.4237 10.8025 18.6272 11.0754 18.7936 11.3805C18.8584 11.5285 18.9277 11.7458 19.0017 12.0325C19.0757 12.3562 19.1127 12.5874 19.1127 12.7261C19.1127 12.8648 19.0665 13.1099 18.974 13.4613C18.8907 13.8127 18.8075 14.0532 18.7243 14.1826C18.4838 14.6173 18.1047 14.9641 17.5868 15.223C17.2539 15.3895 17.0042 15.4912 16.8377 15.5282C16.625 15.5745 16.3661 15.5976 16.0609 15.5976C15.7557 15.5976 15.5014 15.5745 15.2979 15.5282C15.1222 15.4912 14.8725 15.3849 14.5489 15.2092C14.179 15.0057 13.8876 14.793 13.6749 14.5711C13.453 14.3491 13.2819 14.0763 13.1617 13.7526C13.06 13.4752 13.0091 13.2024 13.0091 12.9342C13.0091 12.4903 13.1247 12.0325 13.3559 11.5609C13.6148 11.08 13.8876 10.7193 14.1743 10.4789C14.4703 10.2569 14.9234 10.0535 15.5338 9.86851ZM11.5387 16.6934L11.5664 16.5131C11.5942 16.4206 11.6589 16.3513 11.7606 16.305C11.9641 16.2218 14.0819 16.1617 18.1139 16.1247C19.1219 16.1247 19.6953 16.1201 19.834 16.1108C20.3612 16.0923 20.6987 16.1571 20.8467 16.305C20.9392 16.3975 20.9854 16.49 20.9854 16.5825C20.9761 16.6749 20.916 16.7767 20.8051 16.8876L20.6247 17.068H18.7104C17.7671 17.068 17.2261 17.0726 17.0874 17.0819C16.8562 17.1003 16.7221 17.1281 16.6851 17.1651C16.6296 17.2021 16.5973 17.2761 16.588 17.387C16.5788 17.4333 16.5742 17.5581 16.5742 17.7616L16.5603 18.15L16.5325 19.1349C16.5233 19.5325 16.5094 19.7499 16.4909 19.7869C16.4539 19.8978 16.3198 19.9533 16.0886 19.9533C15.9314 19.9533 15.802 19.9117 15.7002 19.8285C15.5985 19.7545 15.5476 19.6435 15.5476 19.4955V18.0945C15.5476 17.6506 15.543 17.3917 15.5338 17.3177C15.5153 17.2159 15.4875 17.1512 15.4505 17.1235C15.3858 17.0865 14.7616 17.068 13.5778 17.068H11.8023L11.6635 16.9431C11.608 16.8876 11.5711 16.8322 11.5526 16.7767L11.5387 16.6934ZM14.0911 13.3642C14.1558 13.6694 14.3593 13.9422 14.7015 14.1826C15.0714 14.4323 15.5153 14.5572 16.0332 14.5572C16.4031 14.5572 16.7637 14.4832 17.1152 14.3352C17.2816 14.2797 17.4342 14.1549 17.5729 13.9607C17.7116 13.8127 17.8272 13.6185 17.9197 13.3781C17.9752 13.1839 18.003 12.9619 18.003 12.7122C18.003 12.3238 17.9567 12.0279 17.8642 11.8244C17.6608 11.4083 17.2585 11.0846 16.6574 10.8534C16.4724 10.8072 16.2551 10.7841 16.0054 10.7841C15.7095 10.8025 15.4922 10.8395 15.3534 10.895C15.2055 10.932 15.0066 11.0754 14.7569 11.3251C14.4888 11.621 14.3269 11.8429 14.2714 11.9909C14.1235 12.3423 14.0495 12.6706 14.0495 12.9758C14.0495 13.1053 14.0634 13.2347 14.0911 13.3642ZM30.2441 10.035C30.3273 9.9425 30.466 9.89626 30.6602 9.89626C30.8359 9.89626 30.9377 9.91013 30.9654 9.93787C31.0486 10.0211 31.0995 10.6361 31.118 11.7828C31.1272 11.8476 31.1319 12.3146 31.1319 13.1839L31.1457 14.5711C31.155 15.4496 31.1596 16.4807 31.1596 17.6645C31.1596 18.5893 31.1504 19.0701 31.1319 19.1071C31.0671 19.3013 30.8637 19.3753 30.5215 19.3291L30.2718 19.2597C30.2441 19.2505 30.2117 19.2042 30.1747 19.121C30.1377 19.01 30.1192 17.4888 30.1192 14.5572V10.1737L30.2441 10.035ZM22.9475 15.6253L22.9336 14.6959C22.9336 14.3722 22.9429 14.1457 22.9614 14.0162C22.9891 13.8682 23.0816 13.7572 23.2388 13.6833L23.2527 13.6694C23.3452 13.6324 23.4376 13.6139 23.5301 13.6139C23.5671 13.6139 23.6411 13.6231 23.7521 13.6416C23.9463 13.6786 24.5011 13.6971 25.4167 13.6971H26.7484L26.8316 13.5584C26.8778 13.4752 26.938 13.2532 27.0119 12.8926C27.0767 12.5781 27.109 12.3238 27.109 12.1296V12.0741V12.0325C27.109 11.9123 27.0443 11.8383 26.9148 11.8106C26.7669 11.7828 26.2629 11.769 25.4028 11.769H25.0976C24.1173 11.769 23.5625 11.7643 23.433 11.7551C23.2388 11.7366 23.114 11.7088 23.0585 11.6718C22.9937 11.6071 22.9614 11.5239 22.9614 11.4222C22.9614 11.2742 23.003 11.1586 23.0862 11.0754C23.1509 11.0106 23.3405 10.9644 23.655 10.9366C24.0434 10.8997 24.7508 10.8627 25.7773 10.8257L27.0674 10.7979C27.5298 10.7979 27.8211 10.8395 27.9413 10.9228C28.0431 10.9968 28.1171 11.0707 28.1633 11.1447C28.2003 11.2372 28.2188 11.4129 28.2188 11.6718C28.2188 12.125 28.1772 12.5828 28.0939 13.0452C28.0292 13.4336 27.9968 13.7387 27.9968 13.9607C27.9968 14.0717 27.9876 14.1549 27.9691 14.2104C27.9598 14.2474 27.9182 14.3029 27.8442 14.3769C27.7333 14.4693 27.5714 14.5248 27.3587 14.5433C27.0628 14.5618 26.5125 14.5711 25.708 14.5711C24.9404 14.5711 24.5058 14.5757 24.404 14.5849C24.2653 14.5942 24.1543 14.6265 24.0711 14.682L23.9324 14.793L23.9601 15.4172L23.9879 16.4299C23.9879 16.6796 24.011 16.8368 24.0572 16.9015C24.0757 16.92 24.2006 16.9293 24.4318 16.9293C24.7924 16.9293 25.4213 16.9015 26.3183 16.846C26.8825 16.7998 27.4142 16.7767 27.9136 16.7767C28.265 16.7767 28.4731 16.7952 28.5378 16.8322C28.6118 16.8784 28.6812 16.9524 28.7459 17.0541C28.7829 17.1188 28.8014 17.1743 28.8014 17.2206C28.8014 17.2483 28.7783 17.3084 28.732 17.4009C28.6581 17.5581 28.5286 17.6552 28.3436 17.6922C28.1494 17.7292 27.6639 17.7708 26.8871 17.8171L24.5428 17.9003C24.0989 17.9188 23.8122 17.9188 23.6827 17.9003C23.5347 17.9003 23.4191 17.8818 23.3359 17.8448C23.1509 17.7431 23.0446 17.609 23.0169 17.4425C22.9891 17.3038 22.966 16.7304 22.9475 15.7224V15.6253ZM13.0923 23.6327C13.1478 23.6142 14.068 23.5957 15.8528 23.5772C17.6284 23.5772 18.5856 23.5957 18.7243 23.6327C19.0202 23.6882 19.1682 23.8454 19.1682 24.1043C19.1497 24.2523 19.0988 24.3633 19.0156 24.4373L18.863 24.5621L16.4354 24.5344C16.0563 24.5251 15.58 24.5205 15.0066 24.5205C14.3131 24.5205 13.9524 24.5344 13.9246 24.5621C13.8784 24.6083 13.8553 24.8442 13.8553 25.2696C13.8553 25.695 13.8692 25.9308 13.8969 25.977C13.9154 25.9955 14.1235 26.0048 14.5211 26.0048L16.3245 25.977L18.0446 25.9493L18.6133 25.9632C18.863 25.9724 19.0433 26.0418 19.1543 26.1712C19.219 26.236 19.2514 26.3331 19.2514 26.4625C19.2422 26.5828 19.2006 26.6799 19.1266 26.7538C19.0341 26.8463 18.8907 26.9018 18.6965 26.9203C18.4931 26.9481 18.0122 26.9619 17.2539 26.9619C16.7915 26.9619 16.5418 26.9804 16.5048 27.0174C16.4771 27.0452 16.4632 27.133 16.4632 27.281C16.4632 27.6694 16.4863 27.8775 16.5325 27.9052C16.625 27.9514 17.4897 27.9977 19.1266 28.0439C19.7647 28.0624 20.1438 28.0763 20.2641 28.0855C20.3843 28.0948 20.4768 28.1272 20.5415 28.1826C20.6155 28.2751 20.6525 28.4 20.6525 28.5572C20.6525 28.7976 20.5692 28.9548 20.4028 29.0288C20.3843 29.0381 20.1022 29.0427 19.5566 29.0427C18.4376 29.0427 17.4111 29.0334 16.4771 29.015C13.9154 28.9872 12.4866 28.9595 12.1907 28.9317C11.9225 28.904 11.7468 28.8624 11.6635 28.8069C11.5803 28.7514 11.5387 28.645 11.5387 28.4878C11.5387 28.2474 11.6358 28.0994 11.83 28.0439C12.0242 27.9977 12.6114 27.9699 13.5917 27.9607C14.683 27.9422 15.2378 27.9191 15.2563 27.8913C15.2933 27.8543 15.3026 27.7064 15.2841 27.4474L15.2702 27.0452L14.2576 27.0174C13.7119 26.9989 13.3836 26.9804 13.2727 26.9619C13.1247 26.9342 13.023 26.8648 12.9675 26.7538C12.9028 26.6336 12.8658 26.4764 12.8565 26.2822C12.838 26.125 12.8195 25.7458 12.801 25.1447C12.801 24.9968 12.7964 24.8904 12.7872 24.8257C12.7872 24.6962 12.7825 24.5714 12.7733 24.4511C12.7733 24.3309 12.7779 24.2292 12.7872 24.1459C12.7964 24.0257 12.8241 23.924 12.8704 23.8408C12.9351 23.739 13.0091 23.6697 13.0923 23.6327ZM12.9259 31.5951C12.9259 31.4286 12.9351 31.2899 12.9536 31.179C12.9721 31.0865 13.0137 30.9801 13.0785 30.8599C13.2819 30.453 13.5501 30.1155 13.883 29.8473C14.2159 29.5976 14.6229 29.4265 15.1037 29.334C15.2147 29.3063 15.3858 29.2924 15.617 29.2924L16.1025 29.3063C16.5557 29.3155 16.8932 29.3479 17.1152 29.4034C18.1047 29.6716 18.7428 30.1108 19.0295 30.7212C19.1127 30.8969 19.1636 31.1327 19.1821 31.4286C19.1821 31.7246 19.1358 31.9835 19.0433 32.2055C18.8399 32.7511 18.3682 33.1534 17.6284 33.4123C17.1753 33.5788 16.7036 33.662 16.2135 33.662C15.9268 33.662 15.6124 33.625 15.2702 33.551C14.5766 33.4123 14.0772 33.2551 13.7721 33.0794C13.4576 32.9037 13.2218 32.6494 13.0646 32.3164C12.9721 32.1315 12.9259 31.891 12.9259 31.5951ZM14.0356 31.2622C13.9894 31.3732 13.9663 31.5026 13.9663 31.6506C13.9663 31.8356 14.0264 31.9928 14.1466 32.1222C14.2853 32.2702 14.5489 32.3766 14.9373 32.4413C15.3257 32.506 15.8621 32.5384 16.5464 32.5384C16.9903 32.5384 17.2585 32.5106 17.351 32.4552C17.7949 32.2332 18.0168 31.8957 18.0168 31.4425C18.0168 30.9339 17.6469 30.5732 16.9071 30.3605C16.7591 30.3235 16.514 30.3004 16.1719 30.2912L15.7557 30.2773C15.6262 30.2773 15.4875 30.2865 15.3396 30.305C15.1176 30.3328 14.9234 30.3929 14.7569 30.4854C14.3963 30.6703 14.1558 30.9293 14.0356 31.2622ZM30.918 24.1321C31.0198 24.1321 31.1076 24.1367 31.1816 24.1459C31.3111 24.1552 31.4036 24.1783 31.459 24.2153C31.4868 24.2523 31.5007 25.6996 31.5007 28.5572V32.8297L31.3897 32.9684C31.2972 33.0609 31.177 33.1071 31.029 33.1071C30.8718 33.1071 30.7516 33.0655 30.6683 32.9823C30.5574 32.8621 30.4973 32.7187 30.488 32.5523C30.4695 32.3673 30.4603 32.113 30.4603 31.7893V31.3315L30.4741 28.1965C30.4834 28.0023 30.488 27.7064 30.488 27.3087C30.5065 25.6626 30.5204 24.7794 30.5296 24.6592C30.5759 24.3448 30.6776 24.1691 30.8348 24.1321H30.918ZM22.803 27.5168C22.803 26.2036 22.8123 25.3805 22.8308 25.0476C22.84 24.8164 22.914 24.6638 23.0527 24.5898C23.1452 24.5436 23.2284 24.5205 23.3024 24.5205C23.3487 24.5205 23.4273 24.539 23.5382 24.576C23.6585 24.6315 23.7324 24.7332 23.7602 24.8812C23.7787 25.0291 23.7879 25.2696 23.7879 25.6025V26.0603V26.6151C23.7879 27.1793 23.8018 27.7757 23.8295 28.4046V28.5433C23.8573 29.1629 23.8989 29.519 23.9544 29.6114C24.0006 29.7132 24.1625 29.764 24.4399 29.764H24.5093C24.7405 29.764 25.1381 29.7363 25.7022 29.6808C26.1646 29.6346 26.4652 29.6207 26.6039 29.6392C26.7334 29.6484 26.8444 29.7085 26.9368 29.8195C27.0201 29.912 27.0617 30.0091 27.0617 30.1108C27.0617 30.231 27.0016 30.3466 26.8813 30.4576C26.7796 30.5409 26.7056 30.5871 26.6594 30.5963C26.6039 30.6148 26.4698 30.6333 26.2571 30.6518L25.3971 30.7351C25.1659 30.7628 24.9347 30.7767 24.7035 30.7767C24.4353 30.7767 24.1301 30.7536 23.7879 30.7073C23.5197 30.6703 23.3255 30.6195 23.2053 30.5547C23.0943 30.5177 23.0019 30.4345 22.9279 30.305C22.8909 30.231 22.8631 30.0507 22.8446 29.764C22.8262 29.4681 22.8123 28.7236 22.803 27.5307V27.5168ZM25.7993 27.1561C25.7993 27.0729 25.8225 26.9989 25.8687 26.9342C25.9334 26.8232 25.9935 26.7631 26.049 26.7538C26.1508 26.7354 26.4143 26.7215 26.8397 26.7122L27.1449 26.6984C27.7923 26.6799 28.1483 26.6521 28.213 26.6151C28.2685 26.5874 28.2963 26.4209 28.2963 26.1157C28.2963 25.8661 28.3101 25.5285 28.3379 25.1031C28.3564 24.8904 28.3795 24.7239 28.4072 24.6037C28.4165 24.5575 28.4627 24.4927 28.546 24.4095C28.6569 24.2985 28.7725 24.2431 28.8928 24.2431C28.9852 24.2431 29.0916 24.2893 29.2118 24.3818L29.3505 24.5066L29.3644 28.3352V30.2357C29.3644 31.5766 29.3598 32.2841 29.3505 32.3581C29.3228 32.58 29.2211 32.7326 29.0453 32.8158C28.9806 32.8436 28.9159 32.8574 28.8511 32.8574C28.7309 32.8574 28.6199 32.8112 28.5182 32.7187C28.4535 32.6725 28.4165 32.617 28.4072 32.5523C28.3703 32.469 28.3471 32.3349 28.3379 32.15C28.3009 31.7523 28.2778 30.9431 28.2685 29.7224C28.2408 28.4092 28.2084 27.7387 28.1714 27.711C28.1344 27.7018 27.8339 27.6879 27.2698 27.6694C26.6779 27.6509 26.3311 27.6278 26.2294 27.6C25.9797 27.526 25.8363 27.3966 25.7993 27.2116V27.1561Z"/>
</mask>
<path d="M15.5338 9.86851C15.7835 9.79453 15.9684 9.75754 16.0886 9.75754C16.1996 9.75754 16.4077 9.78528 16.7129 9.84077C17.092 9.95174 17.3186 10.0211 17.3926 10.0488C17.6608 10.1506 17.9243 10.3217 18.1833 10.5621C18.4237 10.8025 18.6272 11.0754 18.7936 11.3805C18.8584 11.5285 18.9277 11.7458 19.0017 12.0325C19.0757 12.3562 19.1127 12.5874 19.1127 12.7261C19.1127 12.8648 19.0665 13.1099 18.974 13.4613C18.8907 13.8127 18.8075 14.0532 18.7243 14.1826C18.4838 14.6173 18.1047 14.9641 17.5868 15.223C17.2539 15.3895 17.0042 15.4912 16.8377 15.5282C16.625 15.5745 16.3661 15.5976 16.0609 15.5976C15.7557 15.5976 15.5014 15.5745 15.2979 15.5282C15.1222 15.4912 14.8725 15.3849 14.5489 15.2092C14.179 15.0057 13.8876 14.793 13.6749 14.5711C13.453 14.3491 13.2819 14.0763 13.1617 13.7526C13.06 13.4752 13.0091 13.2024 13.0091 12.9342C13.0091 12.4903 13.1247 12.0325 13.3559 11.5609C13.6148 11.08 13.8876 10.7193 14.1743 10.4789C14.4703 10.2569 14.9234 10.0535 15.5338 9.86851ZM11.5387 16.6934L11.5664 16.5131C11.5942 16.4206 11.6589 16.3513 11.7606 16.305C11.9641 16.2218 14.0819 16.1617 18.1139 16.1247C19.1219 16.1247 19.6953 16.1201 19.834 16.1108C20.3612 16.0923 20.6987 16.1571 20.8467 16.305C20.9392 16.3975 20.9854 16.49 20.9854 16.5825C20.9761 16.6749 20.916 16.7767 20.8051 16.8876L20.6247 17.068H18.7104C17.7671 17.068 17.2261 17.0726 17.0874 17.0819C16.8562 17.1003 16.7221 17.1281 16.6851 17.1651C16.6296 17.2021 16.5973 17.2761 16.588 17.387C16.5788 17.4333 16.5742 17.5581 16.5742 17.7616L16.5603 18.15L16.5325 19.1349C16.5233 19.5325 16.5094 19.7499 16.4909 19.7869C16.4539 19.8978 16.3198 19.9533 16.0886 19.9533C15.9314 19.9533 15.802 19.9117 15.7002 19.8285C15.5985 19.7545 15.5476 19.6435 15.5476 19.4955V18.0945C15.5476 17.6506 15.543 17.3917 15.5338 17.3177C15.5153 17.2159 15.4875 17.1512 15.4505 17.1235C15.3858 17.0865 14.7616 17.068 13.5778 17.068H11.8023L11.6635 16.9431C11.608 16.8876 11.5711 16.8322 11.5526 16.7767L11.5387 16.6934ZM14.0911 13.3642C14.1558 13.6694 14.3593 13.9422 14.7015 14.1826C15.0714 14.4323 15.5153 14.5572 16.0332 14.5572C16.4031 14.5572 16.7637 14.4832 17.1152 14.3352C17.2816 14.2797 17.4342 14.1549 17.5729 13.9607C17.7116 13.8127 17.8272 13.6185 17.9197 13.3781C17.9752 13.1839 18.003 12.9619 18.003 12.7122C18.003 12.3238 17.9567 12.0279 17.8642 11.8244C17.6608 11.4083 17.2585 11.0846 16.6574 10.8534C16.4724 10.8072 16.2551 10.7841 16.0054 10.7841C15.7095 10.8025 15.4922 10.8395 15.3534 10.895C15.2055 10.932 15.0066 11.0754 14.7569 11.3251C14.4888 11.621 14.3269 11.8429 14.2714 11.9909C14.1235 12.3423 14.0495 12.6706 14.0495 12.9758C14.0495 13.1053 14.0634 13.2347 14.0911 13.3642ZM30.2441 10.035C30.3273 9.9425 30.466 9.89626 30.6602 9.89626C30.8359 9.89626 30.9377 9.91013 30.9654 9.93787C31.0486 10.0211 31.0995 10.6361 31.118 11.7828C31.1272 11.8476 31.1319 12.3146 31.1319 13.1839L31.1457 14.5711C31.155 15.4496 31.1596 16.4807 31.1596 17.6645C31.1596 18.5893 31.1504 19.0701 31.1319 19.1071C31.0671 19.3013 30.8637 19.3753 30.5215 19.3291L30.2718 19.2597C30.2441 19.2505 30.2117 19.2042 30.1747 19.121C30.1377 19.01 30.1192 17.4888 30.1192 14.5572V10.1737L30.2441 10.035ZM22.9475 15.6253L22.9336 14.6959C22.9336 14.3722 22.9429 14.1457 22.9614 14.0162C22.9891 13.8682 23.0816 13.7572 23.2388 13.6833L23.2527 13.6694C23.3452 13.6324 23.4376 13.6139 23.5301 13.6139C23.5671 13.6139 23.6411 13.6231 23.7521 13.6416C23.9463 13.6786 24.5011 13.6971 25.4167 13.6971H26.7484L26.8316 13.5584C26.8778 13.4752 26.938 13.2532 27.0119 12.8926C27.0767 12.5781 27.109 12.3238 27.109 12.1296V12.0741V12.0325C27.109 11.9123 27.0443 11.8383 26.9148 11.8106C26.7669 11.7828 26.2629 11.769 25.4028 11.769H25.0976C24.1173 11.769 23.5625 11.7643 23.433 11.7551C23.2388 11.7366 23.114 11.7088 23.0585 11.6718C22.9937 11.6071 22.9614 11.5239 22.9614 11.4222C22.9614 11.2742 23.003 11.1586 23.0862 11.0754C23.1509 11.0106 23.3405 10.9644 23.655 10.9366C24.0434 10.8997 24.7508 10.8627 25.7773 10.8257L27.0674 10.7979C27.5298 10.7979 27.8211 10.8395 27.9413 10.9228C28.0431 10.9968 28.1171 11.0707 28.1633 11.1447C28.2003 11.2372 28.2188 11.4129 28.2188 11.6718C28.2188 12.125 28.1772 12.5828 28.0939 13.0452C28.0292 13.4336 27.9968 13.7387 27.9968 13.9607C27.9968 14.0717 27.9876 14.1549 27.9691 14.2104C27.9598 14.2474 27.9182 14.3029 27.8442 14.3769C27.7333 14.4693 27.5714 14.5248 27.3587 14.5433C27.0628 14.5618 26.5125 14.5711 25.708 14.5711C24.9404 14.5711 24.5058 14.5757 24.404 14.5849C24.2653 14.5942 24.1543 14.6265 24.0711 14.682L23.9324 14.793L23.9601 15.4172L23.9879 16.4299C23.9879 16.6796 24.011 16.8368 24.0572 16.9015C24.0757 16.92 24.2006 16.9293 24.4318 16.9293C24.7924 16.9293 25.4213 16.9015 26.3183 16.846C26.8825 16.7998 27.4142 16.7767 27.9136 16.7767C28.265 16.7767 28.4731 16.7952 28.5378 16.8322C28.6118 16.8784 28.6812 16.9524 28.7459 17.0541C28.7829 17.1188 28.8014 17.1743 28.8014 17.2206C28.8014 17.2483 28.7783 17.3084 28.732 17.4009C28.6581 17.5581 28.5286 17.6552 28.3436 17.6922C28.1494 17.7292 27.6639 17.7708 26.8871 17.8171L24.5428 17.9003C24.0989 17.9188 23.8122 17.9188 23.6827 17.9003C23.5347 17.9003 23.4191 17.8818 23.3359 17.8448C23.1509 17.7431 23.0446 17.609 23.0169 17.4425C22.9891 17.3038 22.966 16.7304 22.9475 15.7224V15.6253ZM13.0923 23.6327C13.1478 23.6142 14.068 23.5957 15.8528 23.5772C17.6284 23.5772 18.5856 23.5957 18.7243 23.6327C19.0202 23.6882 19.1682 23.8454 19.1682 24.1043C19.1497 24.2523 19.0988 24.3633 19.0156 24.4373L18.863 24.5621L16.4354 24.5344C16.0563 24.5251 15.58 24.5205 15.0066 24.5205C14.3131 24.5205 13.9524 24.5344 13.9246 24.5621C13.8784 24.6083 13.8553 24.8442 13.8553 25.2696C13.8553 25.695 13.8692 25.9308 13.8969 25.977C13.9154 25.9955 14.1235 26.0048 14.5211 26.0048L16.3245 25.977L18.0446 25.9493L18.6133 25.9632C18.863 25.9724 19.0433 26.0418 19.1543 26.1712C19.219 26.236 19.2514 26.3331 19.2514 26.4625C19.2422 26.5828 19.2006 26.6799 19.1266 26.7538C19.0341 26.8463 18.8907 26.9018 18.6965 26.9203C18.4931 26.9481 18.0122 26.9619 17.2539 26.9619C16.7915 26.9619 16.5418 26.9804 16.5048 27.0174C16.4771 27.0452 16.4632 27.133 16.4632 27.281C16.4632 27.6694 16.4863 27.8775 16.5325 27.9052C16.625 27.9514 17.4897 27.9977 19.1266 28.0439C19.7647 28.0624 20.1438 28.0763 20.2641 28.0855C20.3843 28.0948 20.4768 28.1272 20.5415 28.1826C20.6155 28.2751 20.6525 28.4 20.6525 28.5572C20.6525 28.7976 20.5692 28.9548 20.4028 29.0288C20.3843 29.0381 20.1022 29.0427 19.5566 29.0427C18.4376 29.0427 17.4111 29.0334 16.4771 29.015C13.9154 28.9872 12.4866 28.9595 12.1907 28.9317C11.9225 28.904 11.7468 28.8624 11.6635 28.8069C11.5803 28.7514 11.5387 28.645 11.5387 28.4878C11.5387 28.2474 11.6358 28.0994 11.83 28.0439C12.0242 27.9977 12.6114 27.9699 13.5917 27.9607C14.683 27.9422 15.2378 27.9191 15.2563 27.8913C15.2933 27.8543 15.3026 27.7064 15.2841 27.4474L15.2702 27.0452L14.2576 27.0174C13.7119 26.9989 13.3836 26.9804 13.2727 26.9619C13.1247 26.9342 13.023 26.8648 12.9675 26.7538C12.9028 26.6336 12.8658 26.4764 12.8565 26.2822C12.838 26.125 12.8195 25.7458 12.801 25.1447C12.801 24.9968 12.7964 24.8904 12.7872 24.8257C12.7872 24.6962 12.7825 24.5714 12.7733 24.4511C12.7733 24.3309 12.7779 24.2292 12.7872 24.1459C12.7964 24.0257 12.8241 23.924 12.8704 23.8408C12.9351 23.739 13.0091 23.6697 13.0923 23.6327ZM12.9259 31.5951C12.9259 31.4286 12.9351 31.2899 12.9536 31.179C12.9721 31.0865 13.0137 30.9801 13.0785 30.8599C13.2819 30.453 13.5501 30.1155 13.883 29.8473C14.2159 29.5976 14.6229 29.4265 15.1037 29.334C15.2147 29.3063 15.3858 29.2924 15.617 29.2924L16.1025 29.3063C16.5557 29.3155 16.8932 29.3479 17.1152 29.4034C18.1047 29.6716 18.7428 30.1108 19.0295 30.7212C19.1127 30.8969 19.1636 31.1327 19.1821 31.4286C19.1821 31.7246 19.1358 31.9835 19.0433 32.2055C18.8399 32.7511 18.3682 33.1534 17.6284 33.4123C17.1753 33.5788 16.7036 33.662 16.2135 33.662C15.9268 33.662 15.6124 33.625 15.2702 33.551C14.5766 33.4123 14.0772 33.2551 13.7721 33.0794C13.4576 32.9037 13.2218 32.6494 13.0646 32.3164C12.9721 32.1315 12.9259 31.891 12.9259 31.5951ZM14.0356 31.2622C13.9894 31.3732 13.9663 31.5026 13.9663 31.6506C13.9663 31.8356 14.0264 31.9928 14.1466 32.1222C14.2853 32.2702 14.5489 32.3766 14.9373 32.4413C15.3257 32.506 15.8621 32.5384 16.5464 32.5384C16.9903 32.5384 17.2585 32.5106 17.351 32.4552C17.7949 32.2332 18.0168 31.8957 18.0168 31.4425C18.0168 30.9339 17.6469 30.5732 16.9071 30.3605C16.7591 30.3235 16.514 30.3004 16.1719 30.2912L15.7557 30.2773C15.6262 30.2773 15.4875 30.2865 15.3396 30.305C15.1176 30.3328 14.9234 30.3929 14.7569 30.4854C14.3963 30.6703 14.1558 30.9293 14.0356 31.2622ZM30.918 24.1321C31.0198 24.1321 31.1076 24.1367 31.1816 24.1459C31.3111 24.1552 31.4036 24.1783 31.459 24.2153C31.4868 24.2523 31.5007 25.6996 31.5007 28.5572V32.8297L31.3897 32.9684C31.2972 33.0609 31.177 33.1071 31.029 33.1071C30.8718 33.1071 30.7516 33.0655 30.6683 32.9823C30.5574 32.8621 30.4973 32.7187 30.488 32.5523C30.4695 32.3673 30.4603 32.113 30.4603 31.7893V31.3315L30.4741 28.1965C30.4834 28.0023 30.488 27.7064 30.488 27.3087C30.5065 25.6626 30.5204 24.7794 30.5296 24.6592C30.5759 24.3448 30.6776 24.1691 30.8348 24.1321H30.918ZM22.803 27.5168C22.803 26.2036 22.8123 25.3805 22.8308 25.0476C22.84 24.8164 22.914 24.6638 23.0527 24.5898C23.1452 24.5436 23.2284 24.5205 23.3024 24.5205C23.3487 24.5205 23.4273 24.539 23.5382 24.576C23.6585 24.6315 23.7324 24.7332 23.7602 24.8812C23.7787 25.0291 23.7879 25.2696 23.7879 25.6025V26.0603V26.6151C23.7879 27.1793 23.8018 27.7757 23.8295 28.4046V28.5433C23.8573 29.1629 23.8989 29.519 23.9544 29.6114C24.0006 29.7132 24.1625 29.764 24.4399 29.764H24.5093C24.7405 29.764 25.1381 29.7363 25.7022 29.6808C26.1646 29.6346 26.4652 29.6207 26.6039 29.6392C26.7334 29.6484 26.8444 29.7085 26.9368 29.8195C27.0201 29.912 27.0617 30.0091 27.0617 30.1108C27.0617 30.231 27.0016 30.3466 26.8813 30.4576C26.7796 30.5409 26.7056 30.5871 26.6594 30.5963C26.6039 30.6148 26.4698 30.6333 26.2571 30.6518L25.3971 30.7351C25.1659 30.7628 24.9347 30.7767 24.7035 30.7767C24.4353 30.7767 24.1301 30.7536 23.7879 30.7073C23.5197 30.6703 23.3255 30.6195 23.2053 30.5547C23.0943 30.5177 23.0019 30.4345 22.9279 30.305C22.8909 30.231 22.8631 30.0507 22.8446 29.764C22.8262 29.4681 22.8123 28.7236 22.803 27.5307V27.5168ZM25.7993 27.1561C25.7993 27.0729 25.8225 26.9989 25.8687 26.9342C25.9334 26.8232 25.9935 26.7631 26.049 26.7538C26.1508 26.7354 26.4143 26.7215 26.8397 26.7122L27.1449 26.6984C27.7923 26.6799 28.1483 26.6521 28.213 26.6151C28.2685 26.5874 28.2963 26.4209 28.2963 26.1157C28.2963 25.8661 28.3101 25.5285 28.3379 25.1031C28.3564 24.8904 28.3795 24.7239 28.4072 24.6037C28.4165 24.5575 28.4627 24.4927 28.546 24.4095C28.6569 24.2985 28.7725 24.2431 28.8928 24.2431C28.9852 24.2431 29.0916 24.2893 29.2118 24.3818L29.3505 24.5066L29.3644 28.3352V30.2357C29.3644 31.5766 29.3598 32.2841 29.3505 32.3581C29.3228 32.58 29.2211 32.7326 29.0453 32.8158C28.9806 32.8436 28.9159 32.8574 28.8511 32.8574C28.7309 32.8574 28.6199 32.8112 28.5182 32.7187C28.4535 32.6725 28.4165 32.617 28.4072 32.5523C28.3703 32.469 28.3471 32.3349 28.3379 32.15C28.3009 31.7523 28.2778 30.9431 28.2685 29.7224C28.2408 28.4092 28.2084 27.7387 28.1714 27.711C28.1344 27.7018 27.8339 27.6879 27.2698 27.6694C26.6779 27.6509 26.3311 27.6278 26.2294 27.6C25.9797 27.526 25.8363 27.3966 25.7993 27.2116V27.1561Z" fill="white"/>
<path d="M15.5338 9.86851L15.5054 9.77263L15.5048 9.77281L15.5338 9.86851ZM16.7129 9.84077L16.7411 9.74427L16.7308 9.74238L16.7129 9.84077ZM17.3926 10.0488L17.4281 9.95535L17.4277 9.95521L17.3926 10.0488ZM18.1833 10.5621L18.254 10.4913L18.2513 10.4888L18.1833 10.5621ZM18.7936 11.3805L18.8856 11.3403L18.8814 11.3327L18.7936 11.3805ZM19.0017 12.0325L19.0992 12.0102L19.0986 12.0075L19.0017 12.0325ZM18.974 13.4613L18.8772 13.4359L18.8767 13.4383L18.974 13.4613ZM18.7243 14.1826L18.64 14.1285L18.6368 14.1342L18.7243 14.1826ZM17.5868 15.223L17.6315 15.3125L17.6315 15.3125L17.5868 15.223ZM16.8377 15.5282L16.859 15.6259L16.8594 15.6258L16.8377 15.5282ZM15.2979 15.5282L15.3201 15.4307L15.3186 15.4304L15.2979 15.5282ZM14.5489 15.2092L14.5007 15.2968L14.5012 15.297L14.5489 15.2092ZM13.6749 14.5711L13.7472 14.5018L13.7457 14.5003L13.6749 14.5711ZM13.1617 13.7526L13.0678 13.787L13.0679 13.7874L13.1617 13.7526ZM13.3559 11.5609L13.2678 11.5134L13.2661 11.5169L13.3559 11.5609ZM14.1743 10.4789L14.1142 10.3988L14.1101 10.4023L14.1743 10.4789ZM11.5387 16.6934L11.4399 16.6782L11.4374 16.6941L11.4401 16.7099L11.5387 16.6934ZM11.5664 16.5131L11.4697 16.4841L11.4676 16.4979L11.5664 16.5131ZM11.7606 16.305L11.7227 16.2124L11.7193 16.214L11.7606 16.305ZM18.1139 16.1247V16.0247L18.113 16.0247L18.1139 16.1247ZM19.834 16.1108L19.8305 16.0108L19.8274 16.011L19.834 16.1108ZM20.8467 16.305L20.9174 16.2343L20.9174 16.2343L20.8467 16.305ZM20.9854 16.5825L21.0854 16.5925V16.5825H20.9854ZM20.8051 16.8876L20.7343 16.8169L20.7343 16.8169L20.8051 16.8876ZM20.6247 17.068V17.168H20.6661L20.6954 17.1387L20.6247 17.068ZM17.0874 17.0819L17.0808 16.9821L17.0794 16.9822L17.0874 17.0819ZM16.6851 17.1651L16.7406 17.2483L16.7488 17.2428L16.7558 17.2358L16.6851 17.1651ZM16.588 17.387L16.6867 17.4068L16.6877 17.3953L16.588 17.387ZM16.5742 17.7616L16.6742 17.7651V17.7616H16.5742ZM16.5603 18.15L16.4603 18.1464L16.4603 18.1472L16.5603 18.15ZM16.5325 19.1349L16.4326 19.1321L16.4326 19.1326L16.5325 19.1349ZM16.4909 19.7869L16.4015 19.7421L16.3983 19.7485L16.3961 19.7552L16.4909 19.7869ZM15.7002 19.8285L15.7637 19.751L15.759 19.7476L15.7002 19.8285ZM15.5338 17.3177L15.6332 17.3053L15.6322 17.2998L15.5338 17.3177ZM15.4505 17.1235L15.511 17.0428L15.5002 17.0366L15.4505 17.1235ZM11.8023 17.068L11.7354 17.1423L11.7639 17.168H11.8023V17.068ZM11.6635 16.9431L11.5927 17.0139L11.5966 17.0175L11.6635 16.9431ZM11.5526 16.7767L11.4539 16.7931L11.4552 16.8009L11.4577 16.8083L11.5526 16.7767ZM14.0911 13.3642L14.1889 13.3435L14.1889 13.3433L14.0911 13.3642ZM14.7015 14.1826L14.644 14.2645L14.6455 14.2655L14.7015 14.1826ZM17.1152 14.3352L17.0834 14.2401L17.0764 14.2431L17.1152 14.3352ZM17.5729 13.9607L17.4993 13.8917L17.4916 13.9026L17.5729 13.9607ZM17.9197 13.3781L18.0134 13.4141L18.0159 13.4056L17.9197 13.3781ZM17.8642 11.8244L17.9553 11.783L17.9541 11.7805L17.8642 11.8244ZM16.6574 10.8534L16.6936 10.7594L16.6816 10.7564L16.6574 10.8534ZM16.0054 10.7841V10.6839L15.9992 10.6842L16.0054 10.7841ZM15.3534 10.895L15.3779 10.9929L15.3906 10.9879L15.3534 10.895ZM14.7569 11.3251L14.6862 11.2543L14.6829 11.2579L14.7569 11.3251ZM14.2714 11.9909L14.3637 12.0297L14.3651 12.026L14.2714 11.9909ZM15.5622 9.96439C15.8108 9.89073 15.9839 9.85754 16.0886 9.85754V9.65754C15.9529 9.65754 15.7561 9.69834 15.5054 9.77263L15.5622 9.96439ZM16.0886 9.85754C16.1893 9.85754 16.3888 9.88348 16.695 9.93916L16.7308 9.74238C16.4266 9.68708 16.21 9.65754 16.0886 9.65754V9.85754ZM16.6848 9.93674C17.0658 10.0483 17.2879 10.1164 17.3575 10.1425L17.4277 9.95521C17.3494 9.92583 17.1183 9.85523 16.741 9.7448L16.6848 9.93674ZM17.3571 10.1423C17.6108 10.2386 17.8636 10.4017 18.1152 10.6354L18.2513 10.4888C17.9851 10.2416 17.7108 10.0626 17.4281 9.95535L17.3571 10.1423ZM18.1126 10.6328C18.3461 10.8664 18.5439 11.1314 18.7059 11.4284L18.8814 11.3327C18.7105 11.0193 18.5013 10.7387 18.254 10.4914L18.1126 10.6328ZM18.702 11.4206C18.7636 11.5612 18.8313 11.7725 18.9049 12.0575L19.0986 12.0075C19.0241 11.7192 18.9532 11.4958 18.8853 11.3405L18.702 11.4206ZM18.9042 12.0548C18.9782 12.3785 19.0127 12.5998 19.0127 12.7261H19.2127C19.2127 12.575 19.1732 12.3339 19.0992 12.0102L18.9042 12.0548ZM19.0127 12.7261C19.0127 12.8502 18.97 13.0836 18.8773 13.4359L19.0707 13.4868C19.1629 13.1362 19.2127 12.8794 19.2127 12.7261H19.0127ZM18.8767 13.4383C18.7935 13.7895 18.7133 14.0149 18.6402 14.1286L18.8084 14.2367C18.9018 14.0915 18.988 13.8359 19.0713 13.4844L18.8767 13.4383ZM18.6368 14.1342C18.4077 14.5484 18.045 14.8821 17.5421 15.1336L17.6315 15.3125C18.1644 15.046 18.56 14.6862 18.8118 14.2311L18.6368 14.1342ZM17.5421 15.1336C17.21 15.2996 16.9696 15.3965 16.816 15.4306L16.8594 15.6258C17.0387 15.586 17.2978 15.4793 17.6315 15.3125L17.5421 15.1336ZM16.8165 15.4305C16.6129 15.4747 16.3615 15.4976 16.0609 15.4976V15.6976C16.3706 15.6976 16.6371 15.6742 16.859 15.6259L16.8165 15.4305ZM16.0609 15.4976C15.7601 15.4976 15.5138 15.4747 15.3201 15.4307L15.2758 15.6257C15.489 15.6742 15.7514 15.6976 16.0609 15.6976V15.4976ZM15.3186 15.4304C15.1578 15.3965 14.9187 15.2961 14.5966 15.1213L14.5012 15.297C14.8264 15.4736 15.0867 15.5859 15.2773 15.6261L15.3186 15.4304ZM14.5971 15.1215C14.233 14.9213 13.9508 14.7143 13.7471 14.5019L13.6027 14.6402C13.8245 14.8717 14.1249 15.0901 14.5007 15.2968L14.5971 15.1215ZM13.7457 14.5003C13.5349 14.2895 13.3712 14.0294 13.2554 13.7178L13.0679 13.7874C13.1927 14.1232 13.3711 14.4087 13.6042 14.6418L13.7457 14.5003ZM13.2556 13.7182C13.1575 13.4507 13.1091 13.1895 13.1091 12.9342H12.9091C12.9091 13.2153 12.9624 13.4997 13.0678 13.787L13.2556 13.7182ZM13.1091 12.9342C13.1091 12.5081 13.22 12.0653 13.4457 11.6049L13.2661 11.5169C13.0294 11.9997 12.9091 12.4725 12.9091 12.9342H13.1091ZM13.4439 11.6083C13.6994 11.1339 13.965 10.785 14.2386 10.5555L14.1101 10.4023C13.8103 10.6537 13.5303 11.0261 13.2678 11.5135L13.4439 11.6083ZM14.2343 10.5589C14.5165 10.3472 14.9567 10.1479 15.5628 9.96422L15.5048 9.77281C14.8901 9.95907 14.424 10.1666 14.1143 10.3989L14.2343 10.5589ZM11.6375 16.7086L11.6653 16.5283L11.4676 16.4979L11.4399 16.6782L11.6375 16.7086ZM11.6622 16.5418C11.6803 16.4815 11.722 16.4324 11.802 16.3961L11.7193 16.214C11.5958 16.2701 11.508 16.3598 11.4707 16.4844L11.6622 16.5418ZM11.7985 16.3976C11.7985 16.3976 11.7987 16.3975 11.7992 16.3973C11.7997 16.3971 11.8005 16.3969 11.8015 16.3966C11.8035 16.3959 11.8063 16.3952 11.8099 16.3942C11.8171 16.3924 11.8268 16.3903 11.8391 16.3881C11.8638 16.3836 11.8965 16.379 11.938 16.3743C12.0207 16.3649 12.134 16.3557 12.2783 16.3468C12.5668 16.3289 12.9753 16.3125 13.5044 16.2975C14.5623 16.2675 16.099 16.2432 18.1148 16.2247L18.113 16.0247C16.0968 16.0432 14.5586 16.0675 13.4987 16.0976C12.9689 16.1126 12.5578 16.1291 12.266 16.1471C12.1202 16.1561 12.0031 16.1656 11.9154 16.1755C11.833 16.1849 11.7633 16.1959 11.7228 16.2125L11.7985 16.3976ZM18.1139 16.2247C19.1195 16.2247 19.6977 16.2201 19.8407 16.2106L19.8274 16.011C19.693 16.02 19.1244 16.0247 18.1139 16.0247V16.2247ZM19.8375 16.2108C20.0971 16.2017 20.3051 16.2133 20.4637 16.2437C20.6243 16.2745 20.7226 16.3224 20.776 16.3757L20.9174 16.2343C20.8228 16.1397 20.6784 16.0812 20.5014 16.0473C20.3224 16.013 20.0981 16.0015 19.8305 16.0109L19.8375 16.2108ZM20.776 16.3757C20.8575 16.4573 20.8854 16.5259 20.8854 16.5825H21.0854C21.0854 16.4541 21.0208 16.3377 20.9174 16.2343L20.776 16.3757ZM20.8859 16.5725C20.8801 16.6308 20.8393 16.712 20.7343 16.8169L20.8758 16.9584C20.9928 16.8413 21.0722 16.7191 21.0849 16.5924L20.8859 16.5725ZM20.7343 16.8169L20.554 16.9973L20.6954 17.1387L20.8758 16.9584L20.7343 16.8169ZM20.6247 16.968H18.7104V17.168H20.6247V16.968ZM18.7104 16.968C17.7694 16.968 17.2238 16.9725 17.0808 16.9821L17.0941 17.1816C17.2285 17.1727 17.7648 17.168 18.7104 17.168V16.968ZM17.0794 16.9822C16.9621 16.9916 16.8661 17.0035 16.7932 17.0186C16.7568 17.0261 16.7238 17.0349 16.6957 17.0455C16.6695 17.0554 16.6386 17.0702 16.6144 17.0944L16.7558 17.2358C16.7502 17.2414 16.7499 17.2389 16.7665 17.2326C16.7812 17.227 16.8031 17.2208 16.8337 17.2145C16.8949 17.2018 16.9815 17.1906 17.0954 17.1815L17.0794 16.9822ZM16.6297 17.0819C16.5358 17.1444 16.4985 17.2573 16.4884 17.3787L16.6877 17.3953C16.6961 17.2948 16.7235 17.2597 16.7406 17.2483L16.6297 17.0819ZM16.49 17.3674C16.4836 17.3995 16.48 17.4498 16.4777 17.5116C16.4753 17.5758 16.4742 17.6593 16.4742 17.7616H16.6742C16.6742 17.6604 16.6753 17.5797 16.6776 17.519C16.6799 17.456 16.6832 17.4208 16.6861 17.4066L16.49 17.3674ZM16.4742 17.758L16.4603 18.1464L16.6602 18.1536L16.6741 17.7651L16.4742 17.758ZM16.4603 18.1472L16.4326 19.1321L16.6325 19.1377L16.6602 18.1528L16.4603 18.1472ZM16.4326 19.1326C16.428 19.3309 16.4222 19.4831 16.4154 19.5897C16.412 19.6432 16.4084 19.6839 16.4047 19.7127C16.4029 19.7271 16.4012 19.7373 16.3998 19.7439C16.398 19.7525 16.3978 19.7495 16.4015 19.7421L16.5804 19.8316C16.5887 19.815 16.593 19.7971 16.5955 19.7852C16.5984 19.7713 16.6009 19.7553 16.6031 19.7379C16.6076 19.7031 16.6115 19.6577 16.615 19.6025C16.6221 19.4918 16.6279 19.3365 16.6325 19.1372L16.4326 19.1326ZM16.3961 19.7552C16.3889 19.7768 16.3716 19.7998 16.3244 19.8193C16.2745 19.8399 16.198 19.8533 16.0886 19.8533V20.0533C16.2105 20.0533 16.3166 20.039 16.4008 20.0041C16.4877 19.9682 16.556 19.9079 16.5858 19.8185L16.3961 19.7552ZM16.0886 19.8533C15.9498 19.8533 15.8441 19.817 15.7636 19.7511L15.6369 19.9059C15.7598 20.0064 15.9131 20.0533 16.0886 20.0533V19.8533ZM15.759 19.7476C15.688 19.6959 15.6476 19.6179 15.6476 19.4955H15.4476C15.4476 19.6691 15.509 19.8131 15.6414 19.9093L15.759 19.7476ZM15.6476 19.4955V18.0945H15.4476V19.4955H15.6476ZM15.6476 18.0945C15.6476 17.6545 15.6432 17.3872 15.633 17.3053L15.4345 17.3301C15.4428 17.3962 15.4476 17.6467 15.4476 18.0945H15.6476ZM15.6322 17.2998C15.6221 17.2446 15.6089 17.1951 15.591 17.1534C15.5736 17.1127 15.5485 17.072 15.5105 17.0435L15.3905 17.2035C15.3895 17.2027 15.3969 17.2082 15.4072 17.2322C15.4171 17.2553 15.4269 17.289 15.4354 17.3356L15.6322 17.2998ZM15.5002 17.0366C15.4843 17.0276 15.4678 17.0227 15.4568 17.0199C15.4442 17.0167 15.4302 17.014 15.4157 17.0117C15.3865 17.0071 15.3493 17.0031 15.3051 16.9995C15.2165 16.9924 15.0934 16.9865 14.9368 16.9819C14.6232 16.9726 14.17 16.968 13.5778 16.968V17.168C14.1694 17.168 14.6202 17.1726 14.9309 17.1818C15.0863 17.1864 15.2055 17.1921 15.2891 17.1989C15.331 17.2022 15.3625 17.2058 15.3844 17.2092C15.3954 17.211 15.4027 17.2125 15.4069 17.2136C15.4128 17.2151 15.4086 17.2147 15.4009 17.2103L15.5002 17.0366ZM13.5778 16.968H11.8023V17.168H13.5778V16.968ZM11.8692 16.9937L11.7304 16.8688L11.5966 17.0175L11.7354 17.1423L11.8692 16.9937ZM11.7342 16.8724C11.6862 16.8243 11.6596 16.7817 11.6474 16.7451L11.4577 16.8083C11.4825 16.8827 11.5299 16.951 11.5928 17.0138L11.7342 16.8724ZM11.6512 16.7602L11.6373 16.677L11.4401 16.7099L11.4539 16.7931L11.6512 16.7602ZM13.9933 13.385C14.0648 13.7223 14.2883 14.0145 14.644 14.2645L14.759 14.1008C14.4303 13.8699 14.2468 13.6165 14.1889 13.3435L13.9933 13.385ZM14.6455 14.2655C15.0345 14.5281 15.4986 14.6572 16.0332 14.6572V14.4572C15.5319 14.4572 15.1083 14.3366 14.7574 14.0998L14.6455 14.2655ZM16.0332 14.6572C16.4168 14.6572 16.7906 14.5804 17.154 14.4274L17.0764 14.2431C16.7368 14.386 16.3893 14.4572 16.0332 14.4572V14.6572ZM17.1468 14.4301C17.3394 14.3659 17.5076 14.2241 17.6543 14.0188L17.4916 13.9026C17.3608 14.0857 17.2239 14.1936 17.0835 14.2404L17.1468 14.4301ZM17.6459 14.0291C17.7955 13.8695 17.9171 13.6633 18.0131 13.414L17.8264 13.3422C17.7373 13.5737 17.6278 13.7559 17.5 13.8923L17.6459 14.0291ZM18.0159 13.4056C18.0744 13.2006 18.103 12.9691 18.103 12.7122H17.903C17.903 12.9547 17.876 13.1672 17.8236 13.3506L18.0159 13.4056ZM18.103 12.7122C18.103 12.3186 18.0565 12.0058 17.9553 11.7831L17.7732 11.8658C17.8569 12.05 17.903 12.3291 17.903 12.7122H18.103ZM17.9541 11.7805C17.7358 11.3341 17.3087 10.9968 16.6933 10.7601L16.6215 10.9467C17.2083 11.1724 17.5857 11.4825 17.7744 11.8684L17.9541 11.7805ZM16.6816 10.7564C16.4867 10.7077 16.2609 10.6841 16.0054 10.6841V10.8841C16.2493 10.8841 16.4581 10.9067 16.6331 10.9504L16.6816 10.7564ZM15.9992 10.6842C15.7009 10.7029 15.4704 10.7405 15.3163 10.8022L15.3906 10.9879C15.5139 10.9385 15.718 10.9022 16.0116 10.8839L15.9992 10.6842ZM15.3292 10.798C15.2377 10.8209 15.1391 10.874 15.0349 10.9492C14.9297 11.025 14.8134 11.1272 14.6862 11.2543L14.8277 11.3958C14.9502 11.2732 15.0582 11.1789 15.1518 11.1114C15.2464 11.0432 15.3212 11.0062 15.3777 10.992L15.3292 10.798ZM14.6829 11.2579C14.4153 11.5531 14.2408 11.7878 14.1778 11.9558L14.3651 12.026C14.413 11.8981 14.5622 11.6889 14.831 11.3922L14.6829 11.2579ZM14.1793 11.9521C14.0274 12.3128 13.9495 12.6544 13.9495 12.9758H14.1495C14.1495 12.6868 14.2196 12.3718 14.3636 12.0297L14.1793 11.9521ZM13.9495 12.9758C13.9495 13.1125 13.9641 13.249 13.9933 13.3852L14.1889 13.3433C14.1626 13.2205 14.1495 13.0981 14.1495 12.9758H13.9495ZM30.2441 10.035L30.3184 10.1019L30.3184 10.1019L30.2441 10.035ZM31.118 11.7828L31.0172 11.7844L31.019 11.797L31.118 11.7828ZM31.1319 13.1839H31.0319L31.0319 13.1849L31.1319 13.1839ZM31.1457 14.5711L31.0457 14.5721L31.0457 14.5721L31.1457 14.5711ZM31.1319 19.1071L31.0424 19.0624L31.0392 19.0688L31.037 19.0755L31.1319 19.1071ZM30.5215 19.3291L30.4945 19.4263L30.5081 19.4282L30.5215 19.3291ZM30.2718 19.2597L30.2401 19.3547L30.245 19.3561L30.2718 19.2597ZM30.1747 19.121L30.0794 19.1528L30.0833 19.1616L30.1747 19.121ZM30.1192 10.1737L30.0449 10.1068L30.0192 10.1353V10.1737H30.1192ZM22.9475 15.6253L23.0475 15.6253L23.0475 15.6238L22.9475 15.6253ZM22.9336 14.6959H22.8336L22.8336 14.6974L22.9336 14.6959ZM22.9614 14.0162L22.863 13.9977L22.8624 14.002L22.9614 14.0162ZM23.2388 13.6833L23.2814 13.7737L23.2972 13.7663L23.3095 13.754L23.2388 13.6833ZM23.2527 13.6694L23.2155 13.5765L23.1965 13.5842L23.182 13.5987L23.2527 13.6694ZM23.7521 13.6416L23.7708 13.5434L23.7685 13.543L23.7521 13.6416ZM26.7484 13.6971V13.7971H26.805L26.8341 13.7486L26.7484 13.6971ZM26.8316 13.5584L26.9174 13.6099L26.919 13.607L26.8316 13.5584ZM27.0119 12.8926L26.914 12.8724L26.914 12.8725L27.0119 12.8926ZM26.9148 11.8106L26.9358 11.7128L26.9333 11.7123L26.9148 11.8106ZM23.433 11.7551L23.4235 11.8547L23.4259 11.8548L23.433 11.7551ZM23.0585 11.6718L22.9878 11.7426L22.9948 11.7496L23.003 11.7551L23.0585 11.6718ZM23.0862 11.0754L23.0155 11.0046L23.0155 11.0046L23.0862 11.0754ZM23.655 10.9366L23.6637 11.0363L23.6644 11.0362L23.655 10.9366ZM25.7773 10.8257L25.7752 10.7257L25.7737 10.7257L25.7773 10.8257ZM27.0674 10.7979V10.6979L27.0653 10.6979L27.0674 10.7979ZM27.9413 10.9228L28.0002 10.8419L27.9983 10.8406L27.9413 10.9228ZM28.1633 11.1447L28.2561 11.1076L28.2528 11.0993L28.2481 11.0917L28.1633 11.1447ZM28.0939 13.0452L27.9955 13.0274L27.9953 13.0287L28.0939 13.0452ZM27.9691 14.2104L27.8739 14.1787L27.8721 14.1861L27.9691 14.2104ZM27.8442 14.3769L27.9085 14.454L27.915 14.4476L27.8442 14.3769ZM27.3587 14.5433L27.365 14.6431L27.3674 14.6429L27.3587 14.5433ZM24.404 14.5849L24.4107 14.6847L24.4131 14.6845L24.404 14.5849ZM24.0711 14.682L24.0154 14.5985L24.0086 14.6039L24.0711 14.682ZM23.9324 14.793L23.8699 14.7149L23.8302 14.7467L23.8325 14.7974L23.9324 14.793ZM23.9601 15.4172L24.0601 15.4145L24.06 15.4128L23.9601 15.4172ZM23.9879 16.4299H24.0879L24.0878 16.4271L23.9879 16.4299ZM24.0572 16.9015L23.9759 16.9596L23.9807 16.9664L23.9865 16.9722L24.0572 16.9015ZM26.3183 16.846L26.3245 16.9459L26.3265 16.9457L26.3183 16.846ZM28.5378 16.8322L28.5909 16.7473L28.5874 16.7453L28.5378 16.8322ZM28.7459 17.0541L28.8328 17.0044L28.8303 17.0004L28.7459 17.0541ZM28.732 17.4009L28.6426 17.3562L28.6416 17.3583L28.732 17.4009ZM28.3436 17.6922L28.3623 17.7905L28.3632 17.7903L28.3436 17.6922ZM26.8871 17.8171L26.8906 17.917L26.893 17.9169L26.8871 17.8171ZM24.5428 17.9003L24.5392 17.8004L24.5386 17.8004L24.5428 17.9003ZM23.6827 17.9003L23.6968 17.8013L23.6898 17.8003H23.6827V17.9003ZM23.3359 17.8448L23.2875 17.9327L23.2953 17.9362L23.3359 17.8448ZM23.0169 17.4425L23.1155 17.4261L23.1149 17.4229L23.0169 17.4425ZM22.9475 15.7224H22.8475L22.8475 15.7243L22.9475 15.7224ZM30.3184 10.1019C30.3742 10.0398 30.4786 9.99626 30.6602 9.99626V9.79626C30.4534 9.79626 30.2804 9.84515 30.1697 9.96808L30.3184 10.1019ZM30.6602 9.99626C30.7462 9.99626 30.8104 9.9997 30.8548 10.0057C30.877 10.0088 30.8916 10.0121 30.9001 10.0149C30.9108 10.0183 30.9044 10.0183 30.8947 10.0086L31.0361 9.86716C31.0125 9.84356 30.983 9.83145 30.9613 9.82446C30.9375 9.81681 30.9104 9.81148 30.8818 9.80758C30.8244 9.79975 30.7499 9.79626 30.6602 9.79626V9.99626ZM30.8947 10.0086C30.8885 10.0024 30.8924 10.0031 30.9006 10.0268C30.9078 10.0475 30.9156 10.0777 30.9235 10.1189C30.9393 10.201 30.9537 10.3174 30.9663 10.4698C30.9915 10.7739 31.0088 11.2118 31.018 11.7844L31.218 11.7812C31.2087 11.2072 31.1913 10.7641 31.1656 10.4533C31.1528 10.2982 31.1377 10.1736 31.12 10.0811C31.1111 10.035 31.1011 9.99453 31.0895 9.96118C31.079 9.9309 31.0631 9.8942 31.0361 9.86716L30.8947 10.0086ZM31.019 11.797C31.0203 11.8061 31.0223 11.8407 31.0241 11.9094C31.0258 11.9751 31.0272 12.0661 31.0284 12.1826C31.0307 12.4156 31.0319 12.7493 31.0319 13.1839H31.2319C31.2319 12.7491 31.2307 12.4147 31.2284 12.1806C31.2272 12.0637 31.2258 11.9715 31.224 11.9042C31.2223 11.84 31.2203 11.7919 31.217 11.7687L31.019 11.797ZM31.0319 13.1849L31.0457 14.5721L31.2457 14.5701L31.2319 13.1829L31.0319 13.1849ZM31.0457 14.5721C31.055 15.4502 31.0596 16.481 31.0596 17.6645H31.2596C31.2596 16.4805 31.255 15.449 31.2457 14.57L31.0457 14.5721ZM31.0596 17.6645C31.0596 18.1267 31.0573 18.4773 31.0527 18.7168C31.0504 18.8367 31.0475 18.9278 31.0441 18.9908C31.0424 19.0225 31.0407 19.0458 31.039 19.0616C31.0381 19.0696 31.0374 19.0743 31.0369 19.0766C31.0359 19.0818 31.0368 19.0737 31.0424 19.0624L31.2213 19.1519C31.2293 19.136 31.2323 19.1197 31.2335 19.1134C31.2352 19.1041 31.2366 19.0938 31.2378 19.0833C31.2401 19.0621 31.2421 19.0346 31.2439 19.0015C31.2474 18.9351 31.2503 18.8412 31.2526 18.7206C31.2573 18.4792 31.2596 18.127 31.2596 17.6645H31.0596ZM31.037 19.0755C31.0149 19.1418 30.9715 19.187 30.8965 19.2143C30.8165 19.2434 30.6985 19.2521 30.5349 19.23L30.5081 19.4282C30.6867 19.4523 30.8415 19.4471 30.9649 19.4023C31.0934 19.3555 31.1841 19.2667 31.2267 19.1388L31.037 19.0755ZM30.5483 19.2327L30.2986 19.1634L30.245 19.3561L30.4947 19.4254L30.5483 19.2327ZM30.3034 19.1649C30.3142 19.1684 30.3189 19.1733 30.318 19.1724C30.3173 19.1717 30.3141 19.1685 30.3086 19.1608C30.2977 19.1451 30.2834 19.1192 30.2661 19.0804L30.0833 19.1616C30.103 19.206 30.1234 19.2449 30.1448 19.2755C30.1636 19.3023 30.1943 19.3393 30.2402 19.3546L30.3034 19.1649ZM30.2696 19.0894C30.2708 19.0931 30.2695 19.0899 30.2673 19.0717C30.2654 19.0561 30.2634 19.0345 30.2615 19.0063C30.2575 18.9501 30.2538 18.8715 30.2504 18.7699C30.2435 18.567 30.2377 18.2757 30.2331 17.8956C30.2238 17.1356 30.2192 16.0229 30.2192 14.5572H30.0192C30.0192 16.0231 30.0238 17.1368 30.0331 17.898C30.0377 18.2786 30.0435 18.5716 30.0505 18.7767C30.054 18.8792 30.0578 18.9606 30.0619 19.0203C30.064 19.05 30.0663 19.0754 30.0687 19.0957C30.0708 19.1134 30.074 19.135 30.0798 19.1526L30.2696 19.0894ZM30.2192 14.5572V10.1737H30.0192V14.5572H30.2192ZM30.1935 10.2406L30.3184 10.1019L30.1697 9.96808L30.0449 10.1068L30.1935 10.2406ZM23.0475 15.6238L23.0336 14.6944L22.8336 14.6974L22.8475 15.6268L23.0475 15.6238ZM23.0336 14.6959C23.0336 14.3721 23.043 14.152 23.0604 14.0303L22.8624 14.002C22.8428 14.1393 22.8336 14.3724 22.8336 14.6959H23.0336ZM23.0597 14.0346C23.0805 13.9234 23.1481 13.8365 23.2814 13.7737L23.1962 13.5928C23.0151 13.678 22.8977 13.813 22.8631 13.9978L23.0597 14.0346ZM23.3095 13.754L23.3234 13.7401L23.182 13.5987L23.1681 13.6125L23.3095 13.754ZM23.2898 13.7622C23.3714 13.7296 23.4513 13.7139 23.5301 13.7139V13.5139C23.424 13.5139 23.3189 13.5352 23.2155 13.5765L23.2898 13.7622ZM23.5301 13.7139C23.5574 13.7139 23.6232 13.7215 23.7356 13.7403L23.7685 13.543C23.659 13.5248 23.5768 13.5139 23.5301 13.5139V13.7139ZM23.7333 13.7399C23.8392 13.76 24.034 13.774 24.3105 13.7832C24.5896 13.7925 24.9584 13.7971 25.4167 13.7971V13.5971C24.9594 13.5971 24.593 13.5925 24.3172 13.5833C24.0388 13.574 23.8591 13.5602 23.7708 13.5434L23.7333 13.7399ZM25.4167 13.7971H26.7484V13.5971H25.4167V13.7971ZM26.8341 13.7486L26.9173 13.6099L26.7458 13.507L26.6626 13.6457L26.8341 13.7486ZM26.919 13.607C26.9487 13.5536 26.9779 13.4666 27.0079 13.3557C27.0387 13.2419 27.0727 13.094 27.1099 12.9127L26.914 12.8725C26.8772 13.0518 26.8441 13.1952 26.8148 13.3034C26.7848 13.4144 26.7608 13.48 26.7442 13.5098L26.919 13.607ZM27.1099 12.9127C27.1752 12.5954 27.209 12.3335 27.209 12.1296H27.009C27.009 12.3141 26.9781 12.5609 26.914 12.8724L27.1099 12.9127ZM27.209 12.1296V12.0741H27.009V12.1296H27.209ZM27.209 12.0741V12.0325H27.009V12.0741H27.209ZM27.209 12.0325C27.209 11.9538 27.1874 11.8801 27.1357 11.821C27.085 11.763 27.0144 11.7296 26.9358 11.7128L26.8939 11.9083C26.9448 11.9193 26.9712 11.9367 26.9852 11.9527C26.9983 11.9676 27.009 11.991 27.009 12.0325H27.209ZM26.9333 11.7123C26.85 11.6967 26.6786 11.6863 26.4286 11.6794C26.1753 11.6724 25.8332 11.669 25.4028 11.669V11.869C25.8325 11.869 26.1724 11.8724 26.4231 11.8793C26.6771 11.8863 26.8317 11.8967 26.8964 11.9089L26.9333 11.7123ZM25.4028 11.669H25.0976V11.869H25.4028V11.669ZM25.0976 11.669C24.1147 11.669 23.565 11.6643 23.4401 11.6553L23.4259 11.8548C23.56 11.8644 24.12 11.869 25.0976 11.869V11.669ZM23.4425 11.6555C23.3476 11.6465 23.2723 11.6354 23.2154 11.6228C23.1561 11.6096 23.1258 11.5966 23.1139 11.5886L23.003 11.7551C23.0466 11.7841 23.1065 11.8035 23.172 11.818C23.24 11.8331 23.3242 11.8452 23.4235 11.8546L23.4425 11.6555ZM23.1292 11.6011C23.0854 11.5573 23.0614 11.5006 23.0614 11.4222H22.8614C22.8614 11.5472 22.9021 11.6569 22.9878 11.7426L23.1292 11.6011ZM23.0614 11.4222C23.0614 11.2935 23.097 11.206 23.1569 11.1461L23.0155 11.0046C22.909 11.1112 22.8614 11.2549 22.8614 11.4222H23.0614ZM23.1569 11.1461C23.1683 11.1347 23.2077 11.112 23.3006 11.0893C23.3885 11.0679 23.5089 11.0499 23.6637 11.0363L23.6462 10.837C23.4866 10.8511 23.355 10.8702 23.2533 10.895C23.1566 10.9185 23.0689 10.9512 23.0155 11.0046L23.1569 11.1461ZM23.6644 11.0362C24.0495 10.9995 24.7542 10.9626 25.7809 10.9256L25.7737 10.7257C24.7474 10.7627 24.0372 10.7998 23.6455 10.8371L23.6644 11.0362ZM25.7795 10.9256L27.0696 10.8979L27.0653 10.6979L25.7752 10.7257L25.7795 10.9256ZM27.0674 10.8979C27.2962 10.8979 27.4794 10.9083 27.6186 10.9281C27.7614 10.9485 27.8445 10.9773 27.8844 11.005L27.9983 10.8406C27.918 10.785 27.7953 10.7514 27.6468 10.7301C27.4946 10.7084 27.301 10.6979 27.0674 10.6979V10.8979ZM27.8825 11.0036C27.9781 11.0731 28.0413 11.1383 28.0785 11.1977L28.2481 11.0917C28.1928 11.0032 28.1081 10.9204 28.0002 10.8419L27.8825 11.0036ZM28.0704 11.1819C28.0994 11.2542 28.1188 11.4115 28.1188 11.6718H28.3188C28.3188 11.4143 28.3012 11.2202 28.2561 11.1076L28.0704 11.1819ZM28.1188 11.6718C28.1188 12.1188 28.0777 12.5707 27.9955 13.0274L28.1924 13.0629C28.2766 12.5948 28.3188 12.1311 28.3188 11.6718H28.1188ZM27.9953 13.0287C27.9302 13.4191 27.8968 13.7306 27.8968 13.9607H28.0968C28.0968 13.7469 28.1282 13.448 28.1926 13.0616L27.9953 13.0287ZM27.8968 13.9607C27.8968 14.0688 27.8875 14.1389 27.8742 14.1788L28.064 14.242C28.0877 14.1709 28.0968 14.0746 28.0968 13.9607H27.8968ZM27.8721 14.1861C27.8723 14.1851 27.8692 14.1954 27.8509 14.2197C27.834 14.2423 27.8087 14.271 27.7735 14.3061L27.915 14.4476C27.9538 14.4087 27.9863 14.3727 28.0109 14.3397C28.0343 14.3086 28.0566 14.2727 28.0661 14.2346L27.8721 14.1861ZM27.7802 14.3C27.6908 14.3745 27.5516 14.4262 27.3501 14.4437L27.3674 14.6429C27.5912 14.6235 27.7757 14.5641 27.9083 14.4537L27.7802 14.3ZM27.3525 14.4435C27.0601 14.4618 26.5128 14.4711 25.708 14.4711V14.6711C26.5123 14.6711 27.0655 14.6618 27.365 14.6431L27.3525 14.4435ZM25.708 14.4711C24.9438 14.4711 24.5026 14.4756 24.395 14.4853L24.4131 14.6845C24.509 14.6758 24.937 14.6711 25.708 14.6711V14.4711ZM24.3974 14.4851C24.2477 14.4951 24.118 14.5306 24.0156 14.5988L24.1266 14.7652C24.1907 14.7225 24.2829 14.6932 24.4107 14.6847L24.3974 14.4851ZM24.0086 14.6039L23.8699 14.7149L23.9949 14.8711L24.1336 14.7601L24.0086 14.6039ZM23.8325 14.7974L23.8602 15.4217L24.06 15.4128L24.0323 14.7886L23.8325 14.7974ZM23.8602 15.42L23.8879 16.4326L24.0878 16.4271L24.0601 15.4145L23.8602 15.42ZM23.8879 16.4299C23.8879 16.5572 23.8937 16.6643 23.9063 16.7496C23.9183 16.8312 23.9382 16.9069 23.9759 16.9596L24.1386 16.8434C24.1301 16.8314 24.1153 16.7961 24.1042 16.7205C24.0936 16.6486 24.0879 16.5523 24.0879 16.4299H23.8879ZM23.9865 16.9722C24.0047 16.9904 24.0255 16.9986 24.0354 17.0021C24.0476 17.0065 24.0604 17.0096 24.072 17.0118C24.0956 17.0164 24.1246 17.0196 24.1574 17.0221C24.2235 17.027 24.3154 17.0293 24.4318 17.0293V16.8293C24.317 16.8293 24.2309 16.827 24.1721 16.8226C24.1425 16.8204 24.1224 16.8179 24.1101 16.8155C24.1038 16.8143 24.102 16.8136 24.1029 16.8139C24.1035 16.8141 24.1061 16.8151 24.1098 16.8171C24.1133 16.819 24.1203 16.8232 24.1279 16.8308L23.9865 16.9722ZM24.4318 17.0293C24.7959 17.0293 25.4275 17.0013 26.3245 16.9458L26.3122 16.7462C25.415 16.8017 24.789 16.8293 24.4318 16.8293V17.0293ZM26.3265 16.9457C26.8883 16.8997 27.4173 16.8767 27.9136 16.8767V16.6767C27.4112 16.6767 26.8767 16.6999 26.3102 16.7464L26.3265 16.9457ZM27.9136 16.8767C28.0881 16.8767 28.2246 16.8813 28.3244 16.8902C28.3743 16.8946 28.4134 16.9 28.4425 16.9059C28.457 16.9088 28.468 16.9117 28.4762 16.9143C28.4802 16.9156 28.4832 16.9168 28.4853 16.9177C28.4875 16.9186 28.4883 16.919 28.4882 16.919L28.5874 16.7453C28.5572 16.7281 28.5195 16.7174 28.4823 16.7099C28.4433 16.7019 28.3962 16.6957 28.3421 16.6909C28.2338 16.6813 28.0906 16.6767 27.9136 16.6767V16.8767ZM28.4848 16.917C28.5423 16.9529 28.6019 17.0141 28.6615 17.1078L28.8303 17.0004C28.7604 16.8906 28.6813 16.8039 28.5908 16.7474L28.4848 16.917ZM28.6591 17.1037C28.6922 17.1617 28.7014 17.1993 28.7014 17.2206H28.9014C28.9014 17.1494 28.8736 17.076 28.8327 17.0045L28.6591 17.1037ZM28.7014 17.2206C28.7014 17.2152 28.7023 17.2148 28.7004 17.222C28.6987 17.2283 28.6957 17.2377 28.6907 17.2506C28.6808 17.2764 28.665 17.3113 28.6426 17.3562L28.8215 17.4456C28.8453 17.398 28.8642 17.3567 28.8774 17.3224C28.8891 17.292 28.9014 17.2547 28.9014 17.2206H28.7014ZM28.6416 17.3583C28.5824 17.4841 28.481 17.5628 28.324 17.5942L28.3632 17.7903C28.5762 17.7477 28.7338 17.6321 28.8225 17.4435L28.6416 17.3583ZM28.3249 17.594C28.1385 17.6295 27.6603 17.6709 26.8811 17.7172L26.893 17.9169C27.6675 17.8708 28.1604 17.8289 28.3623 17.7904L28.3249 17.594ZM26.8835 17.7171L24.5392 17.8004L24.5463 18.0002L26.8906 17.917L26.8835 17.7171ZM24.5386 17.8004C24.0923 17.819 23.8154 17.8182 23.6968 17.8013L23.6686 17.9993C23.8089 18.0193 24.1054 18.0186 24.5469 18.0002L24.5386 17.8004ZM23.6827 17.8003C23.541 17.8003 23.4414 17.7823 23.3765 17.7534L23.2953 17.9362C23.3968 17.9813 23.5284 18.0003 23.6827 18.0003V17.8003ZM23.3841 17.7572C23.2186 17.6661 23.137 17.5549 23.1155 17.4261L22.9182 17.459C22.9522 17.6631 23.0833 17.82 23.2877 17.9324L23.3841 17.7572ZM23.1149 17.4229C23.1029 17.363 23.0903 17.1941 23.0786 16.9044C23.0671 16.6188 23.0567 16.2243 23.0475 15.7206L22.8475 15.7243C22.8568 16.2285 22.8672 16.6247 22.8788 16.9125C22.8902 17.1961 22.903 17.3833 22.9188 17.4621L23.1149 17.4229ZM23.0475 15.7224V15.6253H22.8475V15.7224H23.0475ZM13.0923 23.6327L13.0606 23.5374L13.0517 23.5413L13.0923 23.6327ZM15.8528 23.5772V23.4772L15.8518 23.4772L15.8528 23.5772ZM18.7243 23.6327L18.6984 23.7296L18.7059 23.731L18.7243 23.6327ZM19.1682 24.1043L19.2682 24.1168V24.1043H19.1682ZM19.0156 24.4373L19.079 24.5147L19.082 24.512L19.0156 24.4373ZM18.863 24.5621L18.8619 24.6621L18.8982 24.6625L18.9263 24.6395L18.863 24.5621ZM16.4354 24.5344L16.433 24.6343L16.4343 24.6344L16.4354 24.5344ZM13.9246 24.5621L13.8539 24.4914L13.8539 24.4914L13.9246 24.5621ZM13.8969 25.977L13.8111 26.0285L13.8175 26.039L13.8262 26.0477L13.8969 25.977ZM14.5211 26.0048V26.1048L14.5227 26.1048L14.5211 26.0048ZM16.3245 25.977L16.326 26.077L16.3261 26.077L16.3245 25.977ZM18.0446 25.9493L18.047 25.8492L18.043 25.8493L18.0446 25.9493ZM18.6133 25.9632L18.617 25.8632L18.6158 25.8632L18.6133 25.9632ZM19.1543 26.1712L19.0782 26.2365L19.0836 26.2419L19.1543 26.1712ZM19.2514 26.4625L19.3514 26.4702V26.4625H19.2514ZM19.1266 26.7538L19.0559 26.6831L19.0559 26.6831L19.1266 26.7538ZM18.6965 26.9203L18.6871 26.8207L18.683 26.8212L18.6965 26.9203ZM16.5325 27.9052L16.4809 27.9912L16.4878 27.9947L16.5325 27.9052ZM19.1266 28.0439L19.1295 27.944L19.1294 27.944L19.1266 28.0439ZM20.5415 28.1826L20.6196 28.1202L20.6137 28.1128L20.6066 28.1067L20.5415 28.1826ZM20.4028 29.0288L20.3621 28.9373L20.3581 28.9394L20.4028 29.0288ZM16.4771 29.015L16.479 28.915L16.4781 28.915L16.4771 29.015ZM12.1907 28.9317L12.1804 29.0312L12.1813 29.0313L12.1907 28.9317ZM11.6635 28.8069L11.6081 28.8901L11.6081 28.8901L11.6635 28.8069ZM11.83 28.0439L11.8068 27.9466L11.8025 27.9478L11.83 28.0439ZM13.5917 27.9607L13.5927 28.0607L13.5934 28.0607L13.5917 27.9607ZM15.2563 27.8913L15.1856 27.8206L15.1786 27.8276L15.1731 27.8359L15.2563 27.8913ZM15.2841 27.4474L15.1841 27.4509L15.1843 27.4546L15.2841 27.4474ZM15.2702 27.0452L15.3701 27.0417L15.3669 26.9478L15.2729 26.9452L15.2702 27.0452ZM14.2576 27.0174L14.2542 27.1174L14.2548 27.1174L14.2576 27.0174ZM13.2727 26.9619L13.2542 27.0602L13.2562 27.0606L13.2727 26.9619ZM12.9675 26.7538L13.057 26.7091L13.0555 26.7064L12.9675 26.7538ZM12.8565 26.2822L12.9566 26.2774L12.9558 26.2705L12.8565 26.2822ZM12.801 25.1447H12.701L12.7011 25.1478L12.801 25.1447ZM12.7872 24.8257H12.6872V24.8328L12.6882 24.8398L12.7872 24.8257ZM12.7733 24.4511H12.673L12.6736 24.4588L12.7733 24.4511ZM12.7872 24.1459L12.8866 24.157L12.8869 24.1536L12.7872 24.1459ZM12.8704 23.8408L12.7859 23.787L12.783 23.7922L12.8704 23.8408ZM12.9536 31.179L12.8555 31.1593L12.855 31.1625L12.9536 31.179ZM13.0785 30.8599L13.1665 30.9073L13.1679 30.9046L13.0785 30.8599ZM13.883 29.8473L13.823 29.7672L13.8203 29.7694L13.883 29.8473ZM15.1037 29.334L15.1227 29.4324L15.128 29.431L15.1037 29.334ZM15.617 29.2924L15.6199 29.1924H15.617V29.2924ZM16.1025 29.3063L16.0997 29.4062L16.1005 29.4062L16.1025 29.3063ZM17.1152 29.4034L17.1413 29.3068L17.1394 29.3064L17.1152 29.4034ZM19.0295 30.7212L18.939 30.7637L18.9391 30.764L19.0295 30.7212ZM19.1821 31.4286H19.2823L19.2819 31.4224L19.1821 31.4286ZM19.0433 32.2055L18.951 32.167L18.9496 32.1705L19.0433 32.2055ZM17.6284 33.4123L17.5954 33.3179L17.5939 33.3185L17.6284 33.4123ZM15.2702 33.551L15.2913 33.4533L15.2898 33.453L15.2702 33.551ZM13.7721 33.0794L13.822 32.9927L13.8208 32.9921L13.7721 33.0794ZM13.0646 32.3164L13.155 32.2737L13.154 32.2717L13.0646 32.3164ZM14.0356 31.2622L14.128 31.3007L14.1297 31.2962L14.0356 31.2622ZM14.1466 32.1222L14.0733 32.1903L14.0736 32.1906L14.1466 32.1222ZM14.9373 32.4413L14.9208 32.5399L14.9208 32.5399L14.9373 32.4413ZM17.351 32.4552L17.3061 32.3655L17.2995 32.3694L17.351 32.4552ZM16.9071 30.3605L16.9347 30.2644L16.9313 30.2635L16.9071 30.3605ZM16.1719 30.2912L16.1685 30.3911L16.1692 30.3911L16.1719 30.2912ZM15.7557 30.2773L15.7591 30.1773H15.7557V30.2773ZM15.3396 30.305L15.352 30.4043L15.352 30.4043L15.3396 30.305ZM14.7569 30.4854L14.8026 30.5744L14.8055 30.5728L14.7569 30.4854ZM13.124 23.7276C13.116 23.7302 13.1126 23.7299 13.1241 23.7286C13.1322 23.7277 13.1441 23.7266 13.1605 23.7255C13.1929 23.7233 13.2392 23.721 13.2999 23.7187C13.4209 23.7142 13.5962 23.7095 13.8261 23.7049C14.2857 23.6957 14.9615 23.6864 15.8539 23.6772L15.8518 23.4772C14.9593 23.4865 14.2826 23.4957 13.8221 23.505C13.5918 23.5096 13.4151 23.5142 13.2923 23.5189C13.231 23.5212 13.1823 23.5236 13.1469 23.526C13.1292 23.5272 13.114 23.5285 13.1016 23.5299C13.0927 23.5309 13.0756 23.5328 13.0607 23.5378L13.124 23.7276ZM15.8528 23.6772C16.7404 23.6772 17.4228 23.6818 17.9004 23.6911C18.1393 23.6957 18.3263 23.7014 18.4617 23.7083C18.6024 23.7154 18.6763 23.7234 18.6985 23.7293L18.7501 23.5361C18.703 23.5235 18.6052 23.5153 18.4718 23.5085C18.3333 23.5015 18.144 23.4957 17.9043 23.4911C17.4248 23.4818 16.7408 23.4772 15.8528 23.4772V23.6772ZM18.7059 23.731C18.841 23.7563 18.9297 23.8026 18.9844 23.8608C19.0375 23.9172 19.0682 23.9949 19.0682 24.1043H19.2682C19.2682 23.9548 19.2248 23.8244 19.13 23.7237C19.0368 23.6246 18.9035 23.5646 18.7427 23.5344L18.7059 23.731ZM19.069 24.0919C19.0524 24.2241 19.0089 24.3094 18.9492 24.3625L19.082 24.512C19.1888 24.4171 19.2469 24.2805 19.2674 24.1167L19.069 24.0919ZM18.9523 24.3599L18.7997 24.4847L18.9263 24.6395L19.0789 24.5147L18.9523 24.3599ZM18.8641 24.4621L16.4366 24.4344L16.4343 24.6344L18.8619 24.6621L18.8641 24.4621ZM16.4379 24.4344C16.0576 24.4251 15.5805 24.4205 15.0066 24.4205V24.6205C15.5796 24.6205 16.0549 24.6251 16.433 24.6343L16.4379 24.4344ZM15.0066 24.4205C14.6595 24.4205 14.3944 24.424 14.2121 24.431C14.1212 24.4345 14.0492 24.4389 13.9972 24.4445C13.9715 24.4472 13.9483 24.4505 13.9293 24.4547C13.9199 24.4567 13.9091 24.4595 13.8986 24.4634C13.8907 24.4664 13.8712 24.4741 13.8539 24.4914L13.9954 24.6328C13.9875 24.6407 13.9802 24.6451 13.9766 24.647C13.9727 24.6492 13.9699 24.6503 13.9689 24.6507C13.967 24.6514 13.9676 24.651 13.972 24.65C13.9807 24.6481 13.9957 24.6458 14.0185 24.6433C14.0637 24.6385 14.1303 24.6343 14.2198 24.6308C14.3982 24.624 14.6602 24.6205 15.0066 24.6205V24.4205ZM13.8539 24.4914C13.8211 24.5242 13.8061 24.5723 13.7972 24.6085C13.7869 24.6503 13.7791 24.7027 13.7731 24.7639C13.7611 24.8866 13.7553 25.0557 13.7553 25.2696H13.9553C13.9553 25.058 13.9611 24.8965 13.9721 24.7834C13.9777 24.7266 13.9844 24.6849 13.9914 24.6562C13.9998 24.6219 14.0051 24.6231 13.9954 24.6328L13.8539 24.4914ZM13.7553 25.2696C13.7553 25.4829 13.7588 25.6505 13.7659 25.7714C13.7694 25.8316 13.7739 25.882 13.7798 25.9214C13.7827 25.9411 13.7861 25.9595 13.7903 25.9759C13.7942 25.9908 13.8003 26.0104 13.8111 26.0285L13.9826 25.9256C13.9865 25.9321 13.9862 25.9342 13.9839 25.9257C13.9821 25.9187 13.9799 25.9078 13.9776 25.8922C13.973 25.8611 13.9689 25.8173 13.9655 25.7596C13.9587 25.6446 13.9553 25.4816 13.9553 25.2696H13.7553ZM13.8262 26.0477C13.8412 26.0628 13.8575 26.07 13.8646 26.0729C13.8734 26.0765 13.882 26.079 13.8889 26.0806C13.9027 26.084 13.9183 26.0865 13.9342 26.0884C13.9663 26.0924 14.0095 26.0954 14.0624 26.0977C14.1687 26.1025 14.3219 26.1048 14.5211 26.1048V25.9048C14.3227 25.9048 14.173 25.9025 14.0713 25.8979C14.0201 25.8957 13.9829 25.8929 13.9585 25.8899C13.946 25.8884 13.9392 25.8871 13.9366 25.8864C13.9352 25.8861 13.937 25.8864 13.9406 25.8879C13.9424 25.8887 13.9549 25.8936 13.9676 25.9063L13.8262 26.0477ZM14.5227 26.1048L16.326 26.077L16.3229 25.877L14.5196 25.9048L14.5227 26.1048ZM16.3261 26.077L18.0462 26.0493L18.043 25.8493L16.3229 25.877L16.3261 26.077ZM18.0421 26.0493L18.6109 26.0631L18.6158 25.8632L18.047 25.8493L18.0421 26.0493ZM18.6096 26.0631C18.8445 26.0718 18.9926 26.1363 19.0784 26.2363L19.2302 26.1062C19.094 25.9473 18.8815 25.873 18.617 25.8632L18.6096 26.0631ZM19.0836 26.2419C19.123 26.2813 19.1514 26.3485 19.1514 26.4625H19.3514C19.3514 26.3177 19.3151 26.1906 19.225 26.1005L19.0836 26.2419ZM19.1517 26.4549C19.144 26.5551 19.1104 26.6286 19.0559 26.6831L19.1973 26.8246C19.2907 26.7312 19.3403 26.6104 19.3511 26.4702L19.1517 26.4549ZM19.0559 26.6831C18.9862 26.7528 18.8691 26.8034 18.6871 26.8208L18.706 27.0199C18.9124 27.0002 19.082 26.9399 19.1973 26.8246L19.0559 26.6831ZM18.683 26.8212C18.4877 26.8479 18.0144 26.8619 17.2539 26.8619V27.0619C18.01 27.0619 18.4984 27.0482 18.7101 27.0194L18.683 26.8212ZM17.2539 26.8619C17.0219 26.8619 16.841 26.8665 16.7124 26.8761C16.6484 26.8808 16.5949 26.8869 16.5534 26.895C16.5328 26.899 16.5127 26.9039 16.4949 26.9103C16.4794 26.9158 16.4546 26.9262 16.4341 26.9467L16.5755 27.0881C16.5643 27.0993 16.5554 27.1011 16.5624 27.0985C16.5671 27.0969 16.5762 27.0943 16.5914 27.0913C16.6217 27.0855 16.6663 27.08 16.7272 27.0755C16.8483 27.0666 17.0235 27.0619 17.2539 27.0619V26.8619ZM16.4341 26.9467C16.4125 26.9683 16.4002 26.9943 16.3925 27.0156C16.3845 27.038 16.3789 27.0628 16.3748 27.0885C16.3667 27.1399 16.3632 27.2047 16.3632 27.281H16.5632C16.5632 27.2093 16.5666 27.1562 16.5724 27.1197C16.5752 27.1015 16.5783 27.0899 16.5807 27.0834C16.5834 27.0757 16.5832 27.0804 16.5755 27.0881L16.4341 26.9467ZM16.3632 27.281C16.3632 27.4763 16.369 27.6298 16.3811 27.7394C16.3872 27.7938 16.3952 27.8412 16.4063 27.8788C16.4118 27.8976 16.419 27.9171 16.4289 27.9349C16.4382 27.9517 16.4542 27.9748 16.4811 27.991L16.584 27.8195C16.5921 27.8243 16.5972 27.8295 16.5999 27.8326C16.6013 27.8342 16.6022 27.8355 16.6028 27.8364C16.6034 27.8372 16.6037 27.8377 16.6037 27.8378C16.6037 27.8378 16.6031 27.8367 16.602 27.8339C16.6009 27.8312 16.5996 27.8274 16.5981 27.8224C16.5919 27.8011 16.5854 27.7669 16.5799 27.7173C16.569 27.6188 16.5632 27.474 16.5632 27.281H16.3632ZM16.4878 27.9947C16.5151 28.0083 16.5536 28.0158 16.5874 28.0213C16.6262 28.0275 16.6763 28.0336 16.7371 28.0394C16.8588 28.0512 17.0284 28.0628 17.2451 28.0744C17.6787 28.0976 18.3051 28.1208 19.1237 28.1439L19.1294 27.944C18.3112 27.9209 17.6868 27.8978 17.2557 27.8747C17.0401 27.8632 16.8738 27.8517 16.7563 27.8404C16.6974 27.8347 16.6521 27.8291 16.6194 27.8238C16.5818 27.8178 16.5731 27.8137 16.5773 27.8158L16.4878 27.9947ZM19.1237 28.1439C19.7631 28.1624 20.1392 28.1762 20.2564 28.1852L20.2717 27.9858C20.1485 27.9764 19.7662 27.9624 19.1295 27.944L19.1237 28.1439ZM20.2564 28.1852C20.3639 28.1935 20.4333 28.2216 20.4764 28.2586L20.6066 28.1067C20.5203 28.0327 20.4046 27.9961 20.2717 27.9858L20.2564 28.1852ZM20.4634 28.2451C20.5192 28.3148 20.5525 28.4152 20.5525 28.5572H20.7525C20.7525 28.3847 20.7118 28.2354 20.6196 28.1202L20.4634 28.2451ZM20.5525 28.5572C20.5525 28.6666 20.5334 28.7486 20.5017 28.8086C20.4708 28.8669 20.4255 28.9093 20.3622 28.9374L20.4434 29.1202C20.5466 29.0744 20.6261 29.0011 20.6784 28.9022C20.7299 28.805 20.7525 28.6882 20.7525 28.5572H20.5525ZM20.3581 28.9394C20.3668 28.935 20.3739 28.9332 20.3755 28.9328C20.378 28.9322 20.3795 28.9319 20.3796 28.9319C20.3797 28.9319 20.3781 28.9321 20.3739 28.9325C20.3658 28.9333 20.3531 28.9342 20.3349 28.935C20.2988 28.9367 20.2459 28.9381 20.1757 28.9392C20.0355 28.9415 19.8293 28.9427 19.5566 28.9427V29.1427C19.8296 29.1427 20.0371 29.1415 20.179 29.1392C20.2498 29.1381 20.305 29.1366 20.3441 29.1348C20.3635 29.1339 20.3801 29.1329 20.393 29.1316C20.3994 29.131 20.4063 29.1302 20.4128 29.1291C20.4154 29.1287 20.4314 29.1263 20.4475 29.1183L20.3581 28.9394ZM19.5566 28.9427C18.4381 28.9427 17.4123 28.9335 16.479 28.915L16.4751 29.1149C17.4099 29.1334 18.4371 29.1427 19.5566 29.1427V28.9427ZM16.4781 28.915C13.9131 28.8872 12.4906 28.8594 12.2 28.8322L12.1813 29.0313C12.4826 29.0595 13.9177 29.0872 16.476 29.1149L16.4781 28.915ZM12.201 28.8323C12.0693 28.8186 11.9629 28.8019 11.8808 28.7824C11.7967 28.7625 11.7458 28.7415 11.719 28.7237L11.6081 28.8901C11.6645 28.9277 11.743 28.9553 11.8347 28.977C11.9283 28.9992 12.0439 29.0171 12.1804 29.0312L12.201 28.8323ZM11.719 28.7237C11.6768 28.6955 11.6387 28.6314 11.6387 28.4878H11.4387C11.4387 28.6586 11.4838 28.8072 11.6081 28.8901L11.719 28.7237ZM11.6387 28.4878C11.6387 28.3803 11.6605 28.3042 11.6951 28.2514C11.7287 28.2003 11.78 28.1622 11.8575 28.1401L11.8025 27.9478C11.6858 27.9811 11.5915 28.0448 11.5279 28.1417C11.4655 28.2368 11.4387 28.3549 11.4387 28.4878H11.6387ZM11.8532 28.1412C11.9397 28.1206 12.1257 28.1023 12.4208 28.0883C12.7126 28.0745 13.1031 28.0653 13.5927 28.0607L13.5908 27.8607C13.1001 27.8653 12.7068 27.8746 12.4114 27.8886C12.1192 27.9024 11.9145 27.921 11.8068 27.9466L11.8532 28.1412ZM13.5934 28.0607C14.1392 28.0514 14.5518 28.041 14.8305 28.0294C14.9696 28.0236 15.0767 28.0175 15.1507 28.0109C15.1874 28.0076 15.2182 28.0041 15.2414 28C15.2527 27.9981 15.2652 27.9955 15.2768 27.9918C15.2826 27.99 15.2909 27.987 15.2997 27.9824C15.3064 27.9788 15.3251 27.9684 15.3395 27.9468L15.1731 27.8359C15.1864 27.816 15.2029 27.8073 15.2064 27.8055C15.212 27.8025 15.2159 27.8013 15.2163 27.8012C15.2172 27.8009 15.2149 27.8017 15.2071 27.803C15.1922 27.8056 15.168 27.8086 15.1331 27.8117C15.0638 27.8178 14.9605 27.8238 14.8221 27.8296C14.546 27.8411 14.1354 27.8515 13.59 27.8607L13.5934 28.0607ZM15.327 27.962C15.3558 27.9333 15.3688 27.8954 15.3759 27.867C15.3837 27.8357 15.3883 27.799 15.3908 27.7589C15.3959 27.6783 15.3932 27.5715 15.3838 27.4403L15.1843 27.4546C15.1935 27.5824 15.1954 27.679 15.1912 27.7464C15.1891 27.7802 15.1856 27.8036 15.1819 27.8185C15.1774 27.8364 15.1753 27.8309 15.1856 27.8206L15.327 27.962ZM15.384 27.444L15.3701 27.0417L15.1703 27.0486L15.1841 27.4509L15.384 27.444ZM15.2729 26.9452L14.2603 26.9175L14.2548 27.1174L15.2675 27.1451L15.2729 26.9452ZM14.261 26.9175C13.712 26.8989 13.3919 26.8804 13.2891 26.8633L13.2562 27.0606C13.3753 27.0804 13.7118 27.099 14.2542 27.1174L14.261 26.9175ZM13.2911 26.8636C13.1665 26.8403 13.0954 26.7861 13.0569 26.7091L12.878 26.7986C12.9506 26.9436 13.0829 27.0281 13.2542 27.0602L13.2911 26.8636ZM13.0555 26.7064C13.0002 26.6037 12.9652 26.4626 12.9564 26.2775L12.7566 26.287C12.7663 26.4902 12.8053 26.6635 12.8794 26.8013L13.0555 26.7064ZM12.9558 26.2705C12.9379 26.1185 12.9195 25.7442 12.901 25.1416L12.7011 25.1478C12.7195 25.7474 12.7381 26.1315 12.7572 26.2939L12.9558 26.2705ZM12.901 25.1447C12.901 24.9964 12.8965 24.8839 12.8861 24.8115L12.6882 24.8398C12.6963 24.8969 12.701 24.9971 12.701 25.1447H12.901ZM12.8872 24.8257C12.8872 24.6938 12.8824 24.5664 12.873 24.4435L12.6736 24.4588C12.6826 24.5763 12.6872 24.6986 12.6872 24.8257H12.8872ZM12.8733 24.4511C12.8733 24.3332 12.8778 24.2354 12.8865 24.157L12.6878 24.1349C12.678 24.223 12.6733 24.3287 12.6733 24.4511H12.8733ZM12.8869 24.1536C12.8953 24.0441 12.9202 23.9571 12.9578 23.8893L12.783 23.7922C12.7281 23.8909 12.6975 24.0074 12.6874 24.1383L12.8869 24.1536ZM12.9547 23.8945C13.0123 23.804 13.0727 23.7509 13.1329 23.7241L13.0517 23.5413C12.9455 23.5885 12.858 23.674 12.786 23.7871L12.9547 23.8945ZM13.0259 31.5951C13.0259 31.4318 13.035 31.299 13.0523 31.1954L12.855 31.1625C12.8353 31.2808 12.8259 31.4255 12.8259 31.5951H13.0259ZM13.0517 31.1986C13.0676 31.1191 13.1046 31.0224 13.1665 30.9073L12.9904 30.8125C12.9229 30.9379 12.8767 31.0539 12.8556 31.1593L13.0517 31.1986ZM13.1679 30.9046C13.3654 30.5097 13.6247 30.1837 13.9458 29.9251L13.8203 29.7694C13.4755 30.0472 13.1985 30.3963 12.989 30.8152L13.1679 30.9046ZM13.943 29.9273C14.2618 29.6882 14.654 29.5223 15.1226 29.4322L15.0849 29.2358C14.5917 29.3306 14.1701 29.507 13.823 29.7673L13.943 29.9273ZM15.128 29.431C15.2265 29.4064 15.3875 29.3924 15.617 29.3924V29.1924C15.3842 29.1924 15.2029 29.2061 15.0795 29.237L15.128 29.431ZM15.6141 29.3923L16.0997 29.4062L16.1054 29.2063L15.6199 29.1924L15.6141 29.3923ZM16.1005 29.4062C16.5519 29.4155 16.8803 29.4477 17.0909 29.5004L17.1394 29.3064C16.9062 29.248 16.5594 29.2156 16.1046 29.2063L16.1005 29.4062ZM17.089 29.4999C18.0651 29.7644 18.6701 30.1913 18.939 30.7637L19.12 30.6787C18.8155 30.0304 18.1443 29.5787 17.1413 29.3068L17.089 29.4999ZM18.9391 30.764C19.0148 30.9238 19.0642 31.1457 19.0823 31.4349L19.2819 31.4224C19.2629 31.1198 19.2106 30.87 19.1198 30.6784L18.9391 30.764ZM19.0821 31.4286C19.0821 31.7143 19.0374 31.9597 18.951 32.167L19.1356 32.2439C19.2342 32.0073 19.2821 31.7348 19.2821 31.4286H19.0821ZM18.9496 32.1705C18.7599 32.6795 18.3175 33.0652 17.5954 33.3179L17.6614 33.5067C18.419 33.2416 18.9199 32.8227 19.137 32.2404L18.9496 32.1705ZM17.5939 33.3185C17.152 33.4808 16.692 33.562 16.2135 33.562V33.762C16.7152 33.762 17.1985 33.6768 17.6629 33.5062L17.5939 33.3185ZM16.2135 33.562C15.9353 33.562 15.628 33.5261 15.2913 33.4533L15.2491 33.6488C15.5967 33.7239 15.9183 33.762 16.2135 33.762V33.562ZM15.2898 33.453C14.5984 33.3147 14.1124 33.1599 13.8219 32.9927L13.7222 33.1661C14.0421 33.3503 14.5548 33.5099 15.2506 33.6491L15.2898 33.453ZM13.8208 32.9921C13.525 32.8268 13.3035 32.5883 13.155 32.2737L12.9742 32.3591C13.1401 32.7105 13.3902 32.9806 13.7233 33.1667L13.8208 32.9921ZM13.154 32.2717C13.0708 32.1053 13.0259 31.8818 13.0259 31.5951H12.8259C12.8259 31.9003 12.8734 32.1577 12.9751 32.3612L13.154 32.2717ZM13.9433 31.2237C13.891 31.3493 13.8663 31.4924 13.8663 31.6506H14.0663C14.0663 31.5129 14.0878 31.397 14.1279 31.3006L13.9433 31.2237ZM13.8663 31.6506C13.8663 31.8595 13.935 32.0414 14.0733 32.1903L14.2199 32.0542C14.1177 31.9442 14.0663 31.8116 14.0663 31.6506H13.8663ZM14.0736 32.1906C14.2361 32.3639 14.5281 32.4745 14.9208 32.5399L14.9537 32.3427C14.5696 32.2786 14.3345 32.1765 14.2195 32.0538L14.0736 32.1906ZM14.9208 32.5399C15.3172 32.606 15.8599 32.6384 16.5464 32.6384V32.4384C15.8642 32.4384 15.3342 32.4061 14.9537 32.3427L14.9208 32.5399ZM16.5464 32.6384C16.7699 32.6384 16.9518 32.6314 17.0908 32.6171C17.1602 32.6099 17.2207 32.6007 17.2712 32.589C17.3202 32.5777 17.3661 32.5627 17.4024 32.5409L17.2995 32.3694C17.2896 32.3754 17.2673 32.3847 17.2262 32.3941C17.1865 32.4033 17.1348 32.4114 17.0702 32.4181C16.941 32.4315 16.7668 32.4384 16.5464 32.4384V32.6384ZM17.3957 32.5446C17.6298 32.4275 17.8113 32.277 17.9339 32.0905C18.0569 31.9035 18.1168 31.6862 18.1168 31.4425H17.9168C17.9168 31.652 17.8658 31.8301 17.7668 31.9806C17.6675 32.1316 17.516 32.2608 17.3063 32.3657L17.3957 32.5446ZM18.1168 31.4425C18.1168 31.1608 18.0131 30.9178 17.8092 30.7189C17.608 30.5228 17.3133 30.3733 16.9347 30.2644L16.8794 30.4566C17.2407 30.5605 17.5008 30.6976 17.6696 30.8621C17.8356 31.024 17.9168 31.2156 17.9168 31.4425H18.1168ZM16.9313 30.2635C16.7719 30.2236 16.5173 30.2005 16.1746 30.1912L16.1692 30.3911C16.5108 30.4004 16.7463 30.4234 16.8828 30.4575L16.9313 30.2635ZM16.1752 30.1912L15.7591 30.1773L15.7524 30.3772L16.1685 30.3911L16.1752 30.1912ZM15.7557 30.1773C15.6215 30.1773 15.4786 30.1869 15.3272 30.2058L15.352 30.4043C15.4964 30.3862 15.631 30.3773 15.7557 30.3773V30.1773ZM15.3272 30.2058C15.0947 30.2349 14.8878 30.2983 14.7084 30.3979L14.8055 30.5728C14.959 30.4875 15.1405 30.4307 15.352 30.4043L15.3272 30.2058ZM14.7113 30.3964C14.3316 30.5911 14.0716 30.868 13.9416 31.2282L14.1297 31.2962C14.24 30.9905 14.4609 30.7496 14.8026 30.5743L14.7113 30.3964ZM31.1816 24.1459L31.1692 24.2453L31.1745 24.2457L31.1816 24.1459ZM31.459 24.2153L31.539 24.1553L31.5288 24.1416L31.5145 24.1321L31.459 24.2153ZM31.5007 32.8297L31.5787 32.8922L31.6007 32.8648V32.8297H31.5007ZM31.3897 32.9684L31.4608 33.0396L31.4678 33.0309L31.3897 32.9684ZM30.6683 32.9823L30.5948 33.0502L30.5976 33.053L30.6683 32.9823ZM30.488 32.5523L30.588 32.5467L30.5875 32.5423L30.488 32.5523ZM30.4603 31.3315L30.3603 31.3311V31.3315H30.4603ZM30.4741 28.1965L30.3742 28.1918L30.3741 28.1961L30.4741 28.1965ZM30.488 27.3087L30.388 27.3076V27.3087H30.488ZM30.5296 24.6592L30.4305 24.6446L30.4299 24.6515L30.5296 24.6592ZM30.8348 24.1321V24.0321H30.8232L30.8119 24.0347L30.8348 24.1321ZM22.8308 25.0476L22.9306 25.0532L22.9307 25.0516L22.8308 25.0476ZM23.0527 24.5898L23.008 24.5004L23.0057 24.5016L23.0527 24.5898ZM23.5382 24.576L23.5804 24.4846L23.5699 24.4811L23.5382 24.576ZM23.7602 24.8812L23.8596 24.8687L23.8585 24.8627L23.7602 24.8812ZM23.8295 28.4046H23.9296L23.9294 28.4002L23.8295 28.4046ZM23.8295 28.5433H23.7294L23.7296 28.5478L23.8295 28.5433ZM23.9544 29.6114L24.046 29.5698L24.0401 29.56L23.9544 29.6114ZM25.7022 29.6808L25.712 29.7803L25.7122 29.7803L25.7022 29.6808ZM26.6039 29.6392L26.5907 29.7385L26.5968 29.7389L26.6039 29.6392ZM26.9368 29.8195L26.86 29.8836L26.8625 29.8864L26.9368 29.8195ZM26.8813 30.4576L26.9448 30.5352L26.9492 30.5311L26.8813 30.4576ZM26.6594 30.5963L26.6396 30.4975L26.6278 30.5015L26.6594 30.5963ZM26.2571 30.6518L26.2484 30.5522L26.2475 30.5523L26.2571 30.6518ZM25.3971 30.7351L25.3874 30.6355L25.3851 30.6358L25.3971 30.7351ZM23.7879 30.7073L23.7743 30.8064L23.7745 30.8064L23.7879 30.7073ZM23.2053 30.5547L23.2527 30.4667L23.2451 30.4626L23.2369 30.4599L23.2053 30.5547ZM22.9279 30.305L22.8383 30.3498L22.8411 30.3546L22.9279 30.305ZM22.8446 29.764L22.7448 29.7703L22.7449 29.7705L22.8446 29.764ZM22.803 27.5307H22.703L22.703 27.5314L22.803 27.5307ZM25.8687 26.9342L25.9504 26.9926L25.9551 26.9846L25.8687 26.9342ZM26.049 26.7538L26.0655 26.8525L26.0669 26.8522L26.049 26.7538ZM26.8397 26.7122L26.8419 26.8122L26.8443 26.8121L26.8397 26.7122ZM27.1449 26.6984L27.1421 26.5984L27.1404 26.5985L27.1449 26.6984ZM28.213 26.6151L28.1682 26.5256L28.1634 26.5283L28.213 26.6151ZM28.3379 25.1031L28.2382 25.0944L28.2381 25.0966L28.3379 25.1031ZM28.4072 24.6037L28.5047 24.6262L28.5053 24.6233L28.4072 24.6037ZM28.546 24.4095L28.6167 24.4802L28.6167 24.4802L28.546 24.4095ZM29.2118 24.3818L29.2789 24.3072L29.2728 24.3025L29.2118 24.3818ZM29.3505 24.5066L29.4505 24.5063L29.4504 24.4619L29.4174 24.4323L29.3505 24.5066ZM29.3644 28.3352H29.4644L29.4644 28.3349L29.3644 28.3352ZM29.3505 32.3581L29.4498 32.3705L29.4498 32.3705L29.3505 32.3581ZM29.0453 32.8158L29.0848 32.9078L29.0882 32.9062L29.0453 32.8158ZM28.5182 32.7187L28.586 32.6442L28.5763 32.6374L28.5182 32.7187ZM28.4072 32.5523L28.5062 32.5381L28.5043 32.5244L28.4986 32.5117L28.4072 32.5523ZM28.3379 32.15L28.4378 32.145L28.4375 32.1407L28.3379 32.15ZM28.2685 29.7224L28.3685 29.7217L28.3685 29.7203L28.2685 29.7224ZM28.1714 27.711L28.2314 27.631L28.2153 27.6189L28.1957 27.614L28.1714 27.711ZM27.2698 27.6694L27.273 27.5694L27.2729 27.5694L27.2698 27.6694ZM26.2294 27.6L26.201 27.6959L26.2031 27.6965L26.2294 27.6ZM25.7993 27.2116H25.6993V27.2215L25.7013 27.2312L25.7993 27.2116ZM30.918 24.2321C31.017 24.2321 31.1005 24.2366 31.1692 24.2452L31.194 24.0467C31.1147 24.0368 31.0225 24.0321 30.918 24.0321V24.2321ZM31.1745 24.2457C31.3002 24.2547 31.3706 24.2766 31.4036 24.2985L31.5145 24.1321C31.4365 24.0801 31.322 24.0557 31.1887 24.0462L31.1745 24.2457ZM31.379 24.2753C31.3698 24.263 31.3662 24.2518 31.3656 24.25C31.3644 24.2464 31.3639 24.244 31.3638 24.2439C31.3638 24.2436 31.3642 24.2455 31.3648 24.2509C31.3661 24.2613 31.3675 24.2778 31.369 24.3015C31.3719 24.3485 31.3747 24.4178 31.3773 24.5103C31.3825 24.6949 31.3868 24.9678 31.3903 25.3295C31.3972 26.0526 31.4007 27.1285 31.4007 28.5572H31.6007C31.6007 27.1283 31.5972 26.0517 31.5902 25.3276C31.5868 24.9656 31.5824 24.6912 31.5772 24.5047C31.5746 24.4116 31.5717 24.3395 31.5686 24.2891C31.567 24.2641 31.5653 24.2429 31.5633 24.2267C31.5624 24.2187 31.5611 24.2101 31.5594 24.2019C31.5585 24.1979 31.5572 24.1923 31.5551 24.1861C31.5536 24.1818 31.5492 24.1688 31.539 24.1553L31.379 24.2753ZM31.4007 28.5572V32.8297H31.6007V28.5572H31.4007ZM31.4226 32.7672L31.3116 32.906L31.4678 33.0309L31.5787 32.8922L31.4226 32.7672ZM31.319 32.8977C31.2478 32.9689 31.1543 33.0071 31.029 33.0071V33.2071C31.1997 33.2071 31.3466 33.1529 31.4604 33.0391L31.319 32.8977ZM31.029 33.0071C30.8891 33.0071 30.7979 32.9704 30.7391 32.9116L30.5976 33.053C30.7052 33.1606 30.8545 33.2071 31.029 33.2071V33.0071ZM30.7418 32.9145C30.6469 32.8117 30.5958 32.6905 30.5879 32.5467L30.3882 32.5578C30.3987 32.747 30.4678 32.9125 30.5949 33.0501L30.7418 32.9145ZM30.5875 32.5423C30.5695 32.3622 30.5603 32.1117 30.5603 31.7893H30.3603C30.3603 32.1143 30.3695 32.3724 30.3885 32.5622L30.5875 32.5423ZM30.5603 31.7893V31.3315H30.3603V31.7893H30.5603ZM30.5603 31.332L30.5741 28.197L30.3741 28.1961L30.3603 31.3311L30.5603 31.332ZM30.574 28.2013C30.5834 28.0046 30.588 27.7067 30.588 27.3087H30.388C30.388 27.7061 30.3834 28 30.3743 28.1918L30.574 28.2013ZM30.588 27.3098C30.6065 25.6605 30.6204 24.7828 30.6293 24.6669L30.4299 24.6515C30.4203 24.7761 30.4065 25.6647 30.388 27.3076L30.588 27.3098ZM30.6286 24.6738C30.6508 24.5228 30.6852 24.4142 30.7271 24.3417C30.768 24.2712 30.8125 24.2401 30.8577 24.2294L30.8119 24.0347C30.6999 24.0611 30.6149 24.1363 30.5541 24.2415C30.4943 24.3447 30.4547 24.4812 30.4307 24.6447L30.6286 24.6738ZM30.8348 24.2321H30.918V24.0321H30.8348V24.2321ZM22.903 27.5168C22.903 26.2026 22.9123 25.3827 22.9306 25.0532L22.7309 25.0421C22.7122 25.3784 22.703 26.2046 22.703 27.5168H22.903ZM22.9307 25.0516C22.9393 24.8376 23.0057 24.7282 23.0998 24.6781L23.0057 24.5016C22.8223 24.5994 22.7408 24.7952 22.7309 25.0436L22.9307 25.0516ZM23.0974 24.6793C23.1812 24.6374 23.2489 24.6205 23.3024 24.6205V24.4205C23.208 24.4205 23.1092 24.4498 23.008 24.5004L23.0974 24.6793ZM23.3024 24.6205C23.3305 24.6205 23.3949 24.6336 23.5066 24.6708L23.5699 24.4811C23.4596 24.4444 23.3668 24.4205 23.3024 24.4205V24.6205ZM23.4963 24.6668C23.5828 24.7067 23.6392 24.7784 23.6619 24.8996L23.8585 24.8627C23.8257 24.688 23.7341 24.5562 23.5801 24.4852L23.4963 24.6668ZM23.661 24.8936C23.6786 25.0349 23.6879 25.2699 23.6879 25.6025H23.8879C23.8879 25.2692 23.8787 25.0234 23.8594 24.8688L23.661 24.8936ZM23.6879 25.6025V26.0603H23.8879V25.6025H23.6879ZM23.6879 26.0603V26.6151H23.8879V26.0603H23.6879ZM23.6879 26.6151C23.6879 27.1809 23.7018 27.7788 23.7296 28.409L23.9294 28.4002C23.9018 27.7726 23.8879 27.1776 23.8879 26.6151H23.6879ZM23.7295 28.4046V28.5433H23.9295V28.4046H23.7295ZM23.7296 28.5478C23.7436 28.8585 23.761 29.1052 23.7822 29.2867C23.7928 29.3773 23.8046 29.4534 23.8176 29.5138C23.8301 29.5713 23.8458 29.6248 23.8686 29.6629L24.0401 29.56C24.0353 29.5519 24.0249 29.5261 24.0131 29.4715C24.0019 29.4198 23.9911 29.3508 23.9809 29.2634C23.9605 29.0889 23.9433 28.8477 23.9294 28.5388L23.7296 28.5478ZM23.8634 29.6528C23.9032 29.7405 23.9865 29.7917 24.0805 29.8213C24.1753 29.8511 24.2966 29.864 24.4399 29.864V29.664C24.3058 29.664 24.2075 29.6516 24.1404 29.6305C24.0726 29.6092 24.0518 29.5842 24.0454 29.5701L23.8634 29.6528ZM24.4399 29.864H24.5093V29.664H24.4399V29.864ZM24.5093 29.864C24.7459 29.864 25.148 29.8358 25.712 29.7803L25.6925 29.5813C25.1283 29.6368 24.735 29.664 24.5093 29.664V29.864ZM25.7122 29.7803C26.1775 29.7338 26.4657 29.7216 26.5907 29.7383L26.6171 29.5401C26.4646 29.5197 26.1518 29.5353 25.6923 29.5813L25.7122 29.7803ZM26.5968 29.7389C26.6959 29.746 26.7828 29.7909 26.86 29.8835L27.0137 29.7555C26.9059 29.6262 26.7708 29.5509 26.611 29.5394L26.5968 29.7389ZM26.8625 29.8864C26.9331 29.9648 26.9617 30.039 26.9617 30.1108H27.1617C27.1617 29.9792 27.1071 29.8592 27.0112 29.7526L26.8625 29.8864ZM26.9617 30.1108C26.9617 30.1942 26.9209 30.285 26.8135 30.3841L26.9492 30.5311C27.0822 30.4083 27.1617 30.2679 27.1617 30.1108H26.9617ZM26.818 30.3802C26.769 30.4204 26.7286 30.4499 26.6966 30.4699C26.6626 30.4911 26.6449 30.4973 26.6398 30.4983L26.679 30.6944C26.7201 30.6862 26.7625 30.6646 26.8026 30.6395C26.8445 30.6133 26.892 30.5781 26.9447 30.535L26.818 30.3802ZM26.6278 30.5015C26.6096 30.5075 26.5703 30.5158 26.5035 30.525C26.4388 30.5339 26.354 30.543 26.2484 30.5522L26.2658 30.7515C26.373 30.7421 26.4615 30.7327 26.5309 30.7231C26.5982 30.7139 26.6537 30.7037 26.691 30.6912L26.6278 30.5015ZM26.2475 30.5523L25.3874 30.6355L25.4067 30.8346L26.2667 30.7514L26.2475 30.5523ZM25.3851 30.6358C25.1579 30.663 24.9307 30.6767 24.7035 30.6767V30.8767C24.9387 30.8767 25.1739 30.8626 25.409 30.8343L25.3851 30.6358ZM24.7035 30.6767C24.4408 30.6767 24.1402 30.654 23.8013 30.6082L23.7745 30.8064C24.12 30.8531 24.4297 30.8767 24.7035 30.8767V30.6767ZM23.8016 30.6083C23.5359 30.5716 23.3565 30.5226 23.2527 30.4667L23.1579 30.6428C23.2945 30.7163 23.5035 30.769 23.7743 30.8064L23.8016 30.6083ZM23.2369 30.4599C23.1552 30.4326 23.0799 30.3696 23.0147 30.2554L22.8411 30.3546C22.9238 30.4994 23.0335 30.6029 23.1737 30.6496L23.2369 30.4599ZM23.0173 30.2603C23.0064 30.2384 22.9919 30.1883 22.9782 30.0991C22.9649 30.013 22.9536 29.8995 22.9444 29.7576L22.7449 29.7705C22.7542 29.9153 22.766 30.0353 22.7805 30.1295C22.7945 30.2206 22.8124 30.2977 22.8384 30.3498L23.0173 30.2603ZM22.9445 29.7578C22.9262 29.4652 22.9123 28.7239 22.903 27.5299L22.703 27.5314C22.7123 28.7234 22.7261 29.471 22.7448 29.7703L22.9445 29.7578ZM22.903 27.5307V27.5168H22.703V27.5307H22.903ZM25.8993 27.1561C25.8993 27.0927 25.9165 27.0393 25.9501 26.9923L25.7873 26.8761C25.7284 26.9586 25.6993 27.0531 25.6993 27.1561H25.8993ZM25.9551 26.9846C25.9851 26.9331 26.0113 26.8983 26.033 26.8766C26.0555 26.8542 26.0664 26.8523 26.0655 26.8525L26.0326 26.6552C25.9762 26.6646 25.9293 26.6975 25.8916 26.7352C25.8532 26.7735 25.8171 26.8243 25.7823 26.8838L25.9551 26.9846ZM26.0669 26.8522C26.159 26.8355 26.4134 26.8215 26.8419 26.8122L26.8376 26.6123C26.4153 26.6214 26.1425 26.6352 26.0311 26.6555L26.0669 26.8522ZM26.8443 26.8121L27.1494 26.7983L27.1404 26.5985L26.8352 26.6123L26.8443 26.8121ZM27.1478 26.7983C27.472 26.7891 27.7248 26.7774 27.9052 26.7634C27.9953 26.7564 28.0689 26.7486 28.1251 26.74C28.1531 26.7357 28.1782 26.7309 28.1996 26.7255C28.2191 26.7206 28.2425 26.7135 28.2627 26.702L28.1634 26.5283C28.1674 26.526 28.1655 26.5279 28.1507 26.5316C28.1376 26.5349 28.1192 26.5385 28.0947 26.5423C28.0456 26.5498 27.9776 26.5571 27.8897 26.564C27.7141 26.5777 27.4652 26.5892 27.1421 26.5984L27.1478 26.7983ZM28.2578 26.7046C28.3033 26.6818 28.3276 26.6397 28.3414 26.6077C28.3562 26.5731 28.3665 26.5313 28.3741 26.4859C28.3893 26.3946 28.3963 26.2702 28.3963 26.1157H28.1963C28.1963 26.2665 28.1893 26.3779 28.1768 26.453C28.1705 26.4909 28.1635 26.515 28.1575 26.5289C28.1505 26.5454 28.1506 26.5346 28.1683 26.5257L28.2578 26.7046ZM28.3963 26.1157C28.3963 25.8692 28.41 25.5341 28.4377 25.1096L28.2381 25.0966C28.2103 25.5229 28.1963 25.8629 28.1963 26.1157H28.3963ZM28.4375 25.1118C28.4558 24.9009 28.4785 24.7398 28.5047 24.6262L28.3098 24.5812C28.2805 24.7081 28.2569 24.8799 28.2383 25.0944L28.4375 25.1118ZM28.5053 24.6233C28.5059 24.6205 28.5104 24.6063 28.5302 24.5786C28.549 24.5523 28.5773 24.5196 28.6167 24.4802L28.4752 24.3388C28.4314 24.3827 28.3949 24.4239 28.3675 24.4624C28.341 24.4994 28.3179 24.5407 28.3092 24.5841L28.5053 24.6233ZM28.6167 24.4802C28.7149 24.382 28.8064 24.3431 28.8928 24.3431V24.1431C28.7386 24.1431 28.599 24.215 28.4752 24.3388L28.6167 24.4802ZM28.8928 24.3431C28.953 24.3431 29.0378 24.3741 29.1508 24.461L29.2728 24.3025C29.1454 24.2045 29.0175 24.1431 28.8928 24.1431V24.3431ZM29.1449 24.4561L29.2836 24.5809L29.4174 24.4323L29.2787 24.3074L29.1449 24.4561ZM29.2505 24.507L29.2644 28.3356L29.4644 28.3349L29.4505 24.5063L29.2505 24.507ZM29.2644 28.3352V30.2357H29.4644V28.3352H29.2644ZM29.2644 30.2357C29.2644 30.9061 29.2632 31.4179 29.2609 31.7713C29.2598 31.9481 29.2583 32.0849 29.2566 32.182C29.2548 32.2826 29.2528 32.3339 29.2513 32.3457L29.4498 32.3705C29.4529 32.3453 29.4549 32.2803 29.4566 32.1856C29.4583 32.0873 29.4598 31.9496 29.4609 31.7726C29.4632 31.4186 29.4644 30.9062 29.4644 30.2357H29.2644ZM29.2513 32.3457C29.227 32.5397 29.1423 32.6593 29.0025 32.7255L29.0882 32.9062C29.2999 32.8059 29.4185 32.6203 29.4498 32.3705L29.2513 32.3457ZM29.006 32.7239C28.9526 32.7468 28.9012 32.7574 28.8511 32.7574V32.9574C28.9306 32.9574 29.0087 32.9403 29.0847 32.9077L29.006 32.7239ZM28.8511 32.7574C28.7594 32.7574 28.6716 32.723 28.5855 32.6447L28.4509 32.7927C28.5683 32.8994 28.7025 32.9574 28.8511 32.9574V32.7574ZM28.5763 32.6374C28.5287 32.6033 28.5108 32.5701 28.5062 32.5381L28.3082 32.5664C28.3222 32.6639 28.3783 32.7417 28.4601 32.8001L28.5763 32.6374ZM28.4986 32.5117C28.4695 32.4462 28.4469 32.3277 28.4378 32.145L28.238 32.155C28.2474 32.3422 28.271 32.4919 28.3159 32.5929L28.4986 32.5117ZM28.4375 32.1407C28.4009 31.748 28.3778 30.9432 28.3685 29.7217L28.1685 29.7232C28.1778 30.9431 28.2009 31.7566 28.2383 32.1592L28.4375 32.1407ZM28.3685 29.7203C28.3546 29.0635 28.3396 28.5665 28.3233 28.2298C28.3152 28.0618 28.3067 27.9323 28.2978 27.8424C28.2934 27.7978 28.2886 27.7608 28.2833 27.7329C28.2807 27.7192 28.2775 27.7048 28.2731 27.6918C28.2709 27.6853 28.2676 27.6768 28.2629 27.6679C28.2588 27.6605 28.2494 27.6445 28.2314 27.631L28.1114 27.791C28.0958 27.7793 28.0886 27.7662 28.0869 27.763C28.0855 27.7605 28.0847 27.7586 28.0842 27.7575C28.0838 27.7564 28.0836 27.7557 28.0835 27.7557C28.0835 27.7556 28.0839 27.7567 28.0845 27.7594C28.0852 27.7621 28.086 27.7656 28.0868 27.7702C28.0905 27.7894 28.0945 27.8195 28.0988 27.8622C28.1072 27.9469 28.1155 28.0723 28.1236 28.2395C28.1397 28.5733 28.1547 29.0682 28.1685 29.7245L28.3685 29.7203ZM28.1957 27.614C28.1757 27.609 28.1393 27.6061 28.1011 27.6034C28.0578 27.6005 27.9983 27.5973 27.9229 27.5938C27.7719 27.5868 27.5552 27.5787 27.273 27.5694L27.2665 27.7693C27.5484 27.7786 27.764 27.7867 27.9137 27.7936C27.9885 27.797 28.0463 27.8002 28.0874 27.803C28.1336 27.8061 28.1486 27.8084 28.1472 27.808L28.1957 27.614ZM27.2729 27.5694C26.9774 27.5602 26.7441 27.5498 26.5724 27.5384C26.3966 27.5267 26.2951 27.5143 26.2557 27.5036L26.2031 27.6965C26.2654 27.7135 26.3881 27.7266 26.5591 27.738C26.7342 27.7496 26.9702 27.7601 27.2666 27.7693L27.2729 27.5694ZM26.2578 27.5041C26.0282 27.4361 25.9244 27.3271 25.8974 27.192L25.7013 27.2312C25.7482 27.466 25.9312 27.616 26.201 27.6959L26.2578 27.5041ZM25.8993 27.2116V27.1561H25.6993V27.2116H25.8993Z" fill="white" mask="url(#path-2-outside-1_636_601)"/>
</svg>
