<svg width="45" height="44" viewBox="0 0 45 44" fill="none" xmlns="http://www.w3.org/2000/svg">
<rect x="1.68249" y="0.7425" width="42.075" height="42.075" rx="21.0375" fill="#FFFED3"/>
<rect x="1.68249" y="0.7425" width="42.075" height="42.075" rx="21.0375" stroke="#E3B05F" stroke-width="1.485"/>
<path d="M31.8878 17.6405C31.4158 16.5163 30.7292 15.4946 29.8661 14.6321C29.0056 13.7682 27.9835 13.0813 26.8577 12.6105C25.7045 12.1258 24.4654 11.8774 23.214 11.8799H23.1719C21.8992 11.8862 20.6685 12.1381 19.5093 12.6336C18.3932 13.1092 17.3806 13.7973 16.5282 14.6594C15.6736 15.5199 14.9948 16.5381 14.5297 17.6573C14.0469 18.821 13.8023 20.0694 13.8102 21.329C13.8165 22.7859 14.1657 24.2323 14.8179 25.5255V28.7165C14.8179 29.2497 15.2513 29.6822 15.7835 29.6822H18.977C20.279 30.3378 21.7157 30.6828 23.174 30.6899H23.2182C24.4763 30.6899 25.6944 30.4464 26.843 29.9698C27.9631 29.5046 28.9814 28.8257 29.8409 27.9713C30.7076 27.1126 31.3892 26.1091 31.8668 24.9902C32.3612 23.8314 32.6136 22.5991 32.6199 21.3269C32.6242 20.0484 32.3759 18.8077 31.8878 17.6405ZM19.0149 22.2926C18.4595 22.2926 18.0072 21.8412 18.0072 21.2849C18.0072 20.7286 18.4595 20.2772 19.0149 20.2772C19.5703 20.2772 20.0226 20.7286 20.0226 21.2849C20.0226 21.8412 19.5724 22.2926 19.0149 22.2926ZM23.214 22.2926C22.6586 22.2926 22.2063 21.8412 22.2063 21.2849C22.2063 20.7286 22.6586 20.2772 23.214 20.2772C23.7694 20.2772 24.2217 20.7286 24.2217 21.2849C24.2217 21.8412 23.7694 22.2926 23.214 22.2926ZM27.4131 22.2926C26.8577 22.2926 26.4054 21.8412 26.4054 21.2849C26.4054 20.7286 26.8577 20.2772 27.4131 20.2772C27.9685 20.2772 28.4208 20.7286 28.4208 21.2849C28.4208 21.8412 27.9685 22.2926 27.4131 22.2926Z" fill="#E3B05F"/>
</svg>
