<svg width="44" height="44" viewBox="0 0 44 44" fill="none" xmlns="http://www.w3.org/2000/svg">
<g id="more">
<rect x="1.10181" y="0.758057" width="42.06" height="42.06" rx="21.03" fill="#FFFED3"/>
<rect x="1.10181" y="0.758057" width="42.06" height="42.06" rx="21.03" stroke="#E1AC57" stroke-width="1.5"/>
<path id="Vector" d="M20.3677 24.9527C20.3807 25.4119 20.5722 25.848 20.9016 26.1682C21.2311 26.4884 21.6724 26.6676 22.1318 26.6676C22.5912 26.6676 23.0325 26.4884 23.362 26.1682C23.6914 25.848 23.8829 25.4119 23.8959 24.9527V13.6439C23.8829 13.1846 23.6914 12.7486 23.362 12.4283C23.0325 12.1081 22.5912 11.929 22.1318 11.929C21.6724 11.929 21.2311 12.1081 20.9016 12.4283C20.5722 12.7486 20.3807 13.1846 20.3677 13.6439V24.9527ZM20.3677 29.8831C20.3677 30.8533 21.1615 31.6472 22.1318 31.6472C23.1021 31.6472 23.8959 30.8533 23.8959 29.8831C23.8959 28.9128 23.1021 28.1189 22.1318 28.1189C21.6645 28.1208 21.2169 28.3072 20.8864 28.6377C20.556 28.9681 20.3695 29.4158 20.3677 29.8831Z" fill="#E1AC57"/>
</g>
</svg>
