<svg xmlns="http://www.w3.org/2000/svg" width="9" height="10" viewBox="0 0 9 10" fill="none">
  <path d="M7.62254 4.06977L7.98795 3.70437C8.27863 3.41368 8.44193 3.01944 8.44193 2.60835C8.44193 2.19726 8.27863 1.80302 7.98795 1.51233C7.69726 1.22165 7.30302 1.05835 6.89193 1.05835C6.48084 1.05835 6.0866 1.22165 5.79591 1.51233L5.43051 1.87774L2.07131 5.23615C1.84387 5.46398 1.72995 5.5779 1.6322 5.70325C1.51686 5.85125 1.41787 6.0113 1.33696 6.1806C1.26876 6.32408 1.21791 6.47702 1.11622 6.78212L0.684984 8.07542M7.62254 4.06977C7.62254 4.06977 6.8464 4.02405 6.16132 3.33896C5.47623 2.65427 5.4309 1.87774 5.4309 1.87774M7.62254 4.06977L4.26374 7.42818C4.0363 7.65562 3.92238 7.76954 3.79703 7.86729C3.64903 7.98263 3.48898 8.08162 3.31968 8.16253C3.1762 8.23073 3.02365 8.28158 2.71816 8.38328L1.42486 8.81451M1.42486 8.81451L1.10873 8.92015C1.03504 8.94486 0.955915 8.94852 0.880255 8.93073C0.804596 8.91294 0.735398 8.8744 0.680439 8.81945C0.625481 8.76449 0.586941 8.69529 0.569152 8.61963C0.551362 8.54397 0.555028 8.46485 0.579738 8.39116L0.685378 8.07503L1.42486 8.81451Z" stroke="white" stroke-width="0.591269"/>
</svg>