<svg width="45" height="44" viewBox="0 0 45 44" fill="none" xmlns="http://www.w3.org/2000/svg">
<rect x="0.959991" width="43.56" height="43.56" rx="21.78" fill="#E3B05F"/>
<path d="M23.1559 11.7976C21.6015 11.7976 20.1108 12.4151 19.0116 13.5142C17.9125 14.6134 17.295 16.1041 17.295 17.6585C17.295 17.9694 17.4185 18.2676 17.6383 18.4874C17.8581 18.7072 18.1563 18.8307 18.4672 18.8307C18.7781 18.8307 19.0762 18.7072 19.296 18.4874C19.5159 18.2676 19.6394 17.9694 19.6394 17.6585C19.6394 15.7151 21.2124 14.142 23.1559 14.142C25.0994 14.142 26.6725 15.7151 26.6725 17.6585C26.6725 18.615 26.4392 19.1754 26.1591 19.568C25.852 19.9959 25.4264 20.3159 24.8368 20.7226L24.7009 20.8141C24.1769 21.1728 23.5017 21.6334 22.9789 22.2758C22.3612 23.0354 21.9837 23.9954 21.9837 25.2778V25.8639C21.9837 26.1747 22.1072 26.4729 22.3271 26.6927C22.5469 26.9125 22.845 27.036 23.1559 27.036C23.4668 27.036 23.765 26.9125 23.9848 26.6927C24.2046 26.4729 24.3281 26.1747 24.3281 25.8639V25.2778C24.3281 24.5088 24.5368 24.0774 24.797 23.7551C25.0982 23.387 25.5038 23.108 26.1028 22.6966L26.1649 22.6532C26.7463 22.2547 27.493 21.7319 28.0639 20.9325C28.6652 20.0979 29.0169 19.0452 29.0169 17.6585C29.0169 16.1041 28.3994 14.6134 27.3002 13.5142C26.2011 12.4151 24.7103 11.7976 23.1559 11.7976ZM23.1559 32.0178C23.5445 32.0178 23.9172 31.8635 24.192 31.5887C24.4668 31.3139 24.6212 30.9412 24.6212 30.5526C24.6212 30.164 24.4668 29.7913 24.192 29.5165C23.9172 29.2417 23.5445 29.0874 23.1559 29.0874C22.7673 29.0874 22.3946 29.2417 22.1198 29.5165C21.8451 29.7913 21.6907 30.164 21.6907 30.5526C21.6907 30.9412 21.8451 31.3139 22.1198 31.5887C22.3946 31.8635 22.7673 32.0178 23.1559 32.0178Z" fill="#FFFED3"/>
</svg>
