<svg width="45" height="45" viewBox="0 0 45 45" fill="none" xmlns="http://www.w3.org/2000/svg">
<rect x="0.960022" y="0.469971" width="43.56" height="43.56" rx="21.78" fill="#E3B05F"/>
<path d="M20.9759 25.4146C20.9889 25.8738 21.1804 26.3099 21.5099 26.6301C21.8393 26.9503 22.2806 27.1295 22.74 27.1295C23.1994 27.1295 23.6408 26.9503 23.9702 26.6301C24.2996 26.3099 24.4912 25.8738 24.5042 25.4146V14.1058C24.4912 13.6465 24.2996 13.2105 23.9702 12.8902C23.6408 12.57 23.1994 12.3909 22.74 12.3909C22.2806 12.3909 21.8393 12.57 21.5099 12.8902C21.1804 13.2105 20.9889 13.6465 20.9759 14.1058V25.4146ZM20.9759 30.345C20.9759 31.3152 21.7697 32.1091 22.74 32.1091C23.7103 32.1091 24.5042 31.3152 24.5042 30.345C24.5042 29.3747 23.7103 28.5808 22.74 28.5808C22.2727 28.5827 21.8251 28.7691 21.4946 29.0996C21.1642 29.43 20.9777 29.8776 20.9759 30.345Z" fill="#FFFED3"/>
</svg>
