<svg width="17" height="15" viewBox="0 0 17 15" fill="none" xmlns="http://www.w3.org/2000/svg">
<path d="M8.1001 3.12855L7.69824 3.51752C7.7503 3.57182 7.81272 3.61501 7.88177 3.64451C7.95082 3.67401 8.02507 3.68921 8.1001 3.68921C8.17512 3.68921 8.24938 3.67401 8.31842 3.64451C8.38747 3.61501 8.44989 3.57182 8.50196 3.51752L8.1001 3.12855ZM6.18456 12.7198C5.05638 11.8259 3.82326 10.953 2.84466 9.84586C1.88614 8.75972 1.21638 7.49331 1.21638 5.84914H0.100098C0.100098 7.84339 0.926144 9.36488 2.01042 10.5909C3.07461 11.7952 4.432 12.7602 5.49321 13.601L6.18456 12.7198ZM1.21638 5.84914C1.21638 4.24087 2.12056 2.89142 3.35517 2.32367C4.5548 1.77237 6.1667 1.91823 7.69824 3.51752L8.50196 2.74032C6.68614 0.842567 4.57563 0.529142 2.8908 1.30335C1.24317 2.06111 0.100098 3.82048 0.100098 5.84914H1.21638ZM5.49321 13.601C5.87498 13.9032 6.28428 14.2248 6.69879 14.4687C7.11331 14.7126 7.58661 14.91 8.1001 14.91V13.788C7.8694 13.788 7.59852 13.6982 7.26214 13.5C6.92503 13.3025 6.576 13.0302 6.18456 12.7198L5.49321 13.601ZM10.707 13.601C11.7682 12.7594 13.1256 11.796 14.1898 10.5909C15.2741 9.36413 16.1001 7.84339 16.1001 5.84914H14.9838C14.9838 7.49331 14.3141 8.75972 13.3555 9.84586C12.3769 10.953 11.1438 11.8259 10.0156 12.7198L10.707 13.601ZM16.1001 5.84914C16.1001 3.82048 14.9578 2.06111 13.3094 1.30335C11.6246 0.529142 9.51554 0.842567 7.69824 2.73957L8.50196 3.51752C10.0335 1.91898 11.6454 1.77237 12.845 2.32367C14.0796 2.89142 14.9838 4.24012 14.9838 5.84914H16.1001ZM10.0156 12.7198C9.62419 13.0302 9.27517 13.3025 8.93805 13.5C8.60093 13.6975 8.3308 13.788 8.1001 13.788V14.91C8.61359 14.91 9.08689 14.7118 9.5014 14.4687C9.91666 14.2248 10.3252 13.9032 10.707 13.601L10.0156 12.7198Z" fill="#232323"/>
</svg>
