<svg width="9" height="11" viewBox="0 0 9 11" fill="none" xmlns="http://www.w3.org/2000/svg">
<path id="Vector" fill-rule="evenodd" clip-rule="evenodd" d="M4.131 9.90946C4.131 9.90946 0.5 6.91311 0.5 3.96477C0.5 2.92529 0.921427 1.92839 1.67157 1.19336C2.42172 0.458341 3.43913 0.0454102 4.5 0.0454102C5.56087 0.0454102 6.57828 0.458341 7.32843 1.19336C8.07857 1.92839 8.5 2.92529 8.5 3.96477C8.5 6.91311 4.869 9.90946 4.869 9.90946C4.667 10.0917 4.3345 10.0897 4.131 9.90946ZM4.5 5.67949C4.72981 5.67949 4.95738 5.63514 5.1697 5.54896C5.38202 5.46279 5.57493 5.33648 5.73744 5.17726C5.89994 5.01803 6.02884 4.829 6.11679 4.62096C6.20474 4.41292 6.25 4.18995 6.25 3.96477C6.25 3.73959 6.20474 3.51661 6.11679 3.30857C6.02884 3.10053 5.89994 2.91151 5.73744 2.75228C5.57493 2.59305 5.38202 2.46675 5.1697 2.38057C4.95738 2.2944 4.72981 2.25005 4.5 2.25005C4.03587 2.25005 3.59075 2.43071 3.26256 2.75228C2.93437 3.07385 2.75 3.51 2.75 3.96477C2.75 4.41954 2.93437 4.85569 3.26256 5.17726C3.59075 5.49883 4.03587 5.67949 4.5 5.67949Z" fill="#575757"/>
</svg>
