<svg width="18" height="18" viewBox="0 0 18 18" fill="none" xmlns="http://www.w3.org/2000/svg">
<path id="Vector" d="M9.09994 17.4759C8.88992 17.4759 8.68851 17.3925 8.54 17.244C8.3915 17.0954 8.30807 16.894 8.30807 16.684V14.3084H5.1406C4.72057 14.3084 4.31774 14.1415 4.02074 13.8445C3.72373 13.5475 3.55687 13.1447 3.55687 12.7246V4.80592C3.55687 4.38589 3.72373 3.98306 4.02074 3.68605C4.31774 3.38904 4.72057 3.22218 5.1406 3.22218H16.2267C16.6468 3.22218 17.0496 3.38904 17.3466 3.68605C17.6436 3.98306 17.8105 4.38589 17.8105 4.80592V12.7246C17.8105 13.1447 17.6436 13.5475 17.3466 13.8445C17.0496 14.1415 16.6468 14.3084 16.2267 14.3084H12.9801L10.0502 17.2462C9.8918 17.3888 9.70175 17.4759 9.49587 17.4759H9.09994ZM1.97314 11.1409H0.389404V1.63843C0.389404 1.2184 0.556261 0.815566 0.853269 0.518556C1.15028 0.221546 1.55311 0.0546875 1.97314 0.0546875H14.643V1.63843H1.97314V11.1409Z" fill="#5B3200"/>
</svg>
