<svg width="15" height="20" viewBox="0 0 15 20" fill="none" xmlns="http://www.w3.org/2000/svg">
<path id="Vector" d="M7.47497 14.9669L12.3349 7.58273C11.2163 7.36481 10.1514 6.92936 9.20057 6.30111C8.24707 5.67621 7.4256 4.87011 6.78281 3.92858L1.92291 11.3128C1.54376 11.8888 1.35386 12.1774 1.20284 12.4829C1.02471 12.8437 0.886127 13.2226 0.789512 13.6131C0.708428 13.944 0.66786 14.2871 0.586382 14.9719L0.155744 18.584C0.135757 18.7494 0.162312 18.9172 0.232423 19.0684C0.302534 19.2195 0.413422 19.3482 0.552623 19.4398C0.691823 19.5314 0.853818 19.5824 1.0204 19.587C1.18698 19.5916 1.35154 19.5496 1.49559 19.4658L4.64286 17.6417C5.24033 17.2959 5.53866 17.123 5.81044 16.9177C6.13243 16.6742 6.42396 16.3986 6.68502 16.0911C6.90593 15.8315 7.09583 15.543 7.47497 14.9669ZM13.6833 5.53401C14.1678 4.79776 14.3401 3.89916 14.1621 3.03591C13.9841 2.17265 13.4705 1.41545 12.7343 0.930878C11.998 0.446306 11.0994 0.274058 10.2362 0.452026C9.37295 0.629994 8.61575 1.1436 8.13118 1.87985L7.54833 2.76544L7.59873 2.85083C8.17389 3.8116 8.95971 4.6292 9.89693 5.24198C10.8583 5.87894 11.9554 6.28222 13.1004 6.4196L13.6833 5.53401Z" fill="#989898"/>
</svg>
