<svg width="18" height="18" viewBox="0 0 18 18" fill="none" xmlns="http://www.w3.org/2000/svg">
<path id="Vector" d="M9.10018 17.4759C8.89016 17.4759 8.68875 17.3925 8.54025 17.244C8.39174 17.0954 8.30831 16.894 8.30831 16.684V14.3084H5.14085C4.72082 14.3084 4.31799 14.1415 4.02098 13.8445C3.72397 13.5475 3.55711 13.1447 3.55711 12.7246V4.80592C3.55711 4.38589 3.72397 3.98306 4.02098 3.68605C4.31799 3.38904 4.72082 3.22218 5.14085 3.22218H16.227C16.647 3.22218 17.0498 3.38904 17.3468 3.68605C17.6439 3.98306 17.8107 4.38589 17.8107 4.80592V12.7246C17.8107 13.1447 17.6439 13.5475 17.3468 13.8445C17.0498 14.1415 16.647 14.3084 16.227 14.3084H12.9803L10.0504 17.2462C9.89205 17.3888 9.702 17.4759 9.49611 17.4759H9.10018ZM1.97338 11.1409H0.389648V1.63843C0.389648 1.2184 0.556506 0.815566 0.853513 0.518556C1.15052 0.221546 1.55335 0.0546875 1.97338 0.0546875H14.6432V1.63843H1.97338V11.1409Z" fill="#989898"/>
</svg>
