<svg width="15" height="20" viewBox="0 0 15 20" fill="none" xmlns="http://www.w3.org/2000/svg">
<path id="Vector" d="M7.9751 14.9669L12.835 7.58273C11.7164 7.36481 10.6515 6.92936 9.70069 6.30111C8.7472 5.67621 7.92573 4.87011 7.28294 3.92858L2.42303 11.3128C2.04388 11.8888 1.85398 12.1774 1.70296 12.4829C1.52483 12.8437 1.38625 13.2226 1.28963 13.6131C1.20855 13.944 1.16798 14.2871 1.0865 14.9719L0.655866 18.584C0.635879 18.7494 0.662434 18.9172 0.732545 19.0684C0.802656 19.2195 0.913544 19.3482 1.05274 19.4398C1.19195 19.5314 1.35394 19.5824 1.52052 19.587C1.6871 19.5916 1.85166 19.5496 1.99571 19.4658L5.14298 17.6417C5.74046 17.2959 6.03878 17.123 6.31056 16.9177C6.63255 16.6742 6.92408 16.3986 7.18515 16.0911C7.40605 15.8315 7.59595 15.543 7.9751 14.9669ZM14.1834 5.53401C14.6679 4.79776 14.8402 3.89916 14.6622 3.03591C14.4843 2.17265 13.9707 1.41545 13.2344 0.930878C12.4982 0.446306 11.5996 0.274058 10.7363 0.452026C9.87307 0.629994 9.11587 1.1436 8.6313 1.87985L8.04846 2.76544L8.09885 2.85083C8.67401 3.8116 9.45983 4.6292 10.397 5.24198C11.3584 5.87894 12.4555 6.28222 13.6005 6.4196L14.1834 5.53401Z" fill="#5B3200"/>
</svg>
