<svg width="332" height="63" viewBox="0 0 332 63" fill="none" xmlns="http://www.w3.org/2000/svg">
<mask id="mask0_572_6456" style="mask-type:alpha" maskUnits="userSpaceOnUse" x="19" y="0" width="294" height="41">
<rect x="19" y="0.850098" width="294" height="40" rx="10" fill="white"/>
</mask>
<g mask="url(#mask0_572_6456)">
<path fill-rule="evenodd" clip-rule="evenodd" d="M36.856 51.5537C33.5522 52.8948 29.8751 53.6426 26 53.6426C11.6406 53.6426 0 43.3738 0 30.7067C0 18.0395 11.6406 7.77075 26 7.77075C35.3604 7.77075 43.5655 12.1342 48.144 18.6812C51.4478 17.3402 55.1249 16.5923 59 16.5923C66.1785 16.5923 72.6775 19.1586 77.3824 23.308C80.8715 14.2712 90.5752 7.77075 102 7.77075C112.881 7.77075 122.2 13.6667 126.077 22.0345C130.818 17.5976 137.543 14.8279 145 14.8279C152.832 14.8279 159.855 17.8827 164.622 22.7153C168.299 13.9883 177.827 7.77075 189 7.77075C199.607 7.77075 208.73 13.3734 212.774 21.4069C217.466 17.3379 223.901 14.8279 231 14.8279C237.096 14.8279 242.702 16.6787 247.136 19.778C251.538 12.6261 260.126 7.77075 270 7.77075C276.986 7.77075 283.328 10.2013 288 14.156C292.672 10.2013 299.014 7.77075 306 7.77075C320.359 7.77075 332 18.0395 332 30.7067C332 43.3738 320.359 53.6426 306 53.6426C299.014 53.6426 292.672 51.2121 288 47.2573C283.328 51.2121 276.986 53.6426 270 53.6426C263.904 53.6426 258.298 51.7918 253.864 48.6925C249.462 55.8444 240.874 60.6998 231 60.6998C220.393 60.6998 211.27 55.0971 207.226 47.0636C202.534 51.1326 196.099 53.6426 189 53.6426C181.168 53.6426 174.145 50.5878 169.378 45.7553C165.701 54.4823 156.173 60.6998 145 60.6998C134.119 60.6998 124.8 54.8038 120.923 46.436C116.182 50.8729 109.457 53.6426 102 53.6426C94.8215 53.6426 88.3225 51.0763 83.6176 46.9269C80.1285 55.9637 70.4248 62.4641 59 62.4641C49.6396 62.4641 41.4345 58.1007 36.856 51.5537Z" fill="url(#paint0_linear_572_6456)"/>
</g>
<defs>
<linearGradient id="paint0_linear_572_6456" x1="0" y1="35.1174" x2="332" y2="35.1174" gradientUnits="userSpaceOnUse">
<stop stop-color="#43804F"/>
<stop offset="1" stop-color="#29A541"/>
</linearGradient>
</defs>
</svg>
