<svg width="7" height="12" viewBox="0 0 7 12" fill="none" xmlns="http://www.w3.org/2000/svg">
<path id="Vector" fill-rule="evenodd" clip-rule="evenodd" d="M6.05608 5.23447C6.20606 5.38449 6.29031 5.58794 6.29031 5.80007C6.29031 6.0122 6.20606 6.21565 6.05608 6.36567L1.53048 10.8913C1.45669 10.9677 1.36841 11.0286 1.27081 11.0705C1.17321 11.1125 1.06823 11.1345 0.962006 11.1355C0.855782 11.1364 0.750439 11.1161 0.652122 11.0759C0.553804 11.0357 0.464482 10.9763 0.389369 10.9012C0.314254 10.8261 0.254852 10.7367 0.214627 10.6384C0.174402 10.5401 0.154161 10.4348 0.155084 10.3285C0.156007 10.2223 0.178076 10.1173 0.220004 10.0197C0.26193 9.92214 0.322876 9.83386 0.399284 9.76007L4.35928 5.80007L0.399284 1.84007C0.253558 1.68918 0.172922 1.4871 0.174745 1.27735C0.176568 1.06759 0.260703 0.866939 0.409029 0.718613C0.557356 0.570286 0.758006 0.486151 0.967763 0.484327C1.17752 0.482505 1.3796 0.56314 1.53048 0.708867L6.05608 5.23447Z" fill="black"/>
</svg>
