<svg width="54" height="69" viewBox="0 0 54 69" fill="none" xmlns="http://www.w3.org/2000/svg">
<path d="M28.0396 67.0501C27.5777 67.8501 26.423 67.8501 25.9612 67.0501L17.5174 52.4251C17.0555 51.6251 17.6329 50.6251 18.5566 50.6251L35.4441 50.6251C36.3679 50.6251 36.9452 51.6251 36.4834 52.4251L28.0396 67.0501Z" fill="#FFFED3"/>
<rect width="54" height="54" rx="12" fill="#FFFED3"/>
<mask id="mask0_271_3835" style="mask-type:alpha" maskUnits="userSpaceOnUse" x="0" y="0" width="54" height="54">
<rect width="54" height="54" rx="12" fill="#FFFED3"/>
</mask>
<g mask="url(#mask0_271_3835)">
<path d="M35.2129 17.4927V-2.30029H48.6189V17.4927L42.1989 14.0571L35.2129 17.4927Z" fill="#FF6669"/>
</g>
<path d="M38.2775 5.76331C39.3038 5.76331 39.8963 6.3082 39.8963 7.59372V7.81062C39.8963 8.39254 39.7747 8.82105 39.5472 9.1173L39.854 9.41885C39.9651 9.52994 39.9334 9.67278 39.8223 9.78387C39.7165 9.88968 39.5736 9.92142 39.4625 9.81032L39.1187 9.47175C38.8912 9.58284 38.6108 9.64104 38.2775 9.64104C37.2512 9.64104 36.6587 9.09614 36.6587 7.81062V7.59372C36.6587 6.3082 37.2512 5.76331 38.2775 5.76331ZM38.2775 6.38226C37.6586 6.38226 37.3412 6.68909 37.3412 7.64662V7.75772C37.3412 8.71525 37.6586 9.02208 38.2775 9.02208C38.4151 9.02208 38.5315 9.00621 38.6214 8.97976L38.3093 8.66764C38.1982 8.55654 38.2299 8.4137 38.3357 8.3079C38.4468 8.19681 38.5896 8.16506 38.7007 8.27616L39.0552 8.6306C39.161 8.42958 39.2139 8.14919 39.2139 7.75772V7.64662C39.2139 6.68909 38.8965 6.38226 38.2775 6.38226ZM41.8107 5.76331C42.4667 5.76331 42.8105 6.16007 42.8105 6.61503V6.65735C42.8105 6.98006 42.6465 7.31863 42.1387 7.59901L42.7788 8.29732C42.837 8.13332 42.8687 7.95346 42.8687 7.76301C42.8687 7.57785 43.0169 7.48792 43.1809 7.49321C43.3501 7.4985 43.4824 7.58843 43.4824 7.77359C43.4824 8.11216 43.3819 8.46132 43.202 8.76286L43.5194 9.11201C43.657 9.26543 43.6147 9.43472 43.4877 9.54052C43.3607 9.64633 43.1809 9.65691 43.0539 9.51936L42.8 9.23898C42.5143 9.48762 42.144 9.64104 41.7049 9.64104C40.9537 9.64104 40.3612 9.29717 40.3612 8.60944V8.53538C40.3612 8.0381 40.6892 7.7154 41.2129 7.46147L41.0912 7.31863C40.9061 7.11231 40.8003 6.91128 40.8003 6.65206V6.58858C40.8003 6.11246 41.1706 5.76331 41.8107 5.76331ZM41.7102 9.05382C41.9958 9.05382 42.2339 8.96389 42.4191 8.81047L41.5885 7.87939C41.1706 8.10687 41.0224 8.30261 41.0224 8.54596V8.59357C41.0224 8.87395 41.324 9.05382 41.7102 9.05382ZM41.4351 6.64148C41.4351 6.77374 41.562 6.96418 41.726 7.14405L41.7737 7.19695C42.0435 7.05941 42.1863 6.87425 42.1863 6.65735V6.63619C42.1863 6.4669 42.0487 6.31349 41.8107 6.31349C41.5356 6.31349 41.4351 6.46161 41.4351 6.61503V6.64148ZM45.6219 5.78976C45.8018 5.78976 45.9393 5.85853 46.0346 6.10188L47.2249 9.17021C47.3042 9.37123 47.209 9.53523 47.0344 9.58813C46.8598 9.64104 46.6641 9.62516 46.5847 9.39769L46.2779 8.55125H44.9448L44.6326 9.41885C44.5586 9.62516 44.3787 9.64633 44.2094 9.58813C44.0401 9.52994 43.9502 9.3924 44.0243 9.19666L45.2146 6.10188C45.3045 5.85853 45.4473 5.78976 45.6219 5.78976ZM45.6113 6.63619C45.5531 6.8478 45.5108 6.98006 45.4262 7.22341L45.1458 7.99049H46.0769L45.8018 7.22341C45.7119 6.97477 45.6642 6.82135 45.6113 6.63619Z" fill="white"/>
</svg>
