<svg width="14" height="16" viewBox="0 0 14 16" fill="none" xmlns="http://www.w3.org/2000/svg">
<path d="M8.04336 0.986164C7.77669 0.772222 7.44503 0.655624 7.10315 0.655624C6.76127 0.655624 6.42961 0.772222 6.16294 0.986164L0.987792 5.13764C0.812313 5.27842 0.67069 5.45681 0.573375 5.65965C0.476059 5.86248 0.425537 6.08458 0.425537 6.30956V13.8419C0.425537 14.2404 0.583832 14.6225 0.865598 14.9043C1.14736 15.1861 1.52952 15.3444 1.928 15.3444H3.5974C3.99588 15.3444 4.37804 15.1861 4.6598 14.9043C4.94157 14.6225 5.09987 14.2404 5.09987 13.8419V10.1692C5.09987 9.70846 5.47381 9.33452 5.93457 9.33452H8.27173C8.73249 9.33452 9.10643 9.70846 9.10643 10.1692V13.8419C9.10643 14.2404 9.26473 14.6225 9.54649 14.9043C9.82826 15.1861 10.2104 15.3444 10.6089 15.3444H12.2783C12.6768 15.3444 13.0589 15.1861 13.3407 14.9043C13.6225 14.6225 13.7808 14.2404 13.7808 13.8419V6.30956C13.7808 6.08458 13.7302 5.86248 13.6329 5.65965C13.5356 5.45681 13.394 5.27842 13.2185 5.13764L8.04336 0.986164Z" fill="black"/>
</svg>
