<svg width="12" height="16" viewBox="0 0 12 16" fill="none" xmlns="http://www.w3.org/2000/svg">
<path fill-rule="evenodd" clip-rule="evenodd" d="M5.4465 15.7825C5.4465 15.7825 0 10.9883 0 6.27097C0 4.60781 0.632141 3.01276 1.75736 1.83673C2.88258 0.66069 4.4087 0 6 0C7.5913 0 9.11742 0.66069 10.2426 1.83673C11.3679 3.01276 12 4.60781 12 6.27097C12 10.9883 6.5535 15.7825 6.5535 15.7825C6.2505 16.0741 5.75175 16.0709 5.4465 15.7825ZM6 9.01452C6.34472 9.01452 6.68606 8.94356 7.00454 8.80568C7.32302 8.66781 7.6124 8.46572 7.85616 8.21096C8.09991 7.95619 8.29327 7.65375 8.42518 7.32089C8.5571 6.98802 8.625 6.63126 8.625 6.27097C8.625 5.91069 8.5571 5.55393 8.42518 5.22106C8.29327 4.8882 8.09991 4.58575 7.85616 4.33099C7.6124 4.07623 7.32302 3.87414 7.00454 3.73626C6.68606 3.59839 6.34472 3.52742 6 3.52742C5.30381 3.52742 4.63613 3.81647 4.14384 4.33099C3.65156 4.84551 3.375 5.54334 3.375 6.27097C3.375 6.99861 3.65156 7.69644 4.14384 8.21096C4.63613 8.72547 5.30381 9.01452 6 9.01452Z" fill="#232323"/>
</svg>
