<svg width="34" height="34" viewBox="0 0 34 34" fill="none" xmlns="http://www.w3.org/2000/svg">
<rect width="33.8941" height="34" rx="16.947" fill="white"/>
<path d="M15.5447 6.97259C15.9371 6.64185 16.4338 6.46045 16.947 6.46045C17.4603 6.46045 17.957 6.64185 18.3494 6.97259L24.8777 12.4776C25.368 12.8916 25.6514 13.4999 25.6514 14.1411V23.1453C25.6514 23.5942 25.4731 24.0247 25.1557 24.3421C24.8383 24.6595 24.4078 24.8378 23.9589 24.8378H20.5739C20.125 24.8378 19.6945 24.6595 19.3771 24.3421C19.0597 24.0247 18.8814 23.5942 18.8814 23.1453V18.3028C18.8814 18.2387 18.8559 18.1772 18.8105 18.1318C18.7652 18.0865 18.7037 18.061 18.6396 18.061H15.2545C15.1904 18.061 15.1289 18.0865 15.0836 18.1318C15.0382 18.1772 15.0127 18.2387 15.0127 18.3028V23.1453C15.0127 23.5942 14.8344 24.0247 14.517 24.3421C14.1996 24.6595 13.7691 24.8378 13.3202 24.8378H9.93519C9.71293 24.8378 9.49284 24.7941 9.28749 24.709C9.08215 24.6239 8.89557 24.4993 8.7384 24.3421C8.58124 24.1849 8.45657 23.9984 8.37151 23.793C8.28645 23.5877 8.24268 23.3676 8.24268 23.1453V14.1411C8.24268 13.4999 8.52605 12.8916 9.0164 12.4776L15.5447 6.97259ZM17.4142 8.08191C17.2834 7.97184 17.118 7.91147 16.947 7.91147C16.7761 7.91147 16.6107 7.97184 16.4799 8.08191L9.95163 13.586C9.87085 13.654 9.80588 13.7388 9.76128 13.8345C9.71668 13.9303 9.69351 14.0346 9.6934 14.1402V23.1443C9.6934 23.2778 9.80173 23.3861 9.93519 23.3861H13.3202C13.3844 23.3861 13.4459 23.3607 13.4912 23.3153C13.5365 23.27 13.562 23.2085 13.562 23.1443V18.3018C13.562 17.3666 14.3203 16.6093 15.2545 16.6093H18.6396C19.5738 16.6093 20.3321 17.3666 20.3321 18.3018V23.1443C20.3321 23.2778 20.4404 23.3861 20.5739 23.3861H23.9589C24.023 23.3861 24.0845 23.3607 24.1299 23.3153C24.1752 23.27 24.2007 23.2085 24.2007 23.1443V14.1402C24.2006 14.0346 24.1774 13.9303 24.1328 13.8345C24.0882 13.7388 24.0233 13.654 23.9425 13.586L17.4142 8.08191Z" fill="#5B3200"/>
</svg>
