<svg width="35" height="34" viewBox="0 0 35 34" fill="none" xmlns="http://www.w3.org/2000/svg">
<rect x="0.968018" width="33.8941" height="34" rx="16.947" fill="white"/>
<path d="M16.7607 7.27323C17.1665 6.94928 17.68 6.77161 18.2107 6.77161C18.7413 6.77161 19.2549 6.94928 19.6607 7.27323L26.4107 12.6652C26.9177 13.0707 27.2107 13.6665 27.2107 14.2946V23.1138C27.2107 23.5535 27.0263 23.9752 26.6981 24.2861C26.3699 24.5969 25.9248 24.7716 25.4607 24.7716H21.9607C21.4966 24.7716 21.0514 24.5969 20.7233 24.2861C20.3951 23.9752 20.2107 23.5535 20.2107 23.1138V18.3708C20.2107 18.3079 20.1844 18.2477 20.1375 18.2033C20.0906 18.1589 20.027 18.1339 19.9607 18.1339H16.4607C16.3944 18.1339 16.3308 18.1589 16.2839 18.2033C16.237 18.2477 16.2107 18.3079 16.2107 18.3708V23.1138C16.2107 23.5535 16.0263 23.9752 15.6981 24.2861C15.3699 24.5969 14.9248 24.7716 14.4607 24.7716H10.9607C10.7309 24.7716 10.5033 24.7287 10.291 24.6454C10.0787 24.5621 9.88576 24.44 9.72326 24.2861C9.56075 24.1321 9.43185 23.9494 9.3439 23.7482C9.25596 23.5471 9.21069 23.3315 9.21069 23.1138V14.2946C9.21069 13.6665 9.50369 13.0707 10.0107 12.6652L16.7607 7.27323ZM18.6937 8.35977C18.5585 8.25196 18.3874 8.19283 18.2107 8.19283C18.034 8.19283 17.8629 8.25196 17.7277 8.35977L10.9777 13.7508C10.8942 13.8174 10.827 13.9005 10.7809 13.9943C10.7348 14.088 10.7108 14.1902 10.7107 14.2936V23.1129C10.7107 23.2436 10.8227 23.3497 10.9607 23.3497H14.4607C14.527 23.3497 14.5906 23.3248 14.6375 23.2804C14.6844 23.2359 14.7107 23.1757 14.7107 23.1129V18.3698C14.7107 17.4538 15.4947 16.712 16.4607 16.712H19.9607C20.9267 16.712 21.7107 17.4538 21.7107 18.3698V23.1129C21.7107 23.2436 21.8227 23.3497 21.9607 23.3497H25.4607C25.527 23.3497 25.5906 23.3248 25.6375 23.2804C25.6844 23.2359 25.7107 23.1757 25.7107 23.1129V14.2936C25.7106 14.1902 25.6866 14.088 25.6405 13.9943C25.5944 13.9005 25.5272 13.8174 25.4437 13.7508L18.6937 8.35977Z" fill="#5B3200"/>
</svg>
