<svg width="34" height="34" viewBox="0 0 34 34" fill="none" xmlns="http://www.w3.org/2000/svg">
<rect width="33.8941" height="34" rx="16.947" fill="#E3B05F"/>
<path d="M15.497 7.27323C15.9028 6.94928 16.4164 6.77161 16.947 6.77161C17.4777 6.77161 17.9913 6.94928 18.397 7.27323L25.147 12.6652C25.654 13.0707 25.947 13.6665 25.947 14.2946V23.1138C25.947 23.5535 25.7626 23.9752 25.4345 24.2861C25.1063 24.5969 24.6611 24.7716 24.197 24.7716H20.697C20.2329 24.7716 19.7878 24.5969 19.4596 24.2861C19.1314 23.9752 18.947 23.5535 18.947 23.1138V18.3708C18.947 18.3079 18.9207 18.2477 18.8738 18.2033C18.8269 18.1589 18.7633 18.1339 18.697 18.1339H15.197C15.1307 18.1339 15.0671 18.1589 15.0202 18.2033C14.9734 18.2477 14.947 18.3079 14.947 18.3708V23.1138C14.947 23.5535 14.7626 23.9752 14.4345 24.2861C14.1063 24.5969 13.6611 24.7716 13.197 24.7716H9.69702C9.46721 24.7716 9.23965 24.7287 9.02733 24.6454C8.81501 24.5621 8.62209 24.44 8.45958 24.2861C8.29708 24.1321 8.16818 23.9494 8.08023 23.7482C7.99229 23.5471 7.94702 23.3315 7.94702 23.1138V14.2946C7.94702 13.6665 8.24002 13.0707 8.74702 12.6652L15.497 7.27323ZM17.43 8.35977C17.2948 8.25196 17.1238 8.19283 16.947 8.19283C16.7703 8.19283 16.5992 8.25196 16.464 8.35977L9.71402 13.7508C9.63049 13.8174 9.56332 13.9005 9.5172 13.9943C9.47108 14.088 9.44713 14.1902 9.44702 14.2936V23.1129C9.44702 23.2436 9.55902 23.3497 9.69702 23.3497H13.197C13.2633 23.3497 13.3269 23.3248 13.3738 23.2804C13.4207 23.2359 13.447 23.1757 13.447 23.1129V18.3698C13.447 17.4538 14.231 16.712 15.197 16.712H18.697C19.663 16.712 20.447 17.4538 20.447 18.3698V23.1129C20.447 23.2436 20.559 23.3497 20.697 23.3497H24.197C24.2633 23.3497 24.3269 23.3248 24.3738 23.2804C24.4207 23.2359 24.447 23.1757 24.447 23.1129V14.2936C24.4469 14.1902 24.423 14.088 24.3768 13.9943C24.3307 13.9005 24.2636 13.8174 24.18 13.7508L17.43 8.35977Z" fill="white"/>
</svg>
