<svg width="44" height="44" viewBox="0 0 44 44" fill="none" xmlns="http://www.w3.org/2000/svg">
<rect x="0.75" y="0.75" width="42.5" height="42.5" rx="21.25" fill="#FFFED3"/>
<rect x="0.75" y="0.75" width="42.5" height="42.5" rx="21.25" stroke="#E3B05F" stroke-width="1.5"/>
<path d="M28.45 21.92C29.1263 21.92 29.7749 22.1855 30.2531 22.6581C30.7313 23.1307 31 23.7717 31 24.44V25.28C31 28.5913 27.838 32 22.5 32C17.162 32 14 28.5913 14 25.28V24.44C14 23.7717 14.2687 23.1307 14.7469 22.6581C15.2251 22.1855 15.8737 21.92 16.55 21.92H28.45ZM28.45 23.6H16.55C16.3246 23.6 16.1084 23.6885 15.949 23.846C15.7896 24.0036 15.7 24.2172 15.7 24.44V25.28C15.7 27.6958 18.1344 30.32 22.5 30.32C26.8656 30.32 29.3 27.6958 29.3 25.28V24.44C29.3 24.2172 29.2104 24.0036 29.051 23.846C28.8916 23.6885 28.6754 23.6 28.45 23.6ZM22.5 11C23.7399 11 24.929 11.4867 25.8057 12.3532C26.6825 13.2196 27.175 14.3947 27.175 15.62C27.175 16.8453 26.6825 18.0204 25.8057 18.8868C24.929 19.7533 23.7399 20.24 22.5 20.24C21.2601 20.24 20.071 19.7533 19.1943 18.8868C18.3175 18.0204 17.825 16.8453 17.825 15.62C17.825 14.3947 18.3175 13.2196 19.1943 12.3532C20.071 11.4867 21.2601 11 22.5 11ZM22.5 12.68C21.711 12.68 20.9543 12.9897 20.3964 13.5411C19.8384 14.0925 19.525 14.8403 19.525 15.62C19.525 16.3997 19.8384 17.1475 20.3964 17.6989C20.9543 18.2503 21.711 18.56 22.5 18.56C23.289 18.56 24.0457 18.2503 24.6036 17.6989C25.1616 17.1475 25.475 16.3997 25.475 15.62C25.475 14.8403 25.1616 14.0925 24.6036 13.5411C24.0457 12.9897 23.289 12.68 22.5 12.68Z" fill="#5B3200"/>
</svg>
