<svg width="44" height="44" viewBox="0 0 44 44" fill="none" xmlns="http://www.w3.org/2000/svg">
<rect x="0.75" y="0.75" width="42.5" height="42.5" rx="21.25" fill="#FFFED3"/>
<rect x="0.75" y="0.75" width="42.5" height="42.5" rx="21.25" stroke="#E3B05F" stroke-width="1.5"/>
<path d="M24.9718 30.7244C25.3727 30.7257 25.7684 30.6337 26.1276 30.4557C26.1328 30.4532 26.138 30.4506 26.1431 30.448V30.8696L27.0398 29.7012C27.2841 29.3828 27.4509 29.012 27.527 28.6181C27.603 28.2245 27.5864 27.8185 27.4785 27.4325C27.4784 27.4321 27.4783 27.4318 27.4782 27.4315L26.6805 24.5397C26.3979 23.5152 25.787 22.6118 24.9415 21.968C24.096 21.3242 23.0627 20.9755 22 20.9755C20.9373 20.9755 19.9039 21.3242 19.0585 21.968C18.213 22.6118 17.6021 23.5152 17.3195 24.5397L16.5213 27.4333C16.4148 27.8193 16.3989 28.2246 16.4748 28.6177C16.5508 29.0109 16.7165 29.3811 16.9591 29.6997C17.2016 30.0182 17.5145 30.2764 17.8733 30.4542C18.232 30.6319 18.627 30.7244 19.0274 30.7244H24.9718ZM24.9718 30.7244C24.9715 30.7244 24.9711 30.7244 24.9707 30.7244L24.9726 30.2244V30.7244H24.9718ZM21.4879 14.9843C21.8636 16.7129 20.9692 18.3801 19.494 18.7008C19.326 18.7374 19.1546 18.7558 18.9827 18.7559M21.4879 14.9843L17.6563 17.7612C17.1513 17.3574 16.7799 16.7496 16.6259 16.0412L16.6259 16.0412C16.2924 14.507 17.1018 13.1664 18.2374 12.9196L18.2374 12.9196C18.818 12.7933 19.4302 12.9399 19.9688 13.3706C20.4739 13.7744 20.8454 14.3822 20.9993 15.0905L20.9993 15.0905C21.3328 16.6248 20.5234 17.9653 19.3878 18.2122L19.3876 18.2122C19.2545 18.2412 19.1188 18.2559 18.9826 18.2559L18.9827 18.7559M21.4879 14.9843C21.3116 14.1731 20.883 13.4613 20.2811 12.9801L21.4879 14.9843ZM18.9827 18.7559C18.4087 18.756 17.8411 18.549 17.3441 18.1517M18.9827 18.7559L18.9825 18.2559M17.3441 18.1517L18.9825 18.2559M17.3441 18.1517L17.6564 17.7612C18.0732 18.0944 18.5326 18.2559 18.9825 18.2559M17.3441 18.1517L18.9825 18.2559M17.3441 18.1517C16.7422 17.6705 16.3136 16.9587 16.1373 16.1474L17.3441 18.1517ZM22.5121 14.9843C22.6884 14.1731 23.117 13.4613 23.7189 12.9801C24.3635 12.4648 25.127 12.2698 25.8688 12.4311M22.5121 14.9843L25.0173 18.2559C24.8812 18.2559 24.7454 18.2412 24.6124 18.2122L24.6122 18.2122C23.4766 17.9653 22.6672 16.6248 23.0007 15.0905L23.0007 15.0905C23.1546 14.3822 23.5261 13.7744 24.0311 13.3706L24.0312 13.3706C24.5698 12.94 25.182 12.7934 25.7626 12.9197L25.8688 12.4311M22.5121 14.9843C22.1363 16.7129 23.0308 18.3801 24.506 18.7008L22.5121 14.9843ZM25.8688 12.4311L25.7626 12.9197C26.8981 13.1665 27.7076 14.507 27.3741 16.0412C27.2201 16.7496 26.8486 17.3574 26.3436 17.7612L26.3436 17.7612C25.927 18.0944 25.4675 18.2559 25.0175 18.2559L25.8688 12.4311ZM29.2418 22.7271C29.242 22.7271 29.2422 22.7271 29.2423 22.7271L29.2442 23.2271C29.5865 23.225 29.9254 23.1602 30.2443 23.0359C30.9642 22.7609 31.5893 22.2135 32.0044 21.4945L29.2418 22.7271ZM29.2418 22.7271C29.5227 22.7253 29.801 22.6721 30.0627 22.57L30.0659 22.5688C30.67 22.338 31.2089 21.8723 31.5714 21.2445L31.5714 21.2445C32.3565 19.8848 31.9939 18.3614 30.9875 17.7803C30.4729 17.4832 29.8451 17.4364 29.201 17.6824C28.5969 17.9132 28.0579 18.3789 27.6955 19.0067C27.3331 19.6345 27.1992 20.3341 27.3013 20.9727C27.4103 21.6536 27.7647 22.1737 28.2794 22.4708L28.2795 22.4709C28.572 22.6399 28.904 22.7283 29.2418 22.7271ZM12.4287 21.2444L12.4287 21.2445C12.7911 21.8723 13.3301 22.338 13.9341 22.5688L13.9374 22.57C14.199 22.672 14.4771 22.7253 14.758 22.7271C15.0959 22.7282 15.428 22.6398 15.7206 22.4708C16.2351 22.1737 16.5896 21.6536 16.6988 20.9727L12.4287 21.2444ZM12.4287 21.2444C11.6435 19.8848 12.0061 18.3615 13.0124 17.7804L12.4287 21.2444ZM16.3039 20.9093L16.3039 20.9095C16.2228 21.4157 15.9628 21.8693 15.5207 22.1246C15.0785 22.3799 14.5557 22.3781 14.0768 22.1953L14.0767 22.1953C13.5347 21.9883 13.079 21.5715 12.7748 21.0446L12.7748 21.0446C12.4797 20.5334 12.3598 19.9585 12.419 19.4383C12.4779 18.9214 12.724 18.4086 13.2123 18.1266L13.2157 18.1247L13.2157 18.1247C13.4504 17.9916 13.7161 17.923 13.9859 17.9258C13.986 17.9258 13.986 17.9259 13.986 17.9259L13.9806 18.4258L16.3039 20.9093ZM16.3039 20.9093C16.3954 20.3366 16.2625 19.7334 15.9582 19.2064C15.6544 18.6802 15.1995 18.2639 14.6586 18.0566L16.3039 20.9093ZM18.3222 13.3103L18.3232 13.3101C18.4259 13.288 18.5307 13.2769 18.6358 13.277M18.3222 13.3103L17.906 17.4491C18.3065 17.7693 18.804 17.9301 19.3029 17.8217L19.3029 17.8217C19.8539 17.7019 20.2446 17.2885 20.4581 16.8141C20.6731 16.3367 20.734 15.7526 20.6086 15.1757C20.4794 14.5811 20.1722 14.0453 19.7192 13.6831C19.4036 13.4308 19.0289 13.2771 18.6358 13.277M18.3222 13.3103C17.7712 13.4301 17.3806 13.8435 17.167 14.3179C16.9521 14.7954 16.8912 15.3795 17.0166 15.9565L18.3222 13.3103ZM18.6358 13.277C18.6357 13.277 18.6356 13.277 18.6354 13.277V13.777L18.6363 13.277C18.6361 13.277 18.636 13.277 18.6358 13.277ZM27.6962 20.9096L27.6962 20.9094C27.6045 20.3367 27.7375 19.7336 28.0419 19.2067C28.3456 18.6809 28.8004 18.2644 29.3414 18.057C29.5557 17.973 29.7836 17.9286 30.0139 17.9261L30.014 17.9261C30.2838 17.9232 30.5496 17.9918 30.7843 18.1249L30.7875 18.1267C31.2759 18.4086 31.5221 18.9213 31.581 19.4382C31.6402 19.9584 31.5204 20.5333 31.2252 21.0446L30.7922 20.7946L31.2252 21.0446C30.921 21.5715 30.4653 21.9882 29.9234 22.1952L27.6962 20.9096ZM27.6962 20.9096C27.7774 21.4157 28.0372 21.8691 28.4793 22.1245C28.9215 22.3799 29.4444 22.3783 29.9233 22.1953L27.6962 20.9096ZM25.6778 13.3101L25.6768 13.3099C25.5739 13.2877 25.469 13.2766 25.3637 13.2768L25.3645 13.7768V13.2768C24.9713 13.2768 24.5966 13.4305 24.2808 13.6829C23.8276 14.045 23.5206 14.581 23.3914 15.1755C23.266 15.7523 23.3269 16.3364 23.5419 16.8139C23.7554 17.2882 24.1462 17.7016 24.6973 17.8213L24.8034 17.3327L24.6973 17.8213C25.1964 17.9296 25.6936 17.7689 26.094 17.4487C26.5471 17.0866 26.8542 16.5506 26.9834 15.9561L26.9834 15.9561C27.1088 15.3793 27.0479 14.7952 26.8329 14.3177C26.6194 13.8434 26.2288 13.4299 25.6778 13.3101ZM25.1837 21.6499C26.0988 22.3467 26.76 23.3245 27.0659 24.4333L27.8641 27.327C27.9869 27.7723 28.0053 28.24 27.9177 28.6936C27.83 29.1472 27.6388 29.5744 27.359 29.9419C27.0791 30.3094 26.7181 30.6073 26.3042 30.8124C25.8903 31.0175 25.4345 31.1242 24.9726 31.1242H19.0274C18.5654 31.1242 18.1097 31.0175 17.6958 30.8124C17.2819 30.6073 16.9209 30.3094 16.641 29.9419C16.3611 29.5744 16.1699 29.1472 16.0823 28.6936C15.9947 28.24 16.013 27.7723 16.1359 27.327L16.9341 24.4333C17.24 23.3245 17.9012 22.3467 18.8163 21.6499C19.7314 20.9531 20.8498 20.5757 22 20.5757C23.1502 20.5757 24.2686 20.9531 25.1837 21.6499ZM16.3046 19.0068C16.6671 19.6344 16.801 20.3338 16.6988 20.9725L13.0125 17.7803C13.5273 17.4832 14.1548 17.4364 14.7989 17.6824C15.4031 17.9133 15.942 18.379 16.3046 19.0068ZM17.0166 15.9565C17.1458 16.5511 17.453 17.0869 17.906 17.4491L17.0166 15.9565Z" fill="#5B3200" stroke="#5B3200"/>
</svg>
