<svg width="45" height="44" viewBox="0 0 45 44" fill="none" xmlns="http://www.w3.org/2000/svg">
<rect x="1.05283" y="0.75" width="42.5" height="42.5" rx="21.25" fill="#FFFED3"/>
<rect x="1.05283" y="0.75" width="42.5" height="42.5" rx="21.25" stroke="#E3B05F" stroke-width="1.5"/>
<path d="M26.4459 30.448C26.4408 30.4506 26.4356 30.4532 26.4304 30.4557C26.071 30.6338 25.6751 30.7258 25.2741 30.7244H25.2754V30.2245L25.2735 30.7244L26.4459 30.448ZM26.4459 30.448V30.8696L27.3426 29.7011C27.5869 29.3828 27.7537 29.012 27.8298 28.6181C27.9058 28.2245 27.8892 27.8186 27.7813 27.4325C27.7812 27.4322 27.7811 27.4318 27.781 27.4315L26.4459 30.448ZM22.8149 14.9843C22.9912 14.1731 23.4198 13.4613 24.0217 12.9801C24.6663 12.4648 25.4298 12.2698 26.1716 12.4311C27.6468 12.7517 28.5412 14.4189 28.1655 16.1474C27.9891 16.9587 27.5605 17.6705 26.9587 18.1517C26.4618 18.549 25.894 18.7559 25.3201 18.7559M22.8149 14.9843L25.3201 18.2559C25.184 18.2558 25.0482 18.2412 24.9152 18.2122L24.915 18.2122C23.7794 17.9653 22.97 16.6248 23.3035 15.0905L23.3035 15.0905C23.4574 14.3822 23.8289 13.7744 24.3339 13.3706L24.3339 13.3706C24.8726 12.94 25.4848 12.7934 26.0654 12.9197L26.1603 12.4832L26.0654 12.9197C27.2009 13.1665 28.0104 14.507 27.6769 16.0412C27.5229 16.7496 27.1514 17.3574 26.6464 17.7612L26.6464 17.7612C26.2298 18.0944 25.7703 18.2559 25.3203 18.2559L25.3201 18.7559M22.8149 14.9843C22.4391 16.7129 23.3336 18.3801 24.8088 18.7008M22.8149 14.9843L24.8088 18.7008M25.3201 18.7559C25.1482 18.7558 24.9767 18.7374 24.8088 18.7008M25.3201 18.7559L24.8088 18.7008M29.5446 22.7271C29.5448 22.7271 29.545 22.7271 29.5451 22.7271L29.547 23.2271C29.8893 23.225 30.2282 23.1602 30.5471 23.0359C31.267 22.7609 31.8921 22.2135 32.3072 21.4945L29.5446 22.7271ZM29.5446 22.7271C29.8255 22.7253 30.1038 22.6721 30.3655 22.57L30.3687 22.5688C30.9728 22.338 31.5117 21.8723 31.8742 21.2445L31.8742 21.2445C32.6593 19.8848 32.2967 18.3614 31.2903 17.7803C30.7757 17.4832 30.1479 17.4364 29.5038 17.6824C28.8997 17.9132 28.3607 18.3789 27.9983 19.0067C27.6359 19.6345 27.502 20.3341 27.6041 20.9726C27.7131 21.6536 28.0675 22.1737 28.5822 22.4708L28.5823 22.4709C28.8748 22.6399 29.2068 22.7283 29.5446 22.7271ZM12.7315 21.2444L12.7315 21.2445C13.0939 21.8723 13.6329 22.338 14.2369 22.5688L14.2402 22.57C14.5019 22.6721 14.7802 22.7253 15.0611 22.7271C15.3989 22.7282 15.7309 22.6398 16.0234 22.4708C16.5379 22.1737 16.8924 21.6536 17.0016 20.9727L12.7315 21.2444ZM12.7315 21.2444C11.9463 19.8848 12.3088 18.3615 13.3152 17.7804C13.8301 17.4832 14.4576 17.4364 15.1018 17.6824C15.7059 17.9133 16.2448 18.379 16.6074 19.0068C16.9699 19.6344 17.1037 20.3338 17.0016 20.9725L12.7315 21.2444ZM16.6067 20.9093L16.6067 20.9095C16.5256 21.4157 16.2656 21.8693 15.8235 22.1246C15.3812 22.3799 14.8585 22.3781 14.3796 22.1953L14.3795 22.1953C13.8375 21.9883 13.3818 21.5715 13.0776 21.0446L13.0776 21.0446C12.7825 20.5334 12.6626 19.9585 12.7218 19.4383C12.7807 18.9214 13.0268 18.4086 13.5151 18.1266L13.5185 18.1247L13.5185 18.1247C13.7532 17.9916 14.0189 17.923 14.2887 17.9258C14.2888 17.9258 14.2888 17.9259 14.2888 17.9259L14.2834 18.4258L16.6067 20.9093ZM16.6067 20.9093C16.6982 20.3366 16.5652 19.7334 16.261 19.2064C15.9572 18.6802 15.5023 18.2639 14.9614 18.0566L16.6067 20.9093ZM19.6904 18.2122L19.6906 18.2122C20.8262 17.9653 21.6356 16.6248 21.3021 15.0905L21.3021 15.0905C21.1482 14.3822 20.7767 13.7744 20.2716 13.3706C19.7329 12.9399 19.1208 12.7933 18.5402 12.9196L18.5402 12.9196C17.4046 13.1664 16.5952 14.507 16.9287 16.0412L16.9287 16.0412C17.0826 16.7496 17.4541 17.3574 17.9591 17.7612L19.6904 18.2122ZM19.6904 18.2122C19.5573 18.2412 19.4216 18.2559 19.2854 18.2559L19.6904 18.2122ZM18.625 13.3103L18.626 13.3101C18.7287 13.288 18.8335 13.2769 18.9386 13.277C19.3317 13.2771 19.7064 13.4308 20.022 13.6831C20.4751 14.0453 20.7822 14.5811 20.9114 15.1758C21.0368 15.7526 20.9758 16.3367 20.7609 16.8141C20.5474 17.2885 20.1567 17.7019 19.6057 17.8217L19.6057 17.8217C19.1068 17.9301 18.6092 17.7693 18.2088 17.4491C17.7558 17.0869 17.4486 16.5511 17.3194 15.9565L18.625 13.3103ZM18.625 13.3103C18.074 13.4301 17.6834 13.8435 17.4698 14.3179M18.625 13.3103L17.4698 14.3179M27.999 20.9096L27.999 20.9094C27.9073 20.3367 28.0403 19.7336 28.3446 19.2067C28.6484 18.6809 29.1031 18.2644 29.6441 18.057C29.8585 17.973 30.0864 17.9286 30.3167 17.9261L30.3168 17.9261C30.5866 17.9232 30.8524 17.9918 31.0871 18.1249L31.0903 18.1267C31.5787 18.4086 31.8249 18.9213 31.8838 19.4382C31.943 19.9584 31.8232 20.5333 31.528 21.0446L31.095 20.7946L31.528 21.0446C31.2238 21.5715 30.7681 21.9882 30.2262 22.1952L27.999 20.9096ZM27.999 20.9096C28.0802 21.4157 28.34 21.8691 28.7821 22.1245C29.2243 22.3799 29.7472 22.3783 30.2261 22.1953L27.999 20.9096ZM25.9796 13.3099L25.9805 13.3101C26.5316 13.4299 26.9222 13.8434 27.1357 14.3177C27.3507 14.7952 27.4116 15.3793 27.2862 15.9561L27.2862 15.9561C27.157 16.5506 26.8499 17.0865 26.3969 17.4487C25.9964 17.7689 25.4992 17.9296 25.0001 17.8213L25.0949 17.3844L25.0001 17.8213C24.449 17.7016 24.0582 17.2882 23.8447 16.8139C23.6297 16.3364 23.5688 15.7524 23.6942 15.1755C23.8233 14.581 24.1304 14.045 24.5836 13.6829L25.9796 13.3099ZM25.9796 13.3099C25.8767 13.2877 25.7718 13.2766 25.6665 13.2768L25.6673 13.7768V13.2768M25.9796 13.3099L25.6673 13.2768M17.4698 14.3179C17.2549 14.7954 17.194 15.3795 17.3194 15.9565L17.4698 14.3179ZM25.6673 13.2768C25.2741 13.2768 24.8994 13.4305 24.5837 13.6828L25.6673 13.2768ZM25.4865 21.6499C26.4016 22.3467 27.0628 23.3245 27.3687 24.4333L28.1669 27.327C28.2897 27.7723 28.3081 28.24 28.2204 28.6936C28.1328 29.1472 27.9416 29.5744 27.6618 29.9419C27.3819 30.3094 27.0209 30.6073 26.607 30.8124C26.193 31.0175 25.7373 31.1242 25.2754 31.1242H19.3302C18.8682 31.1242 18.4125 31.0175 17.9986 30.8124C17.5846 30.6073 17.2237 30.3094 16.9438 29.9419C16.6639 29.5744 16.4727 29.1472 16.3851 28.6936C16.2975 28.24 16.3158 27.7723 16.4387 27.327L17.2369 24.4333C17.5428 23.3245 18.204 22.3467 19.1191 21.6499C20.0342 20.9531 21.1526 20.5757 22.3028 20.5757C23.453 20.5757 24.5714 20.9531 25.4865 21.6499ZM19.2853 18.2559C18.8354 18.2559 18.376 18.0944 17.9592 17.7612L19.2853 18.2559Z" fill="#5B3200" stroke="#5B3200"/>
</svg>
