<svg width="44" height="44" viewBox="0 0 44 44" fill="none" xmlns="http://www.w3.org/2000/svg">
<rect x="0.75" y="0.75" width="42.5" height="42.5" rx="21.25" fill="#FFFED3"/>
<rect x="0.75" y="0.75" width="42.5" height="42.5" rx="21.25" stroke="#E3B05F" stroke-width="1.5"/>
<path d="M28.164 26.8019C28.164 28.1848 27.3525 29.2539 26.0874 30.0145C24.8128 30.7808 23.1715 31.1653 21.8 31.1653C20.4316 31.1653 18.8999 30.7825 17.7337 30.0276C16.5852 29.2843 15.836 28.2191 15.836 26.8019C15.836 24.1384 16.7047 22.4731 17.8271 21.4659C18.9674 20.4426 20.454 20.0234 21.8 20.0234C23.1507 20.0234 24.7482 20.4456 25.9937 21.4838C27.2141 22.5011 28.164 24.1644 28.164 26.8019Z" stroke="#5B3200" stroke-width="1.5"/>
<path d="M20.6127 14.8411C20.6127 16.1561 19.697 17.062 18.7522 17.062C17.8075 17.062 16.8918 16.1561 16.8918 14.8411C16.8918 13.5261 17.8075 12.6202 18.7522 12.6202C19.697 12.6202 20.6127 13.5261 20.6127 14.8411Z" stroke="#5B3200" stroke-width="1.37765"/>
<path d="M15.358 18.7095C15.5863 20.0044 14.8418 21.0556 13.9114 21.2197C12.981 21.3837 11.9219 20.6506 11.6936 19.3556C11.4652 18.0606 12.2097 17.0094 13.1401 16.8454C14.0705 16.6813 15.1296 17.4145 15.358 18.7095Z" stroke="#5B3200" stroke-width="1.37765"/>
<path d="M27.0889 14.8411C27.0889 16.1561 26.1732 17.062 25.2284 17.062C24.2837 17.062 23.368 16.1561 23.368 14.8411C23.368 13.5261 24.2837 12.6202 25.2284 12.6202C26.1732 12.6202 27.0889 13.5261 27.0889 14.8411Z" stroke="#5B3200" stroke-width="1.37765"/>
<path d="M32.3065 19.3556C32.0781 20.6506 31.019 21.3837 30.0886 21.2197C29.1582 21.0556 28.4137 20.0044 28.6421 18.7094C28.8704 17.4144 29.9295 16.6813 30.8599 16.8453C31.7903 17.0094 32.5348 18.0606 32.3065 19.3556Z" stroke="#5B3200" stroke-width="1.37765"/>
</svg>
