<svg width="44" height="44" viewBox="0 0 44 44" fill="none" xmlns="http://www.w3.org/2000/svg">
<rect x="0.75" y="0.75" width="42.5" height="42.5" rx="21.25" fill="#FFFED3"/>
<rect x="0.75" y="0.75" width="42.5" height="42.5" rx="21.25" stroke="#E3B05F" stroke-width="1.5"/>
<path d="M14 18C14 15.172 14 13.757 14.879 12.879C15.757 12 17.172 12 20 12H24C26.828 12 28.243 12 29.121 12.879C30 13.757 30 15.172 30 18V26C30 28.828 30 30.243 29.121 31.121C28.243 32 26.828 32 24 32H20C17.172 32 15.757 32 14.879 31.121C14 30.243 14 28.828 14 26V18Z" stroke="#5B3200" stroke-width="1.5"/>
<path d="M29.898 26H17.898C16.968 26 16.503 26 16.121 26.102C15.6123 26.2384 15.1485 26.5063 14.7762 26.8788C14.4039 27.2513 14.1362 27.7152 14 28.224" stroke="#5B3200" stroke-width="1.5"/>
<path d="M18 17H26M18 20.5H23" stroke="#5B3200" stroke-width="1.5" stroke-linecap="round"/>
</svg>
