<svg width="16" height="16" viewBox="0 0 16 16" fill="none" xmlns="http://www.w3.org/2000/svg">
<rect x="0.733398" y="0.447388" width="15" height="15" rx="7.3407" fill="#5B3200"/>
<path fill-rule="evenodd" clip-rule="evenodd" d="M5.71542 4.74347C5.62549 4.65661 5.50504 4.60855 5.38002 4.60964C5.255 4.61072 5.13541 4.66087 5.04701 4.74928C4.9586 4.83768 4.90845 4.95727 4.90737 5.0823C4.90628 5.20732 4.95434 5.32776 5.0412 5.41769L7.565 7.9415L5.0412 10.4653C4.99566 10.5093 4.95933 10.5619 4.93434 10.6201C4.90935 10.6782 4.8962 10.7408 4.89565 10.8041C4.8951 10.8674 4.90716 10.9302 4.93114 10.9888C4.95511 11.0474 4.99052 11.1007 5.03529 11.1454C5.08006 11.1902 5.13329 11.2256 5.19189 11.2496C5.25049 11.2736 5.31328 11.2856 5.37659 11.2851C5.4399 11.2845 5.50247 11.2714 5.56065 11.2464C5.61882 11.2214 5.67143 11.1851 5.71542 11.1395L8.23922 8.61572L10.763 11.1395C10.853 11.2264 10.9734 11.2744 11.0984 11.2734C11.2234 11.2723 11.343 11.2221 11.4314 11.1337C11.5198 11.0453 11.57 10.9257 11.5711 10.8007C11.5722 10.6757 11.5241 10.5552 11.4373 10.4653L8.91345 7.9415L11.4373 5.41769C11.5241 5.32776 11.5722 5.20732 11.5711 5.0823C11.57 4.95727 11.5198 4.83768 11.4314 4.74928C11.343 4.66087 11.2234 4.61072 11.0984 4.60964C10.9734 4.60855 10.853 4.65661 10.763 4.74347L8.23922 7.26727L5.71542 4.74347Z" fill="white"/>
</svg>
