<svg width="9" height="10" viewBox="0 0 9 10" fill="none" xmlns="http://www.w3.org/2000/svg">
<path d="M0.188822 0.301249C0.248525 0.241395 0.319449 0.193907 0.397533 0.161506C0.475617 0.129104 0.559326 0.112427 0.643866 0.112427C0.728405 0.112427 0.812114 0.129104 0.890198 0.161506C0.968282 0.193907 1.03921 0.241395 1.09891 0.301249L4.50017 3.70379L7.90143 0.301249C7.96118 0.241491 8.03213 0.194089 8.1102 0.161749C8.18828 0.129409 8.27196 0.112763 8.35647 0.112763C8.44098 0.112763 8.52466 0.129409 8.60274 0.161749C8.68082 0.194089 8.75176 0.241491 8.81151 0.301249C8.87127 0.361006 8.91867 0.431948 8.95101 0.510024C8.98336 0.588101 9 0.671783 9 0.756293C9 0.840802 8.98336 0.924484 8.95101 1.00256C8.91867 1.08064 8.87127 1.15158 8.81151 1.21134L5.40897 4.6126L8.81151 8.01385C8.87127 8.07361 8.91867 8.14455 8.95101 8.22263C8.98336 8.30071 9 8.38439 9 8.4689C9 8.55341 8.98336 8.63709 8.95101 8.71517C8.91867 8.79324 8.87127 8.86418 8.81151 8.92394C8.75176 8.9837 8.68082 9.0311 8.60274 9.06344C8.52466 9.09578 8.44098 9.11243 8.35647 9.11243C8.27196 9.11243 8.18828 9.09578 8.1102 9.06344C8.03213 9.0311 7.96118 8.9837 7.90143 8.92394L4.50017 5.5214L1.09891 8.92394C1.03915 8.9837 0.96821 9.0311 0.890134 9.06344C0.812057 9.09578 0.728375 9.11243 0.643866 9.11243C0.559356 9.11243 0.475674 9.09578 0.397598 9.06344C0.319521 9.0311 0.248579 8.9837 0.188822 8.92394C0.129065 8.86418 0.0816626 8.79324 0.0493223 8.71517C0.0169819 8.63709 0.000336506 8.55341 0.000336506 8.4689C0.000336506 8.38439 0.0169819 8.30071 0.0493223 8.22263C0.0816626 8.14455 0.129065 8.07361 0.188822 8.01385L3.59137 4.6126L0.188822 1.21134C0.128968 1.15163 0.0814802 1.08071 0.0490789 1.00263C0.0166777 0.924541 0 0.840832 0 0.756293C0 0.671753 0.0166777 0.588044 0.0490789 0.50996C0.0814802 0.431876 0.128968 0.360952 0.188822 0.301249Z" fill="#232323"/>
</svg>
