<svg width="13" height="13" viewBox="0 0 13 13" fill="none" xmlns="http://www.w3.org/2000/svg">
<path d="M5.94493 1.79246V1.35125C5.94493 1.23423 5.99142 1.12201 6.07416 1.03926C6.1569 0.956519 6.26913 0.910034 6.38614 0.910034C6.50316 0.910034 6.61539 0.956519 6.69813 1.03926C6.78087 1.12201 6.82736 1.23423 6.82736 1.35125V1.79246C6.82736 1.90947 6.78087 2.0217 6.69813 2.10444C6.61539 2.18719 6.50316 2.23367 6.38614 2.23367C6.26913 2.23367 6.1569 2.18719 6.07416 2.10444C5.99142 2.0217 5.94493 1.90947 5.94493 1.79246ZM10.3571 3.55731C10.415 3.55735 10.4724 3.54598 10.526 3.52383C10.5795 3.50169 10.6282 3.46921 10.6692 3.42825L11.1104 2.98704C11.1932 2.90425 11.2397 2.79196 11.2397 2.67488C11.2397 2.5578 11.1932 2.44551 11.1104 2.36272C11.0276 2.27993 10.9153 2.23342 10.7983 2.23342C10.6812 2.23342 10.5689 2.27993 10.4861 2.36272L10.0449 2.80394C9.98312 2.86564 9.94104 2.94429 9.92399 3.02992C9.90694 3.11555 9.91567 3.20432 9.9491 3.28499C9.98252 3.36565 10.0391 3.43458 10.1117 3.48306C10.1844 3.53153 10.2697 3.55737 10.3571 3.55731ZM2.10308 3.42825C2.18587 3.51104 2.29816 3.55755 2.41524 3.55755C2.53232 3.55755 2.64461 3.51104 2.7274 3.42825C2.81018 3.34546 2.8567 3.23318 2.8567 3.11609C2.8567 2.99901 2.81018 2.88673 2.7274 2.80394L2.28618 2.36272C2.20339 2.27993 2.09111 2.23342 1.97403 2.23342C1.85694 2.23342 1.74466 2.27993 1.66187 2.36272C1.57908 2.44551 1.53257 2.5578 1.53257 2.67488C1.53257 2.79196 1.57908 2.90425 1.66187 2.98704L2.10308 3.42825ZM6.90126 4.88701C6.84386 4.87686 6.78503 4.87818 6.72815 4.8909C6.67127 4.90362 6.61747 4.92748 6.56987 4.96111C6.52226 4.99474 6.48179 5.03746 6.45079 5.08682C6.41979 5.13618 6.39888 5.19119 6.38926 5.24867C6.37964 5.30616 6.38151 5.36498 6.39476 5.42174C6.408 5.4785 6.43236 5.53208 6.46643 5.57937C6.5005 5.62666 6.5436 5.66673 6.59324 5.69727C6.64288 5.72781 6.69809 5.74821 6.75566 5.7573C7.80188 5.93323 8.5922 6.88404 8.5922 7.96942C8.5922 8.08644 8.63869 8.19866 8.72143 8.28141C8.80417 8.36415 8.9164 8.41064 9.03342 8.41064C9.15043 8.41064 9.26266 8.36415 9.3454 8.28141C9.42814 8.19866 9.47463 8.08644 9.47463 7.96942C9.47463 6.45827 8.36774 5.13298 6.90016 4.88701H6.90126ZM12.1219 10.6167V11.9403C12.1219 12.1744 12.0289 12.3988 11.8634 12.5643C11.698 12.7298 11.4735 12.8228 11.2395 12.8228H1.53281C1.29878 12.8228 1.07433 12.7298 0.908846 12.5643C0.74336 12.3988 0.650391 12.1744 0.650391 11.9403V10.6167C0.650391 10.3827 0.74336 10.1582 0.908846 9.99273C1.07433 9.82724 1.29878 9.73427 1.53281 9.73427V7.96942C1.5328 7.32895 1.65954 6.69481 1.90575 6.10356C2.15196 5.51231 2.51277 4.97563 2.96736 4.52447C3.42196 4.07331 3.96135 3.71659 4.55446 3.47487C5.14756 3.23315 5.78265 3.11122 6.4231 3.11609C9.07864 3.13595 11.2395 5.33815 11.2395 8.02458V9.73427C11.4735 9.73427 11.698 9.82724 11.8634 9.99273C12.0289 10.1582 12.1219 10.3827 12.1219 10.6167ZM2.41524 9.73427H10.3571V8.02458C10.3571 5.81852 8.58945 4.01451 6.41648 3.99852H6.38614C5.33299 3.99852 4.32298 4.41688 3.57829 5.16157C2.8336 5.90626 2.41524 6.91627 2.41524 7.96942V9.73427ZM11.2395 11.9403V10.6167H1.53281V11.9403H11.2395Z" fill="#FF6669"/>
</svg>
