<svg width="51" height="13" viewBox="0 0 51 13" fill="none" xmlns="http://www.w3.org/2000/svg">
<rect x="0.078125" y="0.910034" width="50" height="12" rx="2.2" fill="#FF8B8D"/>
<path d="M10.4829 4.89223C11.3409 4.89223 11.8557 5.32783 11.8557 5.99443C11.8557 6.66103 11.3409 7.09663 10.4829 7.09663C9.62495 7.09663 9.11015 6.66103 9.11015 5.99443C9.11015 5.32783 9.62495 4.89223 10.4829 4.89223ZM10.4829 3.26203C10.6545 3.26203 10.8129 3.34783 10.8129 3.53923V3.95503H11.9613C12.1197 3.95503 12.1923 4.08703 12.1923 4.23883C12.1923 4.39063 12.1197 4.52263 11.9613 4.52263H8.93855C8.78015 4.52263 8.70755 4.39063 8.70755 4.23883C8.70755 4.08703 8.78015 3.95503 8.93855 3.95503H10.1529V3.53923C10.1529 3.34783 10.3179 3.26203 10.4829 3.26203ZM10.4829 5.41363C9.96815 5.41363 9.70415 5.65123 9.70415 5.99443C9.70415 6.33103 9.96815 6.57523 10.4829 6.57523C10.9977 6.57523 11.2617 6.33103 11.2617 5.99443C11.2617 5.65123 10.9977 5.41363 10.4829 5.41363ZM13.3341 3.27523C13.4991 3.27523 13.6575 3.36103 13.6575 3.54583V7.53223C13.6575 7.71703 13.4991 7.80283 13.3341 7.80283C13.1691 7.80283 13.0107 7.71703 13.0107 7.53223V6.58843H12.3441C12.1857 6.58843 12.1263 6.46303 12.1263 6.31123C12.1263 6.15943 12.1857 6.03403 12.3441 6.03403H13.0107V5.44663H12.3111C12.1527 5.44663 12.0933 5.32123 12.0933 5.16943C12.0933 5.01763 12.1527 4.89223 12.3111 4.89223H13.0107V3.54583C13.0107 3.36103 13.1691 3.27523 13.3341 3.27523ZM10.1133 7.43323C10.2783 7.43323 10.4433 7.51903 10.4433 7.71043V8.57503C10.4433 8.67403 10.4763 8.70703 10.5819 8.70703H13.5783C13.7433 8.70703 13.8159 8.83903 13.8159 8.99743C13.8159 9.14923 13.7433 9.28123 13.5783 9.28123H10.2849C9.90215 9.28123 9.77675 9.16243 9.77675 8.78623V7.71043C9.77675 7.51903 9.93515 7.43323 10.1133 7.43323ZM17.3414 3.77683C17.4998 3.77683 17.5724 3.90883 17.5724 4.06063C17.5724 4.21243 17.4998 4.34443 17.3414 4.34443H16.4966V4.97803C16.4966 5.51923 16.5956 5.82943 16.8926 6.18583C17.1236 6.46303 17.3612 6.70723 17.5262 6.87883C17.6384 7.00423 17.6252 7.18903 17.513 7.30123C17.4008 7.40683 17.2292 7.43323 17.1038 7.30783C16.9916 7.19563 16.7804 6.96463 16.5692 6.73363C16.2788 6.39703 16.2062 6.23203 16.1798 6.09343H16.1732C16.1534 6.23863 16.0676 6.42343 15.7772 6.75343C15.566 6.99103 15.3614 7.20883 15.1436 7.42663C15.0182 7.55203 14.8334 7.51903 14.7278 7.41343C14.6156 7.29463 14.5826 7.11643 14.708 6.98443C14.9654 6.72703 15.2162 6.46303 15.4538 6.18583C15.7508 5.82943 15.8498 5.51923 15.8498 4.97803V4.34443H14.9522C14.7872 4.34443 14.7146 4.21243 14.7146 4.06063C14.7146 3.90883 14.7872 3.77683 14.9522 3.77683H17.3414ZM19.5062 3.27523C19.6646 3.27523 19.8164 3.35443 19.8164 3.53263V8.72023C19.8164 8.89843 19.6646 8.97763 19.5062 8.97763C19.3544 8.97763 19.2026 8.89843 19.2026 8.72023V5.86243H18.4964V8.44303C18.4964 8.62123 18.3446 8.70043 18.1862 8.70043C18.0344 8.70043 17.8826 8.62123 17.8826 8.44303V3.59863C17.8826 3.42043 18.0344 3.34123 18.1862 3.34123C18.3446 3.34123 18.4964 3.42043 18.4964 3.59863V5.30143H19.2026V3.53263C19.2026 3.35443 19.3544 3.27523 19.5062 3.27523ZM24.8994 3.66463C25.2822 3.66463 25.4076 3.78343 25.4076 4.15963V4.70083C25.4076 5.63803 25.0578 5.92183 23.025 6.93823C22.8732 7.01083 22.7016 6.92503 22.629 6.78643C22.5696 6.65443 22.563 6.46303 22.7346 6.38383C24.576 5.47963 24.7476 5.30143 24.7476 4.68103V4.37083C24.7476 4.27183 24.7146 4.23883 24.609 4.23883H22.893C22.728 4.23883 22.6554 4.10683 22.6554 3.95503C22.6554 3.79663 22.728 3.66463 22.893 3.66463H24.8994ZM26.952 3.27523C27.1236 3.27523 27.282 3.36103 27.282 3.55243V7.45963C27.282 7.65103 27.1236 7.73683 26.952 7.73683C26.7804 7.73683 26.622 7.65103 26.622 7.45963V3.55243C26.622 3.36103 26.7804 3.27523 26.952 3.27523ZM23.7642 7.18243C23.9292 7.18243 24.0942 7.26823 24.0942 7.45963V8.57503C24.0942 8.67403 24.1272 8.70703 24.2328 8.70703H27.2028C27.3678 8.70703 27.4404 8.83903 27.4404 8.99743C27.4404 9.14923 27.3678 9.28123 27.2028 9.28123H23.9358C23.553 9.28123 23.4276 9.16243 23.4276 8.78623V7.45963C23.4276 7.26823 23.586 7.18243 23.7642 7.18243ZM29.3818 6.90523C29.5468 6.90523 29.7052 6.99103 29.7052 7.17583V7.66423H32.464V7.17583C32.464 6.99103 32.6224 6.90523 32.7808 6.90523C32.9458 6.90523 33.1108 6.99103 33.1108 7.17583V8.84563C33.1108 9.22183 32.9854 9.34063 32.6026 9.34063H29.5666C29.1838 9.34063 29.065 9.22183 29.065 8.84563V7.17583C29.065 6.99103 29.2234 6.90523 29.3818 6.90523ZM33.6256 5.71723C33.784 5.71723 33.8566 5.84923 33.8566 6.00103C33.8566 6.15283 33.784 6.27823 33.6256 6.27823H28.5436C28.3852 6.27823 28.3126 6.15283 28.3126 6.00103C28.3126 5.84923 28.3852 5.71723 28.5436 5.71723H32.233C32.332 5.30143 32.3848 4.87903 32.3848 4.45003V4.22563C32.3848 4.12663 32.3518 4.09363 32.2462 4.09363H29.2366C29.0782 4.09363 29.0122 3.96163 29.0122 3.80983C29.0122 3.65143 29.0782 3.51943 29.2366 3.51943H32.5366C32.9194 3.51943 33.0448 3.63823 33.0448 4.01443V4.40383C33.0448 4.86583 32.9656 5.34763 32.8732 5.71723H33.6256ZM29.7052 8.19223V8.70043C29.7052 8.77303 29.7382 8.80603 29.8108 8.80603H32.3584C32.431 8.80603 32.464 8.77303 32.464 8.70043V8.19223H29.7052ZM40.6623 3.27523C40.8273 3.27523 40.9857 3.36103 40.9857 3.55243V7.45963C40.9857 7.65103 40.8273 7.73683 40.6623 7.73683C40.4907 7.73683 40.3323 7.65103 40.3323 7.45963V5.38723H38.8803C38.6691 5.87563 38.0949 6.21223 36.6495 6.93823C36.4977 7.01083 36.3261 6.92503 36.2535 6.78643C36.1941 6.65443 36.1875 6.46303 36.3591 6.38383C38.1939 5.47963 38.3325 5.32123 38.3325 4.68103V4.37083C38.3325 4.27183 38.2995 4.23883 38.1939 4.23883H36.5175C36.3525 4.23883 36.2799 4.10683 36.2799 3.95503C36.2799 3.79663 36.3525 3.66463 36.5175 3.66463H38.4843C38.8671 3.66463 38.9925 3.78343 38.9925 4.15963V4.70083C38.9925 4.74703 38.9859 4.78663 38.9859 4.82623H40.3323V3.55243C40.3323 3.36103 40.4907 3.27523 40.6623 3.27523ZM37.4415 7.18243C37.6065 7.18243 37.7715 7.26823 37.7715 7.45963V8.57503C37.7715 8.67403 37.8045 8.70703 37.9101 8.70703H40.9065C41.0715 8.70703 41.1441 8.83903 41.1441 8.99743C41.1441 9.14923 41.0715 9.28123 40.9065 9.28123H37.6131C37.2303 9.28123 37.1049 9.16243 37.1049 8.78623V7.45963C37.1049 7.26823 37.2633 7.18243 37.4415 7.18243Z" fill="white"/>
</svg>
