<svg xmlns="http://www.w3.org/2000/svg" width="9" height="13" viewBox="0 0 9 13" fill="none">
  <path fill-rule="evenodd" clip-rule="evenodd" d="M4.03465 12.2061C4.03465 12.2061 0.11084 8.75223 0.11084 5.35373C0.11084 4.15553 0.566252 3.00642 1.37689 2.15917C2.18753 1.31192 3.28699 0.835938 4.43341 0.835938C5.57983 0.835938 6.67929 1.31192 7.48993 2.15917C8.30057 3.00642 8.75598 4.15553 8.75598 5.35373C8.75598 8.75223 4.83217 12.2061 4.83217 12.2061C4.61388 12.4162 4.25456 12.4139 4.03465 12.2061ZM4.43341 7.33026C4.68176 7.33026 4.92767 7.27913 5.15711 7.1798C5.38655 7.08047 5.59503 6.93488 5.77064 6.75134C5.94624 6.56781 6.08554 6.34992 6.18058 6.11011C6.27562 5.87031 6.32454 5.61329 6.32454 5.35373C6.32454 5.09416 6.27562 4.83714 6.18058 4.59734C6.08554 4.35754 5.94624 4.13964 5.77064 3.95611C5.59503 3.77257 5.38655 3.62698 5.15711 3.52765C4.92767 3.42832 4.68176 3.37719 4.43341 3.37719C3.93185 3.37719 3.45084 3.58543 3.09618 3.95611C2.74153 4.32678 2.54229 4.82952 2.54229 5.35373C2.54229 5.87793 2.74153 6.38067 3.09618 6.75134C3.45084 7.12202 3.93185 7.33026 4.43341 7.33026Z" fill="#575757"/>
</svg>